SplineFontDB: 3.0
FontName: Topmarks-Bold
FullName: Topmarks Bold
FamilyName: Topmarks
Weight: Bold
Copyright: Copyright (c) 2012-13 by vernon adams. All rights reserved.
Version: 
ItalicAngle: 0
UnderlinePosition: 0
UnderlineWidth: 0
Ascent: 1638
Descent: 410
sfntRevision: 0x00010000
LayerCount: 2
Layer: 0 1 "Back"  1
Layer: 1 1 "Fore"  0
XUID: [1021 913 -2060267417 4479676]
FSType: 1
OS2Version: 1
OS2_WeightWidthSlopeOnly: 0
OS2_UseTypoMetrics: 1
CreationTime: 1369860236
ModificationTime: 1369869603
PfmFamily: 17
TTFWeight: 700
TTFWidth: 5
LineGap: 0
VLineGap: 0
Panose: 2 0 8 3 0 0 0 0 0 0
OS2TypoAscent: 1638
OS2TypoAOffset: 0
OS2TypoDescent: -410
OS2TypoDOffset: 0
OS2TypoLinegap: 0
OS2WinAscent: 1508
OS2WinAOffset: 0
OS2WinDescent: 540
OS2WinDOffset: 0
HheadAscent: 2440
HheadAOffset: 0
HheadDescent: -1101
HheadDOffset: 0
OS2SubXSize: 1331
OS2SubYSize: 1433
OS2SubXOff: 0
OS2SubYOff: 286
OS2SupXSize: 1331
OS2SupYSize: 1433
OS2SupXOff: 0
OS2SupYOff: 983
OS2StrikeYSize: 102
OS2StrikeYPos: 530
OS2Vendor: 'newt'
OS2CodePages: 20000081.00000000
OS2UnicodeRanges: 800000ef.4000204b.00000000.00000000
Lookup: 258 0 0 "'kern' Horizontal Kerning in Latin lookup 0"  {"'kern' Horizontal Kerning in Latin lookup 0 kerning class 0"  "'kern' Horizontal Kerning in Latin lookup 0 per glyph data 1"  } ['kern' ('latn' <'dflt' > ) ]
Lookup: 260 0 0 "Mark to base attachment lookup 1"  {"Mark to base attachment lookup 1 subtable"  } []
MarkAttachClasses: 1
DEI: 91125
KernClass2: 16 21 "'kern' Horizontal Kerning in Latin lookup 0 kerning class 0" 
 89 A Agrave Aacute Acircumflex Atilde Adieresis Aring Amacron Abreve Aogonek uni0200 uni0202
 1 D
 1 F
 14 G Gcommaaccent
 1 K
 1 L
 1 P
 44 R Racute Rcommaaccent Rcaron uni0210 uni0212
 9 T uni021A
 1 V
 1 W
 18 Y Yacute Ydieresis
 24 c ccedilla cacute ccaron
 60 o ograve oacute ocircumflex otilde odieresis uni020D uni020F
 37 r rcommaaccent rcaron uni0211 uni0213

StartChar: exclam
Encoding: 33 33 4
Width: 782
GlyphClass: 2
Flags: W
LayerCount: 2
UndoRedoHistory
Layer: 1
Undoes
EndUndoes
Redoes
EndRedoes
EndUndoRedoHistory
Fore
SplineSet
319 498 m 1,0,-1
 228 1456 l 1,1,-1
 542 1456 l 1,2,-1
 448 498 l 1,3,-1
 319 498 l 1,0,-1
391 -12 m 128,-1,5
 319 -12 319 -12 272.5 33 c 128,-1,6
 226 78 226 78 226 149 c 0,7,8
 226 218 226 218 272.5 262 c 128,-1,9
 319 306 319 306 391 306 c 128,-1,10
 463 306 463 306 509.5 261.5 c 128,-1,11
 556 217 556 217 556 146 c 0,12,13
 556 76 556 76 509.5 32 c 128,-1,4
 463 -12 463 -12 391 -12 c 128,-1,5
EndSplineSet
EndChar

StartChar: quotedbl
Encoding: 34 34 5
Width: 923
GlyphClass: 2
Flags: W
LayerCount: 2
UndoRedoHistory
Layer: 1
Undoes
EndUndoes
Redoes
EndRedoes
EndUndoRedoHistory
Fore
SplineSet
224 884 m 1,0,-1
 182 1456 l 1,1,-1
 403 1456 l 1,2,-1
 373 884 l 1,3,-1
 224 884 l 1,0,-1
562 884 m 1,4,-1
 520 1456 l 1,5,-1
 741 1456 l 1,6,-1
 711 884 l 1,7,-1
 562 884 l 1,4,-1
EndSplineSet
EndChar

StartChar: numbersign
Encoding: 35 35 6
Width: 1501
GlyphClass: 2
Flags: W
LayerCount: 2
UndoRedoHistory
Layer: 1
Undoes
EndUndoes
Redoes
EndRedoes
EndUndoRedoHistory
Fore
SplineSet
591 579 m 1,0,-1
 871 579 l 1,1,-1
 925 903 l 1,2,-1
 649 903 l 1,3,-1
 591 579 l 1,0,-1
332 0 m 1,4,-1
 415 432 l 1,5,-1
 124 432 l 1,6,-1
 137 579 l 1,7,-1
 440 579 l 1,8,-1
 494 903 l 1,9,-1
 200 903 l 1,10,-1
 216 1048 l 1,11,-1
 516 1048 l 1,12,-1
 590 1456 l 1,13,-1
 745 1456 l 1,14,-1
 673 1048 l 1,15,-1
 950 1048 l 1,16,-1
 1021 1456 l 1,17,-1
 1181 1456 l 1,18,-1
 1103 1048 l 1,19,-1
 1382 1048 l 1,20,-1
 1365 903 l 1,21,-1
 1079 903 l 1,22,-1
 1024 579 l 1,23,-1
 1308 579 l 1,24,-1
 1291 432 l 1,25,-1
 1001 432 l 1,26,-1
 924 0 l 1,27,-1
 771 0 l 1,28,-1
 844 432 l 1,29,-1
 568 432 l 1,30,-1
 492 0 l 1,31,-1
 332 0 l 1,4,-1
EndSplineSet
EndChar

StartChar: dollar
Encoding: 36 36 7
Width: 1227
GlyphClass: 2
Flags: W
LayerCount: 2
UndoRedoHistory
Layer: 1
Undoes
EndUndoes
Redoes
EndRedoes
EndUndoRedoHistory
Fore
SplineSet
696 191 m 1,0,1
 764 203 764 203 808 244 c 0,2,3
 870 302 870 302 870 387 c 0,4,5
 870 422 870 422 865 445.5 c 128,-1,6
 860 469 860 469 840.5 498.5 c 0,7,8
 820 528 820 528 784 552 c 0,9,10
 751 573 751 573 696 599 c 1,11,-1
 696 191 l 1,0,1
696 1478 m 1,12,13
 889 1461 889 1461 1054 1360 c 1,14,-1
 984 1166 l 1,15,16
 823 1251 823 1251 696 1269 c 1,17,-1
 696 854 l 1,18,19
 926 770 926 770 1014 678 c 0,20,21
 1110 578 1110 578 1106 393 c 0,22,23
 1104 306 1104 306 1075 232 c 128,-1,24
 1046 158 1046 158 990.5 100.5 c 0,25,26
 936 42 936 42 846 10 c 0,27,28
 779 -15 779 -15 696 -20 c 1,29,-1
 696 -213 l 1,30,-1
 565 -213 l 1,31,-1
 565 -19 l 1,32,33
 474 -10 474 -10 376 18 c 0,34,35
 236 58 236 58 132 123 c 1,36,-1
 191 321 l 1,37,38
 393 208 393 208 565 190 c 1,39,-1
 566 651 l 1,40,41
 545 658 545 658 522 666 c 0,42,43
 404 707 404 707 325 752 c 128,-1,44
 246 797 246 797 202.5 848 c 128,-1,45
 159 899 159 899 141.5 952 c 128,-1,46
 124 1005 124 1005 124 1074 c 0,47,48
 124 1158 124 1158 151.5 1229.5 c 128,-1,49
 179 1301 179 1301 236 1359 c 0,50,51
 293 1418 293 1418 390 1450 c 0,52,53
 468 1476 468 1476 567 1481 c 1,54,-1
 567 1628 l 1,55,-1
 696 1628 l 1,56,-1
 696 1478 l 1,12,13
567 1271 m 1,57,58
 480 1263 480 1263 438 1230 c 0,59,60
 382 1186 382 1186 382 1107 c 0,61,62
 382 1065 382 1065 390 1039 c 128,-1,63
 398 1013 398 1013 426 984 c 128,-1,64
 454 955 454 955 508 928 c 0,65,66
 533 916 533 916 566 902 c 1,67,-1
 567 1271 l 1,57,58
EndSplineSet
EndChar

StartChar: percent
Encoding: 37 37 8
Width: 2307
GlyphClass: 2
Flags: W
LayerCount: 2
UndoRedoHistory
Layer: 1
Undoes
EndUndoes
Redoes
EndRedoes
EndUndoRedoHistory
Fore
SplineSet
574 0 m 1,0,-1
 1546 1470 l 1,1,-1
 1748 1470 l 1,2,-1
 785 0 l 1,3,-1
 574 0 l 1,0,-1
1805 -22 m 0,4,5
 1671 -22 1671 -22 1575.5 40 c 128,-1,6
 1480 102 1480 102 1435.5 200.5 c 128,-1,7
 1391 299 1391 299 1391 422 c 0,8,9
 1391 629 1391 629 1508 750.5 c 128,-1,10
 1625 872 1625 872 1811 872 c 0,11,12
 2007 872 2007 872 2115 751 c 128,-1,13
 2223 630 2223 630 2223 427 c 0,14,15
 2223 221 2223 221 2106.5 99.5 c 128,-1,16
 1990 -22 1990 -22 1805 -22 c 0,4,5
1813 134 m 0,17,18
 1923 134 1923 134 1980 217 c 128,-1,19
 2037 300 2037 300 2037 428 c 0,20,21
 2037 560 2037 560 1979 638.5 c 128,-1,22
 1921 717 1921 717 1814 717 c 0,23,24
 1701 717 1701 717 1644 634.5 c 128,-1,25
 1587 552 1587 552 1587 424 c 0,26,27
 1587 295 1587 295 1643.5 214.5 c 128,-1,28
 1700 134 1700 134 1813 134 c 0,17,18
507 737 m 0,29,30
 617 737 617 737 674 820 c 128,-1,31
 731 903 731 903 731 1031 c 0,32,33
 731 1163 731 1163 673 1241.5 c 128,-1,34
 615 1320 615 1320 508 1320 c 0,35,36
 395 1320 395 1320 338 1237.5 c 128,-1,37
 281 1155 281 1155 281 1027 c 0,38,39
 281 898 281 898 337.5 817.5 c 128,-1,40
 394 737 394 737 507 737 c 0,29,30
499 581 m 0,41,42
 365 581 365 581 269.5 643 c 128,-1,43
 174 705 174 705 129.5 803.5 c 128,-1,44
 85 902 85 902 85 1025 c 0,45,46
 85 1232 85 1232 202 1353.5 c 128,-1,47
 319 1475 319 1475 505 1475 c 0,48,49
 701 1475 701 1475 809 1354 c 128,-1,50
 917 1233 917 1233 917 1030 c 0,51,52
 917 824 917 824 800.5 702.5 c 128,-1,53
 684 581 684 581 499 581 c 0,41,42
EndSplineSet
EndChar

StartChar: ampersand
Encoding: 38 38 9
Width: 1525
GlyphClass: 2
Flags: W
LayerCount: 2
UndoRedoHistory
Layer: 1
Undoes
EndUndoes
Redoes
EndRedoes
EndUndoRedoHistory
Fore
SplineSet
586 910 m 1,0,1
 660 952 660 952 716.5 1025.5 c 128,-1,2
 773 1099 773 1099 773 1174 c 0,3,4
 773 1242 773 1242 728 1278.5 c 128,-1,5
 683 1315 683 1315 614 1315 c 0,6,7
 544 1315 544 1315 495.5 1278.5 c 128,-1,8
 447 1242 447 1242 447 1174 c 0,9,10
 447 1100 447 1100 485 1038 c 128,-1,11
 523 976 523 976 586 910 c 1,0,1
902 293 m 1,12,-1
 517 712 l 1,13,14
 407 635 407 635 359 566 c 128,-1,15
 311 497 311 497 311 395 c 0,16,17
 311 271 311 271 388 205.5 c 128,-1,18
 465 140 465 140 580 140 c 0,19,20
 669 140 669 140 756.5 180 c 128,-1,21
 844 220 844 220 902 293 c 1,12,-1
98 386 m 0,22,23
 98 464 98 464 123.5 531.5 c 128,-1,24
 149 599 149 599 197 652.5 c 128,-1,25
 245 706 245 706 297.5 746.5 c 128,-1,26
 350 787 350 787 419 827 c 1,27,28
 379 870 379 870 356.5 898.5 c 128,-1,29
 334 927 334 927 307 970 c 128,-1,30
 280 1013 280 1013 267.5 1060.5 c 128,-1,31
 255 1108 255 1108 255 1162 c 0,32,33
 255 1306 255 1306 357.5 1394.5 c 128,-1,34
 460 1483 460 1483 604 1483 c 0,35,36
 761 1483 761 1483 867 1404 c 128,-1,37
 973 1325 973 1325 973 1191 c 0,38,39
 973 1133 973 1133 953.5 1079.5 c 128,-1,40
 934 1026 934 1026 905.5 987.5 c 128,-1,41
 877 949 877 949 833 911 c 128,-1,42
 789 873 789 873 752.5 849 c 128,-1,43
 716 825 716 825 669 799 c 1,44,-1
 1001 436 l 1,45,46
 1069 529 1069 529 1106 657.5 c 128,-1,47
 1143 786 1143 786 1143 919 c 1,48,-1
 1335 871 l 1,49,50
 1328 697 1328 697 1276 548.5 c 128,-1,51
 1224 400 1224 400 1137 289 c 1,52,53
 1200 225 1200 225 1229 204 c 0,54,55
 1302 152 1302 152 1446 122 c 1,56,-1
 1369 -36 l 1,57,58
 1167 -7 1167 -7 1009 159 c 1,59,60
 928 64 928 64 808.5 13.5 c 128,-1,61
 689 -37 689 -37 562 -37 c 0,62,63
 470 -37 470 -37 388 -10 c 128,-1,64
 306 17 306 17 240.5 68 c 128,-1,65
 175 119 175 119 136.5 201 c 128,-1,66
 98 283 98 283 98 386 c 0,22,23
EndSplineSet
EndChar

StartChar: quotesingle
Encoding: 39 39 10
Width: 584
GlyphClass: 2
Flags: W
LayerCount: 2
UndoRedoHistory
Layer: 1
Undoes
EndUndoes
Redoes
EndRedoes
EndUndoRedoHistory
Fore
SplineSet
223 908 m 1,0,-1
 181 1480 l 1,1,-1
 402 1480 l 1,2,-1
 372 908 l 1,3,-1
 223 908 l 1,0,-1
EndSplineSet
EndChar

StartChar: parenleft
Encoding: 40 40 11
Width: 703
GlyphClass: 2
Flags: W
LayerCount: 2
UndoRedoHistory
Layer: 1
Undoes
EndUndoes
Redoes
EndRedoes
EndUndoRedoHistory
Fore
SplineSet
619 1564 m 1,0,1
 545 1406 545 1406 504 1308.5 c 128,-1,2
 463 1211 463 1211 426.5 1100 c 128,-1,3
 390 989 390 989 375.5 890 c 128,-1,4
 361 791 361 791 361 678 c 0,5,6
 361 584 361 584 373 495 c 128,-1,7
 385 406 385 406 403.5 331 c 128,-1,8
 422 256 422 256 460 154.5 c 128,-1,9
 498 53 498 53 532.5 -26.5 c 128,-1,10
 567 -106 567 -106 630 -244 c 1,11,-1
 403 -244 l 1,12,13
 330 -108 330 -108 289.5 -27.5 c 128,-1,14
 249 53 249 53 204.5 153.5 c 128,-1,15
 160 254 160 254 138.5 329 c 128,-1,16
 117 404 117 404 103 492.5 c 128,-1,17
 89 581 89 581 89 675 c 0,18,19
 89 789 89 789 106 888 c 128,-1,20
 123 987 123 987 166 1099 c 128,-1,21
 209 1211 209 1211 257 1308 c 128,-1,22
 305 1405 305 1405 392 1564 c 1,23,-1
 619 1564 l 1,0,1
EndSplineSet
EndChar

StartChar: parenright
Encoding: 41 41 12
Width: 704
GlyphClass: 2
Flags: W
LayerCount: 2
UndoRedoHistory
Layer: 1
Undoes
EndUndoes
Redoes
EndRedoes
EndUndoRedoHistory
Fore
SplineSet
86 -244 m 1,0,1
 160 -86 160 -86 201 11.5 c 128,-1,2
 242 109 242 109 278.5 220 c 128,-1,3
 315 331 315 331 329.5 430 c 128,-1,4
 344 529 344 529 344 642 c 0,5,6
 344 736 344 736 332 825 c 128,-1,7
 320 914 320 914 301.5 989 c 128,-1,8
 283 1064 283 1064 245 1165.5 c 128,-1,9
 207 1267 207 1267 172.5 1346.5 c 128,-1,10
 138 1426 138 1426 75 1564 c 1,11,-1
 302 1564 l 1,12,13
 375 1428 375 1428 415.5 1347.5 c 128,-1,14
 456 1267 456 1267 500.5 1166.5 c 128,-1,15
 545 1066 545 1066 566.5 991 c 128,-1,16
 588 916 588 916 602 827.5 c 128,-1,17
 616 739 616 739 616 645 c 0,18,19
 616 531 616 531 599 432 c 128,-1,20
 582 333 582 333 539 221 c 128,-1,21
 496 109 496 109 448 12 c 128,-1,22
 400 -85 400 -85 313 -244 c 1,23,-1
 86 -244 l 1,0,1
EndSplineSet
EndChar

StartChar: asterisk
Encoding: 42 42 13
Width: 1156
GlyphClass: 2
Flags: W
LayerCount: 2
UndoRedoHistory
Layer: 1
Undoes
EndUndoes
Redoes
EndRedoes
EndUndoRedoHistory
Fore
SplineSet
745 618 m 1,0,-1
 576 930 l 1,1,-1
 413 627 l 1,2,-1
 267 715 l 1,3,-1
 485 995 l 1,4,-1
 164 1104 l 1,5,-1
 228 1250 l 1,6,-1
 524 1100 l 1,7,-1
 494 1456 l 1,8,-1
 645 1456 l 1,9,-1
 632 1106 l 1,10,-1
 916 1251 l 1,11,-1
 992 1105 l 1,12,-1
 663 999 l 1,13,-1
 893 704 l 1,14,-1
 745 618 l 1,0,-1
EndSplineSet
EndChar

StartChar: plus
Encoding: 43 43 14
Width: 1426
GlyphClass: 2
Flags: W
LayerCount: 2
UndoRedoHistory
Layer: 1
Undoes
EndUndoes
Redoes
EndRedoes
EndUndoRedoHistory
Fore
SplineSet
621 135 m 1,0,-1
 621 611 l 1,1,-1
 188 611 l 1,2,-1
 188 795 l 1,3,-1
 623 795 l 1,4,-1
 623 1272 l 1,5,-1
 817 1272 l 1,6,-1
 817 795 l 1,7,-1
 1238 795 l 1,8,-1
 1238 611 l 1,9,-1
 815 611 l 1,10,-1
 815 135 l 1,11,-1
 621 135 l 1,0,-1
EndSplineSet
EndChar

StartChar: comma
Encoding: 44 44 15
Width: 612
GlyphClass: 2
Flags: W
AnchorPoint: "Anchor-1" 312 346 mark 0
LayerCount: 2
UndoRedoHistory
Layer: 1
Undoes
EndUndoes
Redoes
EndRedoes
EndUndoRedoHistory
Fore
SplineSet
138 -297 m 1,0,-1
 228 255 l 1,1,-1
 483 255 l 1,2,-1
 292 -297 l 1,3,-1
 138 -297 l 1,0,-1
EndSplineSet
EndChar

StartChar: hyphen
Encoding: 45 45 16
Width: 1163
GlyphClass: 2
Flags: W
LayerCount: 2
UndoRedoHistory
Layer: 1
Undoes
EndUndoes
Redoes
EndRedoes
EndUndoRedoHistory
Fore
SplineSet
192 640 m 1,0,-1
 192 837 l 1,1,-1
 971 837 l 1,2,-1
 971 640 l 1,3,-1
 192 640 l 1,0,-1
EndSplineSet
EndChar

StartChar: period
Encoding: 46 46 17
Width: 699
GlyphClass: 2
Flags: W
LayerCount: 2
UndoRedoHistory
Layer: 1
Undoes
EndUndoes
Redoes
EndRedoes
EndUndoRedoHistory
Fore
SplineSet
350 -12 m 128,-1,1
 278 -12 278 -12 231.5 33 c 128,-1,2
 185 78 185 78 185 149 c 0,3,4
 185 218 185 218 231.5 262 c 128,-1,5
 278 306 278 306 350 306 c 128,-1,6
 422 306 422 306 468.5 261.5 c 128,-1,7
 515 217 515 217 515 146 c 0,8,9
 515 76 515 76 468.5 32 c 128,-1,0
 422 -12 422 -12 350 -12 c 128,-1,1
EndSplineSet
EndChar

StartChar: slash
Encoding: 47 47 18
Width: 942
GlyphClass: 2
Flags: W
LayerCount: 2
UndoRedoHistory
Layer: 1
Undoes
EndUndoes
Redoes
EndRedoes
EndUndoRedoHistory
Fore
SplineSet
77 0 m 1,0,-1
 672 1470 l 1,1,-1
 864 1470 l 1,2,-1
 277 0 l 1,3,-1
 77 0 l 1,0,-1
EndSplineSet
EndChar

StartChar: zero
Encoding: 48 48 19
Width: 1282
GlyphClass: 2
Flags: W
LayerCount: 2
UndoRedoHistory
Layer: 1
Undoes
EndUndoes
Redoes
EndRedoes
EndUndoRedoHistory
Fore
SplineSet
640 -24 m 128,-1,1
 470 -24 470 -24 348.5 73.5 c 128,-1,2
 227 171 227 171 167 339 c 128,-1,3
 107 507 107 507 107 728 c 0,4,5
 107 952 107 952 167 1120 c 128,-1,6
 227 1288 227 1288 348.5 1384 c 128,-1,7
 470 1480 470 1480 640 1480 c 0,8,9
 811 1480 811 1480 933 1384 c 128,-1,10
 1055 1288 1055 1288 1115 1120 c 128,-1,11
 1175 952 1175 952 1175 728 c 0,12,13
 1175 507 1175 507 1115 339 c 128,-1,14
 1055 171 1055 171 932.5 73.5 c 128,-1,0
 810 -24 810 -24 640 -24 c 128,-1,1
639 184 m 0,15,16
 781 184 781 184 859 334.5 c 128,-1,17
 937 485 937 485 937 731 c 0,18,19
 937 980 937 980 859.5 1126 c 128,-1,20
 782 1272 782 1272 639 1272 c 0,21,22
 542 1272 542 1272 475 1203.5 c 128,-1,23
 408 1135 408 1135 376.5 1015 c 128,-1,24
 345 895 345 895 345 731 c 0,25,26
 345 569 345 569 376.5 448 c 128,-1,27
 408 327 408 327 475.5 255.5 c 128,-1,28
 543 184 543 184 639 184 c 0,15,16
EndSplineSet
EndChar

StartChar: one
Encoding: 49 49 20
Width: 1282
GlyphClass: 2
Flags: W
LayerCount: 2
UndoRedoHistory
Layer: 1
Undoes
EndUndoes
Redoes
EndRedoes
EndUndoRedoHistory
Fore
SplineSet
516 0 m 1,0,-1
 516 1456 l 1,1,-1
 766 1456 l 1,2,-1
 766 0 l 1,3,-1
 516 0 l 1,0,-1
EndSplineSet
EndChar

StartChar: two
Encoding: 50 50 21
Width: 1282
GlyphClass: 2
Flags: W
LayerCount: 2
UndoRedoHistory
Layer: 1
Undoes
EndUndoes
Redoes
EndRedoes
EndUndoRedoHistory
Fore
SplineSet
627 1480 m 0,0,1
 716 1480 716 1480 797 1452 c 128,-1,2
 878 1424 878 1424 943.5 1370 c 128,-1,3
 1009 1316 1009 1316 1048 1227.5 c 128,-1,4
 1087 1139 1087 1139 1087 1027 c 0,5,6
 1087 914 1087 914 1021.5 800 c 128,-1,7
 956 686 956 686 830 543 c 2,8,-1
 529 200 l 1,9,-1
 1074 200 l 1,10,-1
 1074 0 l 1,11,-1
 222 0 l 1,12,-1
 222 192 l 1,13,-1
 667 685 l 2,14,15
 838 875 838 875 838 1041 c 0,16,17
 838 1144 838 1144 773.5 1208 c 128,-1,18
 709 1272 709 1272 606 1272 c 0,19,20
 457 1272 457 1272 317 1112 c 1,21,-1
 161 1246 l 1,22,23
 243 1360 243 1360 370 1420 c 128,-1,24
 497 1480 497 1480 627 1480 c 0,0,1
EndSplineSet
EndChar

StartChar: three
Encoding: 51 51 22
Width: 1282
GlyphClass: 2
Flags: W
LayerCount: 2
UndoRedoHistory
Layer: 1
Undoes
EndUndoes
Redoes
EndRedoes
EndUndoRedoHistory
Fore
SplineSet
627 -24 m 0,0,1
 493 -24 493 -24 390 8 c 128,-1,2
 287 40 287 40 184 112 c 1,3,-1
 276 288 l 1,4,5
 436 184 436 184 623 184 c 0,6,7
 731 184 731 184 799 247.5 c 128,-1,8
 867 311 867 311 867 410 c 0,9,10
 867 471 867 471 849 515.5 c 128,-1,11
 831 560 831 560 802.5 586 c 128,-1,12
 774 612 774 612 729.5 627 c 128,-1,13
 685 642 685 642 641.5 647 c 128,-1,14
 598 652 598 652 540 652 c 2,15,-1
 435 652 l 1,16,-1
 435 848 l 1,17,-1
 526 848 l 2,18,19
 823 848 823 848 823 1060 c 0,20,21
 823 1164 823 1164 757 1218 c 128,-1,22
 691 1272 691 1272 597 1272 c 0,23,24
 514 1272 514 1272 428 1244.5 c 128,-1,25
 342 1217 342 1217 283 1160 c 1,26,-1
 171 1317 l 1,27,28
 346 1480 346 1480 602 1480 c 0,29,30
 692 1480 692 1480 772.5 1456 c 128,-1,31
 853 1432 853 1432 918 1386 c 128,-1,32
 983 1340 983 1340 1021.5 1263.5 c 128,-1,33
 1060 1187 1060 1187 1060 1090 c 0,34,35
 1060 1020 1060 1020 1038.5 961.5 c 128,-1,36
 1017 903 1017 903 981.5 865 c 128,-1,37
 946 827 946 827 909 803 c 128,-1,38
 872 779 872 779 834 768 c 1,39,40
 876 760 876 760 918 738 c 128,-1,41
 960 716 960 716 1004 675.5 c 128,-1,42
 1048 635 1048 635 1075.5 565.5 c 128,-1,43
 1103 496 1103 496 1103 407 c 0,44,45
 1103 274 1103 274 1037 174.5 c 128,-1,46
 971 75 971 75 864 25.5 c 128,-1,47
 757 -24 757 -24 627 -24 c 0,0,1
EndSplineSet
EndChar

StartChar: four
Encoding: 52 52 23
Width: 1282
GlyphClass: 2
Flags: W
LayerCount: 2
UndoRedoHistory
Layer: 1
Undoes
EndUndoes
Redoes
EndRedoes
EndUndoRedoHistory
Fore
SplineSet
982 868 m 1,0,-1
 982 518 l 1,1,-1
 1179 518 l 1,2,-1
 1179 327 l 1,3,-1
 982 327 l 1,4,-1
 982 0 l 1,5,-1
 772 0 l 1,6,-1
 772 327 l 1,7,-1
 154 327 l 1,8,-1
 154 504 l 1,9,-1
 520 1456 l 1,10,-1
 743 1456 l 1,11,-1
 415 518 l 1,12,-1
 772 518 l 1,13,-1
 772 868 l 1,14,-1
 982 868 l 1,0,-1
EndSplineSet
EndChar

StartChar: five
Encoding: 53 53 24
Width: 1282
GlyphClass: 2
Flags: W
LayerCount: 2
UndoRedoHistory
Layer: 1
Undoes
EndUndoes
Redoes
EndRedoes
EndUndoRedoHistory
Fore
SplineSet
657 -24 m 0,0,1
 531 -24 531 -24 430 14.5 c 128,-1,2
 329 53 329 53 232 133 c 1,3,-1
 322 322 l 1,4,5
 397 254 397 254 472 219 c 128,-1,6
 547 184 547 184 642 184 c 0,7,8
 756 184 756 184 827.5 265 c 128,-1,9
 899 346 899 346 899 459 c 0,10,11
 899 587 899 587 835 659 c 128,-1,12
 771 731 771 731 680 733 c 1,13,14
 619 733 619 733 570.5 714 c 128,-1,15
 522 695 522 695 475 644 c 1,16,-1
 300 644 l 1,17,-1
 300 1456 l 1,18,-1
 1032 1456 l 1,19,-1
 1032 1257 l 1,20,-1
 522 1257 l 1,21,-1
 508 851 l 1,22,23
 535 873 535 873 558.5 887.5 c 128,-1,24
 582 902 582 902 630 915.5 c 128,-1,25
 678 929 678 929 735 929 c 0,26,27
 794 929 794 929 850 914 c 128,-1,28
 906 899 906 899 959.5 863.5 c 128,-1,29
 1013 828 1013 828 1053 776 c 128,-1,30
 1093 724 1093 724 1117 644 c 128,-1,31
 1141 564 1141 564 1141 466 c 0,32,33
 1141 370 1141 370 1114.5 289.5 c 128,-1,34
 1088 209 1088 209 1042.5 151.5 c 128,-1,35
 997 94 997 94 935.5 54 c 128,-1,36
 874 14 874 14 803.5 -5 c 128,-1,37
 733 -24 733 -24 657 -24 c 0,0,1
EndSplineSet
EndChar

StartChar: six
Encoding: 54 54 25
Width: 1282
GlyphClass: 2
Flags: W
LayerCount: 2
UndoRedoHistory
Layer: 1
Undoes
EndUndoes
Redoes
EndRedoes
EndUndoRedoHistory
Fore
SplineSet
678 180 m 0,0,1
 781 180 781 180 857 252.5 c 128,-1,2
 933 325 933 325 933 453 c 0,3,4
 933 592 933 592 861.5 664 c 128,-1,5
 790 736 790 736 685 736 c 0,6,7
 636 736 636 736 590 719.5 c 128,-1,8
 544 703 544 703 505.5 670.5 c 128,-1,9
 467 638 467 638 444 582 c 128,-1,10
 421 526 421 526 421 455 c 0,11,12
 421 326 421 326 497.5 253 c 128,-1,13
 574 180 574 180 678 180 c 0,0,1
685 -24 m 0,14,15
 609 -24 609 -24 537.5 -5 c 128,-1,16
 466 14 466 14 399 57.5 c 128,-1,17
 332 101 332 101 282.5 165 c 128,-1,18
 233 229 233 229 203.5 324.5 c 128,-1,19
 174 420 174 420 174 537 c 0,20,21
 174 669 174 669 194.5 786 c 128,-1,22
 215 903 215 903 266.5 1020.5 c 128,-1,23
 318 1138 318 1138 398.5 1232 c 128,-1,24
 479 1326 479 1326 607 1404.5 c 128,-1,25
 735 1483 735 1483 900 1530 c 1,26,-1
 976 1328 l 1,27,28
 758 1261 758 1261 629.5 1143.5 c 128,-1,29
 501 1026 501 1026 451 832 c 1,30,31
 567 941 567 941 729 939 c 0,32,33
 812 938 812 938 889.5 906 c 128,-1,34
 967 874 967 874 1029 816 c 128,-1,35
 1091 758 1091 758 1128.5 667.5 c 128,-1,36
 1166 577 1166 577 1166 468 c 0,37,38
 1166 373 1166 373 1138 291.5 c 128,-1,39
 1110 210 1110 210 1063 153 c 128,-1,40
 1016 96 1016 96 954 55.5 c 128,-1,41
 892 15 892 15 823.5 -4.5 c 128,-1,42
 755 -24 755 -24 685 -24 c 0,14,15
EndSplineSet
EndChar

StartChar: seven
Encoding: 55 55 26
Width: 1282
GlyphClass: 2
Flags: W
LayerCount: 2
UndoRedoHistory
Layer: 1
Undoes
EndUndoes
Redoes
EndRedoes
EndUndoRedoHistory
Fore
SplineSet
418 0 m 1,0,-1
 887 1257 l 1,1,-1
 230 1257 l 1,2,-1
 230 1456 l 1,3,-1
 1138 1456 l 1,4,-1
 1138 1275 l 1,5,-1
 676 0 l 1,6,-1
 418 0 l 1,0,-1
EndSplineSet
EndChar

StartChar: eight
Encoding: 56 56 27
Width: 1282
GlyphClass: 2
Flags: W
LayerCount: 2
UndoRedoHistory
Layer: 1
Undoes
EndUndoes
Redoes
EndRedoes
EndUndoRedoHistory
Fore
SplineSet
206 1107 m 0,0,1
 206 1286 206 1286 326.5 1383 c 128,-1,2
 447 1480 447 1480 642 1480 c 0,3,4
 849 1480 849 1480 963 1372.5 c 128,-1,5
 1077 1265 1077 1265 1077 1107 c 0,6,7
 1077 927 1077 927 824 761 c 1,8,9
 1108 591 1108 591 1108 353 c 0,10,11
 1108 276 1108 276 1082.5 210.5 c 128,-1,12
 1057 145 1057 145 1003.5 91 c 128,-1,13
 950 37 950 37 857.5 6.5 c 128,-1,14
 765 -24 765 -24 642 -24 c 0,15,16
 410 -24 410 -24 293 80 c 128,-1,17
 176 184 176 184 176 360 c 0,18,19
 176 498 176 498 257 596 c 0,20,21
 316 667 316 667 445 744 c 1,22,23
 428 753 428 753 406 768 c 0,24,25
 370 790 370 790 346 810.5 c 128,-1,26
 322 831 322 831 293.5 863.5 c 128,-1,27
 265 896 265 896 247.5 930 c 128,-1,28
 230 964 230 964 218 1010 c 128,-1,29
 206 1056 206 1056 206 1107 c 0,0,1
633 649 m 1,30,31
 547 594 547 594 493 532 c 0,32,33
 417 444 417 444 417 359 c 0,34,35
 417 275 417 275 476 221.5 c 128,-1,36
 535 168 535 168 644 168 c 0,37,38
 763 168 763 168 821 220 c 128,-1,39
 879 272 879 272 879 356 c 0,40,41
 879 419 879 419 857 464 c 0,42,43
 836 508 836 508 764 564 c 0,44,45
 714 602 714 602 633 649 c 1,30,31
647 855 m 1,46,47
 681 876 681 876 709 894 c 0,48,49
 769 934 769 934 800 972.5 c 128,-1,50
 831 1011 831 1011 842 1044.5 c 128,-1,51
 853 1078 853 1078 853 1122 c 0,52,53
 853 1206 853 1206 794.5 1249 c 128,-1,54
 736 1292 736 1292 646 1292 c 0,55,56
 552 1292 552 1292 494.5 1247 c 128,-1,57
 437 1202 437 1202 437 1122 c 0,58,59
 437 1095 437 1095 441.5 1071.5 c 128,-1,60
 446 1048 446 1048 452 1029 c 128,-1,61
 458 1010 458 1010 473 990.5 c 128,-1,62
 488 971 488 971 499.5 957 c 128,-1,63
 511 943 511 943 535.5 925 c 128,-1,64
 560 907 560 907 577 895.5 c 128,-1,65
 594 884 594 884 628 866 c 0,66,67
 638 860 638 860 647 855 c 1,46,47
EndSplineSet
EndChar

StartChar: nine
Encoding: 57 57 28
Width: 1282
GlyphClass: 2
Flags: W
LayerCount: 2
UndoRedoHistory
Layer: 1
Undoes
EndUndoes
Redoes
EndRedoes
EndUndoRedoHistory
Fore
SplineSet
1047 0 m 1,0,-1
 828 0 l 1,1,-1
 828 637 l 1,2,3
 820 631 820 631 812 625 c 0,4,5
 730 565 730 565 631 552 c 0,6,7
 504 535 504 535 396 583 c 128,-1,8
 288 631 288 631 224 734 c 128,-1,9
 160 837 160 837 160 973 c 0,10,11
 160 1083 160 1083 198 1178 c 128,-1,12
 236 1273 236 1273 300 1337 c 128,-1,13
 364 1401 364 1401 447 1439 c 128,-1,14
 530 1477 530 1477 621 1480 c 0,15,16
 690 1483 690 1483 756 1471 c 128,-1,17
 822 1459 822 1459 877.5 1436 c 128,-1,18
 933 1413 933 1413 964.5 1396.5 c 128,-1,19
 996 1380 996 1380 1034 1357 c 0,20,21
 1038 1354 1038 1354 1041 1352.5 c 128,-1,22
 1044 1351 1044 1351 1047 1349 c 1,23,-1
 1047 1079 l 2,24,25
 1047 1077 1047 1077 1047 1076 c 1,26,-1
 1047 1076 l 1,27,-1
 1047 0 l 1,0,-1
648 748 m 0,28,29
 829 792 829 792 829 1073 c 2,30,-1
 829 1235 l 1,31,32
 826 1236 826 1236 804 1247.5 c 128,-1,33
 782 1259 782 1259 760 1268.5 c 128,-1,34
 738 1278 738 1278 703 1285.5 c 128,-1,35
 668 1293 668 1293 637 1291 c 0,36,37
 526 1282 526 1282 461.5 1193.5 c 128,-1,38
 397 1105 397 1105 397 982 c 0,39,40
 397 853 397 853 465.5 787 c 128,-1,41
 534 721 534 721 648 748 c 0,28,29
EndSplineSet
EndChar

StartChar: colon
Encoding: 58 58 29
Width: 639
GlyphClass: 2
Flags: W
LayerCount: 2
UndoRedoHistory
Layer: 1
Undoes
EndUndoes
Redoes
EndRedoes
EndUndoRedoHistory
Fore
SplineSet
192 779 m 1,0,-1
 192 1026 l 1,1,-1
 447 1026 l 1,2,-1
 447 779 l 1,3,-1
 192 779 l 1,0,-1
192 0 m 1,4,-1
 192 247 l 1,5,-1
 447 247 l 1,6,-1
 447 0 l 1,7,-1
 192 0 l 1,4,-1
EndSplineSet
EndChar

StartChar: semicolon
Encoding: 59 59 30
Width: 627
GlyphClass: 2
Flags: W
LayerCount: 2
UndoRedoHistory
Layer: 1
Undoes
EndUndoes
Redoes
EndRedoes
EndUndoRedoHistory
Fore
SplineSet
136 -297 m 1,0,-1
 226 255 l 1,1,-1
 481 255 l 1,2,-1
 290 -297 l 1,3,-1
 136 -297 l 1,0,-1
226 779 m 1,4,-1
 226 1026 l 1,5,-1
 481 1026 l 1,6,-1
 481 779 l 1,7,-1
 226 779 l 1,4,-1
EndSplineSet
EndChar

StartChar: less
Encoding: 60 60 31
Width: 1124
GlyphClass: 2
Flags: W
LayerCount: 2
UndoRedoHistory
Layer: 1
Undoes
EndUndoes
Redoes
EndRedoes
EndUndoRedoHistory
Fore
SplineSet
1034 84 m 1,0,-1
 85 518 l 1,1,-1
 85 645 l 1,2,-1
 1038 1098 l 1,3,-1
 1038 897 l 1,4,-1
 403 585 l 1,5,-1
 1034 286 l 1,6,-1
 1034 84 l 1,0,-1
EndSplineSet
EndChar

StartChar: equal
Encoding: 61 61 32
Width: 1210
GlyphClass: 2
Flags: W
LayerCount: 2
UndoRedoHistory
Layer: 1
Undoes
EndUndoes
Redoes
EndRedoes
EndUndoRedoHistory
Fore
SplineSet
193 450 m 1,0,-1
 193 620 l 1,1,-1
 1018 620 l 1,2,-1
 1018 450 l 1,3,-1
 193 450 l 1,0,-1
192 853 m 1,4,-1
 192 1026 l 1,5,-1
 1018 1026 l 1,6,-1
 1018 853 l 1,7,-1
 192 853 l 1,4,-1
EndSplineSet
EndChar

StartChar: greater
Encoding: 62 62 33
Width: 1123
GlyphClass: 2
Flags: W
LayerCount: 2
UndoRedoHistory
Layer: 1
Undoes
EndUndoes
Redoes
EndRedoes
EndUndoRedoHistory
Fore
SplineSet
92 1092 m 1,0,-1
 1041 658 l 1,1,-1
 1041 531 l 1,2,-1
 88 78 l 1,3,-1
 88 279 l 1,4,-1
 723 591 l 1,5,-1
 92 890 l 1,6,-1
 92 1092 l 1,0,-1
EndSplineSet
EndChar

StartChar: question
Encoding: 63 63 34
Width: 1007
GlyphClass: 2
Flags: W
LayerCount: 2
UndoRedoHistory
Layer: 1
Undoes
EndUndoes
Redoes
EndRedoes
EndUndoRedoHistory
Fore
SplineSet
315 423 m 1,0,1
 315 517 315 517 329.5 598.5 c 128,-1,2
 344 680 344 680 367.5 737 c 128,-1,3
 391 794 391 794 419 841.5 c 128,-1,4
 447 889 447 889 475 924.5 c 128,-1,5
 503 960 503 960 526.5 990 c 128,-1,6
 550 1020 550 1020 564.5 1050 c 128,-1,7
 579 1080 579 1080 579 1109 c 0,8,9
 579 1182 579 1182 530.5 1217 c 128,-1,10
 482 1252 482 1252 405 1252 c 0,11,12
 298 1252 298 1252 174 1205 c 1,13,-1
 143 1416 l 1,14,15
 296 1480 296 1480 459 1480 c 0,16,17
 541 1480 541 1480 611 1459.5 c 128,-1,18
 681 1439 681 1439 737 1399 c 128,-1,19
 793 1359 793 1359 824.5 1291.5 c 128,-1,20
 856 1224 856 1224 856 1137 c 0,21,22
 856 1065 856 1065 835.5 1004.5 c 128,-1,23
 815 944 815 944 781 900.5 c 128,-1,24
 747 857 747 857 706 818 c 128,-1,25
 665 779 665 779 621 739.5 c 128,-1,26
 577 700 577 700 538.5 657.5 c 128,-1,27
 500 615 500 615 470 554.5 c 128,-1,28
 440 494 440 494 429 423 c 1,29,-1
 315 423 l 1,0,1
375 -12 m 128,-1,31
 303 -12 303 -12 256.5 33 c 128,-1,32
 210 78 210 78 210 149 c 0,33,34
 210 218 210 218 256.5 262 c 128,-1,35
 303 306 303 306 375 306 c 128,-1,36
 447 306 447 306 493.5 261.5 c 128,-1,37
 540 217 540 217 540 146 c 0,38,39
 540 76 540 76 493.5 32 c 128,-1,30
 447 -12 447 -12 375 -12 c 128,-1,31
EndSplineSet
EndChar

StartChar: at
Encoding: 64 64 35
Width: 1811
GlyphClass: 2
Flags: W
LayerCount: 2
UndoRedoHistory
Layer: 1
Undoes
EndUndoes
Redoes
EndRedoes
EndUndoRedoHistory
Fore
SplineSet
826 465 m 0,0,1
 868 465 868 465 911 491 c 128,-1,2
 954 517 954 517 991 565.5 c 128,-1,3
 1028 614 1028 614 1051 693 c 128,-1,4
 1074 772 1074 772 1074 868 c 0,5,6
 1074 945 1074 945 1041 984 c 128,-1,7
 1008 1023 1008 1023 956 1023 c 0,8,9
 861 1023 861 1023 775 918 c 128,-1,10
 689 813 689 813 689 651 c 0,11,12
 689 561 689 561 728 513 c 128,-1,13
 767 465 767 465 826 465 c 0,0,1
953 -64 m 0,14,15
 787 -64 787 -64 636.5 -11.5 c 128,-1,16
 486 41 486 41 368.5 137.5 c 128,-1,17
 251 234 251 234 181 385.5 c 128,-1,18
 111 537 111 537 111 721 c 0,19,20
 111 873 111 873 158.5 1003.5 c 128,-1,21
 206 1134 206 1134 287.5 1226.5 c 128,-1,22
 369 1319 369 1319 478 1385 c 128,-1,23
 587 1451 587 1451 711 1482.5 c 128,-1,24
 835 1514 835 1514 966 1514 c 0,25,26
 1079 1514 1079 1514 1185 1487.5 c 128,-1,27
 1291 1461 1291 1461 1385 1405.5 c 128,-1,28
 1479 1350 1479 1350 1549 1270.5 c 128,-1,29
 1619 1191 1619 1191 1659.5 1078 c 128,-1,30
 1700 965 1700 965 1700 832 c 0,31,32
 1700 593 1700 593 1580.5 445.5 c 128,-1,33
 1461 298 1461 298 1275 298 c 0,34,35
 1187 298 1187 298 1128.5 351 c 128,-1,36
 1070 404 1070 404 1076 506 c 1,37,38
 1026 406 1026 406 948 352.5 c 128,-1,39
 870 299 870 299 793 299 c 0,40,41
 672 299 672 299 596.5 397 c 128,-1,42
 521 495 521 495 521 668 c 0,43,44
 521 769 521 769 555.5 862 c 128,-1,45
 590 955 590 955 646 1021.5 c 128,-1,46
 702 1088 702 1088 773.5 1129.5 c 128,-1,47
 845 1171 845 1171 919 1177 c 0,48,49
 1099 1191 1099 1191 1150 1041 c 1,50,-1
 1189 1146 l 1,51,-1
 1330 1146 l 1,52,53
 1208 554 1208 554 1208 528 c 0,54,55
 1208 484 1208 484 1231.5 457.5 c 128,-1,56
 1255 431 1255 431 1290 431 c 0,57,58
 1330 431 1330 431 1371.5 454 c 128,-1,59
 1413 477 1413 477 1451.5 523 c 128,-1,60
 1490 569 1490 569 1514.5 651 c 128,-1,61
 1539 733 1539 733 1539 837 c 0,62,63
 1539 935 1539 935 1509 1020.5 c 128,-1,64
 1479 1106 1479 1106 1425.5 1169.5 c 128,-1,65
 1372 1233 1372 1233 1300 1278 c 128,-1,66
 1228 1323 1228 1323 1142.5 1346 c 128,-1,67
 1057 1369 1057 1369 964 1369 c 0,68,69
 857 1369 857 1369 758.5 1342.5 c 128,-1,70
 660 1316 660 1316 577 1262 c 128,-1,71
 494 1208 494 1208 432.5 1132 c 128,-1,72
 371 1056 371 1056 336.5 951.5 c 128,-1,73
 302 847 302 847 302 726 c 0,74,75
 302 574 302 574 354 452 c 128,-1,76
 406 330 406 330 498 251.5 c 128,-1,77
 590 173 590 173 713 131 c 128,-1,78
 836 89 836 89 981 89 c 0,79,80
 1086 89 1086 89 1198 118 c 128,-1,81
 1310 147 1310 147 1401 200 c 1,82,-1
 1482 71 l 1,83,84
 1369 3 1369 3 1230 -30.5 c 128,-1,85
 1091 -64 1091 -64 953 -64 c 0,14,15
EndSplineSet
EndChar

StartChar: A
Encoding: 65 65 36
Width: 1407
GlyphClass: 2
Flags: W
AnchorPoint: "Anchor-2" 1260 0 basechar 0
AnchorPoint: "Anchor-1" 736 0 basechar 0
AnchorPoint: "Anchor-0" 713 1456 basechar 0
LayerCount: 2
UndoRedoHistory
Layer: 1
Undoes
EndUndoes
Redoes
EndRedoes
EndUndoRedoHistory
Fore
SplineSet
504 533 m 1,0,-1
 898 533 l 1,1,-1
 827 758 l 1,2,-1
 702 1129 l 1,3,-1
 577 758 l 1,4,-1
 504 533 l 1,0,-1
50 0 m 1,5,-1
 588 1456 l 1,6,-1
 828 1456 l 1,7,-1
 1357 0 l 1,8,-1
 1072 0 l 1,9,-1
 963 335 l 1,10,-1
 437 335 l 1,11,-1
 324 0 l 1,12,-1
 50 0 l 1,5,-1
EndSplineSet
EndChar

StartChar: B
Encoding: 66 66 37
Width: 1378
GlyphClass: 2
Flags: W
AnchorPoint: "Anchor-1" 676 0 basechar 0
AnchorPoint: "Anchor-0" 700 1536 basechar 0
LayerCount: 2
UndoRedoHistory
Layer: 1
Undoes
EndUndoes
Redoes
EndRedoes
EndUndoRedoHistory
Fore
SplineSet
442 848 m 1,0,-1
 662 848 l 2,1,2
 823 848 823 848 895 900.5 c 128,-1,3
 967 953 967 953 967 1070 c 0,4,5
 967 1169 967 1169 892.5 1212.5 c 128,-1,6
 818 1256 818 1256 649 1256 c 2,7,-1
 442 1256 l 1,8,-1
 442 848 l 1,0,-1
442 201 m 1,9,-1
 706 201 l 2,10,11
 873 201 873 201 948.5 257 c 128,-1,12
 1024 313 1024 313 1024 437 c 0,13,14
 1024 555 1024 555 944.5 609.5 c 128,-1,15
 865 664 865 664 691 664 c 2,16,-1
 442 664 l 1,17,-1
 442 201 l 1,9,-1
192 0 m 1,18,-1
 192 1456 l 1,19,-1
 639 1456 l 2,20,21
 929 1456 929 1456 1069 1373 c 128,-1,22
 1209 1290 1209 1290 1209 1108 c 0,23,24
 1209 973 1209 973 1152.5 895.5 c 128,-1,25
 1096 818 1096 818 972 782 c 1,26,27
 1128 756 1128 756 1199 670 c 128,-1,28
 1270 584 1270 584 1270 424 c 0,29,30
 1270 206 1270 206 1130.5 103 c 128,-1,31
 991 0 991 0 703 0 c 2,32,-1
 192 0 l 1,18,-1
EndSplineSet
EndChar

StartChar: C
Encoding: 67 67 38
Width: 1370
GlyphClass: 2
Flags: W
AnchorPoint: "Anchor-1" 826 0 basechar 0
AnchorPoint: "Anchor-0" 790 1536 basechar 0
LayerCount: 2
UndoRedoHistory
Layer: 1
Undoes
EndUndoes
Redoes
EndRedoes
EndUndoRedoHistory
Fore
SplineSet
823 -24 m 0,0,1
 668 -24 668 -24 536.5 32 c 128,-1,2
 405 88 405 88 312.5 187 c 128,-1,3
 220 286 220 286 168 427 c 128,-1,4
 116 568 116 568 116 733 c 0,5,6
 116 900 116 900 170 1040 c 128,-1,7
 224 1180 224 1180 319 1276.5 c 128,-1,8
 414 1373 414 1373 547 1426.5 c 128,-1,9
 680 1480 680 1480 836 1480 c 0,10,11
 948 1480 948 1480 1065.5 1439 c 128,-1,12
 1183 1398 1183 1398 1275 1327 c 1,13,-1
 1188 1136 l 1,14,15
 1123 1189 1123 1189 1026 1230.5 c 128,-1,16
 929 1272 929 1272 837 1272 c 0,17,18
 624 1272 624 1272 503 1122 c 128,-1,19
 382 972 382 972 382 732 c 0,20,21
 382 489 382 489 505.5 336.5 c 128,-1,22
 629 184 629 184 851 184 c 0,23,24
 943 184 943 184 1041 218 c 128,-1,25
 1139 252 1139 252 1213 311 c 1,26,-1
 1291 125 l 1,27,28
 1211 59 1211 59 1077.5 17.5 c 128,-1,29
 944 -24 944 -24 823 -24 c 0,0,1
EndSplineSet
EndChar

StartChar: D
Encoding: 68 68 39
Width: 1552
GlyphClass: 2
Flags: W
AnchorPoint: "Anchor-1" 676 0 basechar 0
AnchorPoint: "Anchor-0" 700 1536 basechar 0
LayerCount: 2
UndoRedoHistory
Layer: 1
Undoes
EndUndoes
Redoes
EndRedoes
EndUndoRedoHistory
Fore
SplineSet
192 0 m 1,0,-1
 192 1456 l 1,1,-1
 531 1456 l 2,2,3
 984 1456 984 1456 1210 1283 c 128,-1,4
 1436 1110 1436 1110 1436 742 c 0,5,6
 1436 358 1436 358 1226.5 179 c 128,-1,7
 1017 0 1017 0 588 0 c 2,8,-1
 192 0 l 1,0,-1
442 200 m 1,9,-1
 604 200 l 2,10,11
 812 200 812 200 937 259.5 c 128,-1,12
 1062 319 1062 319 1116 435 c 128,-1,13
 1170 551 1170 551 1170 739 c 0,14,15
 1170 919 1170 919 1111.5 1031 c 128,-1,16
 1053 1143 1053 1143 919.5 1199.5 c 128,-1,17
 786 1256 786 1256 564 1256 c 2,18,-1
 442 1256 l 1,19,-1
 442 200 l 1,9,-1
EndSplineSet
EndChar

StartChar: E
Encoding: 69 69 40
Width: 1206
GlyphClass: 2
Flags: W
AnchorPoint: "Anchor-2" 850 0 basechar 0
AnchorPoint: "Anchor-1" 826 0 basechar 0
AnchorPoint: "Anchor-0" 656 1536 basechar 0
LayerCount: 2
UndoRedoHistory
Layer: 1
Undoes
EndUndoes
Redoes
EndRedoes
EndUndoRedoHistory
Fore
SplineSet
192 0 m 1,0,-1
 192 1456 l 1,1,-1
 1050 1456 l 1,2,-1
 1050 1256 l 1,3,-1
 442 1256 l 1,4,-1
 442 843 l 1,5,-1
 1008 843 l 1,6,-1
 1008 650 l 1,7,-1
 442 650 l 1,8,-1
 442 200 l 1,9,-1
 1070 200 l 1,10,-1
 1070 0 l 1,11,-1
 192 0 l 1,0,-1
EndSplineSet
EndChar

StartChar: F
Encoding: 70 70 41
Width: 1157
GlyphClass: 2
Flags: W
AnchorPoint: "Anchor-1" 676 0 basechar 0
AnchorPoint: "Anchor-0" 700 1536 basechar 0
LayerCount: 2
UndoRedoHistory
Layer: 1
Undoes
EndUndoes
Redoes
EndRedoes
EndUndoRedoHistory
Fore
SplineSet
192 0 m 1,0,-1
 192 1456 l 1,1,-1
 1033 1456 l 1,2,-1
 1033 1256 l 1,3,-1
 442 1256 l 1,4,-1
 442 865 l 1,5,-1
 1000 865 l 1,6,-1
 1000 672 l 1,7,-1
 442 672 l 1,8,-1
 442 0 l 1,9,-1
 192 0 l 1,0,-1
EndSplineSet
EndChar

StartChar: G
Encoding: 71 71 42
Width: 1496
GlyphClass: 2
Flags: W
AnchorPoint: "Anchor-1" 826 0 basechar 0
AnchorPoint: "Anchor-0" 790 1536 basechar 0
LayerCount: 2
UndoRedoHistory
Layer: 1
Undoes
EndUndoes
Redoes
EndRedoes
EndUndoRedoHistory
Fore
SplineSet
836 -24 m 0,0,1
 624 -24 624 -24 460.5 63.5 c 128,-1,2
 297 151 297 151 206.5 312.5 c 128,-1,3
 116 474 116 474 116 687 c 0,4,5
 116 862 116 862 171 1010 c 128,-1,6
 226 1158 226 1158 323.5 1261 c 128,-1,7
 421 1364 421 1364 558.5 1422 c 128,-1,8
 696 1480 696 1480 858 1480 c 0,9,10
 970 1480 970 1480 1069.5 1456.5 c 128,-1,11
 1169 1433 1169 1433 1219 1409 c 128,-1,12
 1269 1385 1269 1385 1324 1351 c 1,13,-1
 1237 1162 l 1,14,15
 1036 1272 1036 1272 867 1272 c 0,16,17
 643 1272 643 1272 512.5 1113 c 128,-1,18
 382 954 382 954 382 701 c 0,19,20
 382 467 382 467 508.5 325.5 c 128,-1,21
 635 184 635 184 848 184 c 0,22,23
 1003 184 1003 184 1096 227 c 1,24,-1
 1096 595 l 1,25,-1
 743 595 l 1,26,-1
 743 773 l 1,27,-1
 1340 773 l 1,28,-1
 1340 78 l 1,29,30
 1242 32 1242 32 1103 4 c 128,-1,31
 964 -24 964 -24 836 -24 c 0,0,1
EndSplineSet
EndChar

StartChar: H
Encoding: 72 72 43
Width: 1553
GlyphClass: 2
Flags: W
AnchorPoint: "Anchor-1" 788 0 basechar 0
AnchorPoint: "Anchor-0" 793 1536 basechar 0
LayerCount: 2
UndoRedoHistory
Layer: 1
Undoes
EndUndoes
Redoes
EndRedoes
EndUndoRedoHistory
Fore
SplineSet
192 0 m 1,0,-1
 192 1456 l 1,1,-1
 442 1456 l 1,2,-1
 442 850 l 1,3,-1
 1111 850 l 1,4,-1
 1111 1456 l 1,5,-1
 1361 1456 l 1,6,-1
 1361 0 l 1,7,-1
 1111 0 l 1,8,-1
 1111 635 l 1,9,-1
 442 635 l 1,10,-1
 442 0 l 1,11,-1
 192 0 l 1,0,-1
EndSplineSet
EndChar

StartChar: I
Encoding: 73 73 44
Width: 802
GlyphClass: 2
Flags: W
AnchorPoint: "Anchor-2" 437 0 basechar 0
AnchorPoint: "Anchor-1" 401 1 basechar 0
AnchorPoint: "Anchor-0" 401 1536 basechar 0
LayerCount: 2
UndoRedoHistory
Layer: 1
Undoes
EndUndoes
Redoes
EndRedoes
EndUndoRedoHistory
Fore
SplineSet
700 0 m 1,0,-1
 102 0 l 1,1,-1
 102 182 l 1,2,-1
 276 182 l 1,3,-1
 276 1274 l 1,4,-1
 102 1274 l 1,5,-1
 102 1456 l 1,6,-1
 700 1456 l 1,7,-1
 700 1274 l 1,8,-1
 526 1274 l 1,9,-1
 526 182 l 1,10,-1
 700 182 l 1,11,-1
 700 0 l 1,0,-1
EndSplineSet
EndChar

StartChar: J
Encoding: 74 74 45
Width: 1127
GlyphClass: 2
Flags: W
AnchorPoint: "Anchor-0" 550 1536 basechar 0
LayerCount: 2
UndoRedoHistory
Layer: 1
Undoes
EndUndoes
Redoes
EndRedoes
EndUndoRedoHistory
Fore
SplineSet
24 145 m 1,0,-1
 142 310 l 1,1,2
 256 179 256 179 402 184 c 0,3,4
 492 187 492 187 548.5 250 c 128,-1,5
 605 313 605 313 605 428 c 2,6,-1
 605 1256 l 1,7,-1
 241 1256 l 1,8,-1
 241 1456 l 1,9,-1
 1111 1456 l 1,10,-1
 1111 1256 l 1,11,-1
 848 1256 l 1,12,-1
 848 447 l 2,13,14
 848 330 848 330 812.5 238 c 128,-1,15
 777 146 777 146 716.5 90 c 128,-1,16
 656 34 656 34 580.5 5 c 128,-1,17
 505 -24 505 -24 419 -24 c 0,18,19
 173 -24 173 -24 24 145 c 1,0,-1
EndSplineSet
EndChar

StartChar: K
Encoding: 75 75 46
Width: 1285
GlyphClass: 2
Flags: W
AnchorPoint: "Anchor-1" 726 0 basechar 0
AnchorPoint: "Anchor-0" 667 1536 basechar 0
LayerCount: 2
UndoRedoHistory
Layer: 1
Undoes
EndUndoes
Redoes
EndRedoes
EndUndoRedoHistory
Fore
SplineSet
192 0 m 1,0,-1
 192 1456 l 1,1,-1
 442 1456 l 1,2,-1
 442 822 l 1,3,-1
 951 1456 l 1,4,-1
 1255 1456 l 1,5,-1
 679 773 l 1,6,-1
 1289 0 l 1,7,-1
 970 0 l 1,8,-1
 442 681 l 1,9,-1
 442 0 l 1,10,-1
 192 0 l 1,0,-1
EndSplineSet
EndChar

StartChar: L
Encoding: 76 76 47
Width: 1079
GlyphClass: 2
Flags: W
AnchorPoint: "Anchor-1" 696 0 basechar 0
AnchorPoint: "Anchor-0" 580 1536 basechar 0
LayerCount: 2
UndoRedoHistory
Layer: 1
Undoes
EndUndoes
Redoes
EndRedoes
EndUndoRedoHistory
Fore
SplineSet
192 0 m 1,0,-1
 192 1456 l 1,1,-1
 442 1456 l 1,2,-1
 442 200 l 1,3,-1
 1048 200 l 1,4,-1
 1048 0 l 1,5,-1
 192 0 l 1,0,-1
EndSplineSet
EndChar

StartChar: M
Encoding: 77 77 48
Width: 1889
GlyphClass: 2
Flags: W
AnchorPoint: "Anchor-1" 976 0 basechar 0
AnchorPoint: "Anchor-0" 970 1536 basechar 0
LayerCount: 2
UndoRedoHistory
Layer: 1
Undoes
EndUndoes
Redoes
EndRedoes
EndUndoRedoHistory
Fore
SplineSet
192 0 m 1,0,-1
 192 1456 l 1,1,-1
 485 1456 l 1,2,-1
 863 741 l 1,3,-1
 945 569 l 1,4,-1
 1025 743 l 1,5,-1
 1405 1456 l 1,6,-1
 1697 1456 l 1,7,-1
 1697 0 l 1,8,-1
 1447 0 l 1,9,-1
 1447 1085 l 1,10,-1
 1342 871 l 1,11,-1
 999 229 l 1,12,-1
 886 229 l 1,13,-1
 546 883 l 1,14,-1
 442 1102 l 1,15,-1
 442 0 l 1,16,-1
 192 0 l 1,0,-1
EndSplineSet
EndChar

StartChar: N
Encoding: 78 78 49
Width: 1617
GlyphClass: 2
Flags: W
AnchorPoint: "Anchor-1" 804 0 basechar 0
AnchorPoint: "Anchor-0" 809 1536 basechar 0
LayerCount: 2
UndoRedoHistory
Layer: 1
Undoes
EndUndoes
Redoes
EndRedoes
EndUndoRedoHistory
Fore
SplineSet
192 0 m 1,0,-1
 192 1456 l 1,1,-1
 453 1456 l 1,2,-1
 1088 520 l 1,3,-1
 1205 340 l 1,4,-1
 1205 1456 l 1,5,-1
 1425 1456 l 1,6,-1
 1425 0 l 1,7,-1
 1160 0 l 1,8,-1
 521 951 l 1,9,-1
 412 1113 l 1,10,-1
 412 0 l 1,11,-1
 192 0 l 1,0,-1
EndSplineSet
EndChar

StartChar: O
Encoding: 79 79 50
Width: 1592
GlyphClass: 2
Flags: W
AnchorPoint: "Anchor-1" 826 0 basechar 0
AnchorPoint: "Anchor-0" 790 1536 basechar 0
LayerCount: 2
UndoRedoHistory
Layer: 1
Undoes
EndUndoes
Redoes
EndRedoes
EndUndoRedoHistory
Fore
SplineSet
793 -24 m 0,0,1
 596 -24 596 -24 442.5 69 c 128,-1,2
 289 162 289 162 202.5 333 c 128,-1,3
 116 504 116 504 116 726 c 0,4,5
 116 946 116 946 202 1118 c 128,-1,6
 288 1290 288 1290 442.5 1385 c 128,-1,7
 597 1480 597 1480 793 1480 c 0,8,9
 991 1480 991 1480 1146.5 1385 c 128,-1,10
 1302 1290 1302 1290 1389 1118 c 128,-1,11
 1476 946 1476 946 1476 726 c 0,12,13
 1476 504 1476 504 1389 333 c 128,-1,14
 1302 162 1302 162 1146.5 69 c 128,-1,15
 991 -24 991 -24 793 -24 c 0,0,1
793 184 m 0,16,17
 980 184 980 184 1095.5 333 c 128,-1,18
 1211 482 1211 482 1210 724 c 1,19,20
 1210 971 1210 971 1095 1121.5 c 128,-1,21
 980 1272 980 1272 793 1272 c 0,22,23
 607 1272 607 1272 494.5 1122 c 128,-1,24
 382 972 382 972 382 724 c 0,25,26
 382 481 382 481 494.5 332.5 c 128,-1,27
 607 184 607 184 793 184 c 0,16,17
EndSplineSet
EndChar

StartChar: P
Encoding: 80 80 51
Width: 1282
GlyphClass: 2
Flags: W
AnchorPoint: "Anchor-1" 676 0 basechar 0
AnchorPoint: "Anchor-0" 700 1536 basechar 0
LayerCount: 2
UndoRedoHistory
Layer: 1
Undoes
EndUndoes
Redoes
EndRedoes
EndUndoRedoHistory
Fore
SplineSet
442 762 m 1,0,-1
 652 762 l 2,1,2
 811 762 811 762 884 820 c 128,-1,3
 957 878 957 878 957 1015 c 0,4,5
 957 1145 957 1145 879.5 1200.5 c 128,-1,6
 802 1256 802 1256 634 1256 c 2,7,-1
 442 1256 l 1,8,-1
 442 762 l 1,0,-1
192 0 m 1,9,-1
 192 1456 l 1,10,-1
 612 1456 l 2,11,12
 925 1456 925 1456 1069 1353 c 128,-1,13
 1213 1250 1213 1250 1213 1017 c 0,14,15
 1213 774 1213 774 1074 666.5 c 128,-1,16
 935 559 935 559 635 559 c 2,17,-1
 442 559 l 1,18,-1
 442 0 l 1,19,-1
 192 0 l 1,9,-1
EndSplineSet
EndChar

StartChar: Q
Encoding: 81 81 52
Width: 1592
GlyphClass: 2
Flags: W
LayerCount: 2
UndoRedoHistory
Layer: 1
Undoes
EndUndoes
Redoes
EndRedoes
EndUndoRedoHistory
Fore
SplineSet
793 -24 m 0,0,1
 596 -24 596 -24 442.5 69 c 128,-1,2
 289 162 289 162 202.5 333 c 128,-1,3
 116 504 116 504 116 726 c 0,4,5
 116 946 116 946 202 1118 c 128,-1,6
 288 1290 288 1290 442.5 1385 c 128,-1,7
 597 1480 597 1480 793 1480 c 0,8,9
 991 1480 991 1480 1146.5 1385 c 128,-1,10
 1302 1290 1302 1290 1389 1118 c 128,-1,11
 1476 946 1476 946 1476 726 c 0,12,13
 1476 504 1476 504 1389 333 c 0,14,15
 1319 196 1319 196 1205 109 c 1,16,-1
 1355 -168 l 1,17,-1
 1187 -257 l 1,18,-1
 1033 16 l 1,19,20
 922 -24 922 -24 793 -24 c 0,0,1
1088 324 m 1,21,22
 1092 329 1092 329 1096 333 c 0,23,24
 1212 482 1212 482 1210 724 c 1,25,26
 1210 971 1210 971 1095 1121.5 c 128,-1,27
 980 1272 980 1272 793 1272 c 0,28,29
 607 1272 607 1272 494.5 1122 c 128,-1,30
 382 972 382 972 382 724 c 0,31,32
 382 481 382 481 494.5 332.5 c 128,-1,33
 607 184 607 184 793 184 c 0,34,35
 865 184 865 184 926 206 c 1,36,-1
 827 382 l 1,37,-1
 1005 477 l 1,38,-1
 1088 324 l 1,21,22
EndSplineSet
EndChar

StartChar: R
Encoding: 82 82 53
Width: 1345
GlyphClass: 2
Flags: W
AnchorPoint: "Anchor-1" 676 0 basechar 0
AnchorPoint: "Anchor-0" 700 1536 basechar 0
LayerCount: 2
UndoRedoHistory
Layer: 1
Undoes
EndUndoes
Redoes
EndRedoes
EndUndoRedoHistory
Fore
SplineSet
442 829 m 1,0,-1
 658 829 l 2,1,2
 811 829 811 829 879.5 883.5 c 128,-1,3
 948 938 948 938 948 1062 c 0,4,5
 948 1177 948 1177 885 1216.5 c 128,-1,6
 822 1256 822 1256 667 1256 c 2,7,-1
 442 1256 l 1,8,-1
 442 829 l 1,0,-1
192 0 m 1,9,-1
 192 1456 l 1,10,-1
 650 1456 l 2,11,12
 933 1456 933 1456 1066.5 1365.5 c 128,-1,13
 1200 1275 1200 1275 1200 1077 c 0,14,15
 1200 787 1200 787 977 690 c 1,16,-1
 1275 0 l 1,17,-1
 1008 0 l 1,18,-1
 756 646 l 1,19,-1
 442 646 l 1,20,-1
 442 0 l 1,21,-1
 192 0 l 1,9,-1
EndSplineSet
EndChar

StartChar: S
Encoding: 83 83 54
Width: 1259
GlyphClass: 2
Flags: W
AnchorPoint: "Anchor-1" 587 -1 basechar 0
AnchorPoint: "Anchor-0" 604 1536 basechar 0
LayerCount: 2
UndoRedoHistory
Layer: 1
Undoes
EndUndoes
Redoes
EndRedoes
EndUndoRedoHistory
Fore
SplineSet
674 -22 m 0,0,1
 548 -22 548 -22 408.5 17.5 c 128,-1,2
 269 57 269 57 165 123 c 1,3,-1
 224 321 l 1,4,5
 466 186 466 186 665 186 c 0,6,7
 780 186 780 186 841.5 244 c 128,-1,8
 903 302 903 302 903 387 c 0,9,10
 903 422 903 422 898 445.5 c 128,-1,11
 893 469 893 469 873.5 498.5 c 128,-1,12
 854 528 854 528 817.5 552 c 128,-1,13
 781 576 781 576 715.5 605.5 c 128,-1,14
 650 635 650 635 555 666 c 1,15,16
 437 707 437 707 358 752 c 128,-1,17
 279 797 279 797 235.5 848 c 128,-1,18
 192 899 192 899 174.5 952 c 128,-1,19
 157 1005 157 1005 157 1074 c 0,20,21
 157 1158 157 1158 184.5 1229.5 c 128,-1,22
 212 1301 212 1301 269 1359 c 128,-1,23
 326 1417 326 1417 423 1449.5 c 128,-1,24
 520 1482 520 1482 648 1482 c 0,25,26
 888 1482 888 1482 1087 1360 c 1,27,-1
 1017 1166 l 1,28,29
 814 1274 814 1274 664 1274 c 0,30,31
 528 1274 528 1274 471.5 1230 c 128,-1,32
 415 1186 415 1186 415 1107 c 0,33,34
 415 1065 415 1065 423 1039 c 128,-1,35
 431 1013 431 1013 459 984 c 128,-1,36
 487 955 487 955 541.5 928 c 128,-1,37
 596 901 596 901 688 868 c 1,38,39
 951 778 951 778 1047 678.5 c 128,-1,40
 1143 579 1143 579 1139 393 c 0,41,42
 1137 306 1137 306 1108 232 c 128,-1,43
 1079 158 1079 158 1023.5 100.5 c 128,-1,44
 968 43 968 43 878.5 10.5 c 128,-1,45
 789 -22 789 -22 674 -22 c 0,0,1
EndSplineSet
EndChar

StartChar: T
Encoding: 84 84 55
Width: 1189
GlyphClass: 2
Flags: W
AnchorPoint: "Anchor-1" 692 0 basechar 0
AnchorPoint: "Anchor-0" 576 1536 basechar 0
LayerCount: 2
UndoRedoHistory
Layer: 1
Undoes
EndUndoes
Redoes
EndRedoes
EndUndoRedoHistory
Fore
SplineSet
471 0 m 1,0,-1
 471 1256 l 1,1,-1
 61 1256 l 1,2,-1
 61 1456 l 1,3,-1
 1129 1456 l 1,4,-1
 1129 1256 l 1,5,-1
 719 1256 l 1,6,-1
 719 0 l 1,7,-1
 471 0 l 1,0,-1
EndSplineSet
EndChar

StartChar: U
Encoding: 85 85 56
Width: 1488
GlyphClass: 2
Flags: W
AnchorPoint: "Anchor-2" 850 0 basechar 0
AnchorPoint: "Anchor-1" 826 0 basechar 0
AnchorPoint: "Anchor-0" 773 1536 basechar 0
LayerCount: 2
UndoRedoHistory
Layer: 1
Undoes
EndUndoes
Redoes
EndRedoes
EndUndoRedoHistory
Fore
SplineSet
753 -24 m 0,0,1
 492 -24 492 -24 325.5 135 c 128,-1,2
 159 294 159 294 159 547 c 2,3,-1
 159 1456 l 1,4,-1
 409 1456 l 1,5,-1
 409 536 l 2,6,7
 409 376 409 376 503 280 c 128,-1,8
 597 184 597 184 752 184 c 0,9,10
 899 184 899 184 989.5 278 c 128,-1,11
 1080 372 1080 372 1080 529 c 2,12,-1
 1079 1456 l 1,13,-1
 1329 1456 l 1,14,-1
 1329 558 l 2,15,16
 1329 300 1329 300 1168.5 138 c 128,-1,17
 1008 -24 1008 -24 753 -24 c 0,0,1
EndSplineSet
EndChar

StartChar: V
Encoding: 86 86 57
Width: 1315
GlyphClass: 2
Flags: W
LayerCount: 2
UndoRedoHistory
Layer: 1
Undoes
EndUndoes
Redoes
EndRedoes
EndUndoRedoHistory
Fore
SplineSet
535 0 m 1,0,-1
 7 1456 l 1,1,-1
 279 1456 l 1,2,-1
 560 630 l 1,3,-1
 675 323 l 1,4,-1
 782 629 l 1,5,-1
 1028 1456 l 1,6,-1
 1308 1456 l 1,7,-1
 813 0 l 1,8,-1
 535 0 l 1,0,-1
EndSplineSet
EndChar

StartChar: W
Encoding: 87 87 58
Width: 2153
GlyphClass: 2
Flags: W
AnchorPoint: "Anchor-1" 1017 0 basechar 0
AnchorPoint: "Anchor-0" 1023 1536 basechar 0
LayerCount: 2
UndoRedoHistory
Layer: 1
Undoes
EndUndoes
Redoes
EndRedoes
EndUndoRedoHistory
Fore
SplineSet
502 0 m 1,0,-1
 50 1456 l 1,1,-1
 305 1456 l 1,2,-1
 554 614 l 1,3,-1
 621 385 l 1,4,-1
 707 614 l 1,5,-1
 1002 1456 l 1,6,-1
 1164 1456 l 1,7,-1
 1458 610 l 1,8,-1
 1539 386 l 1,9,-1
 1611 614 l 1,10,-1
 1854 1456 l 1,11,-1
 2103 1456 l 1,12,-1
 1652 0 l 1,13,-1
 1431 0 l 1,14,-1
 1078 1051 l 1,15,-1
 723 0 l 1,16,-1
 502 0 l 1,0,-1
EndSplineSet
EndChar

StartChar: X
Encoding: 88 88 59
Width: 1349
GlyphClass: 2
Flags: W
LayerCount: 2
UndoRedoHistory
Layer: 1
Undoes
EndUndoes
Redoes
EndRedoes
EndUndoRedoHistory
Fore
SplineSet
1049 0 m 1,0,-1
 674 564 l 1,1,-1
 286 0 l 1,2,-1
 12 0 l 1,3,-1
 551 751 l 1,4,-1
 61 1456 l 1,5,-1
 339 1456 l 1,6,-1
 698 908 l 1,7,-1
 1064 1456 l 1,8,-1
 1337 1456 l 1,9,-1
 821 720 l 1,10,-1
 1320 0 l 1,11,-1
 1049 0 l 1,0,-1
EndSplineSet
EndChar

StartChar: Y
Encoding: 89 89 60
Width: 1219
GlyphClass: 2
Flags: W
AnchorPoint: "Anchor-1" 625 0 basechar 0
AnchorPoint: "Anchor-0" 620 1536 basechar 0
LayerCount: 2
UndoRedoHistory
Layer: 1
Undoes
EndUndoes
Redoes
EndRedoes
EndUndoRedoHistory
Fore
SplineSet
492 0 m 1,0,-1
 492 588 l 1,1,-1
 -17 1456 l 1,2,-1
 254 1456 l 1,3,-1
 615 814 l 1,4,-1
 978 1456 l 1,5,-1
 1236 1456 l 1,6,-1
 742 590 l 1,7,-1
 742 0 l 1,8,-1
 492 0 l 1,0,-1
EndSplineSet
EndChar

StartChar: Z
Encoding: 90 90 61
Width: 1393
GlyphClass: 2
Flags: W
AnchorPoint: "Anchor-1" 746 0 basechar 0
AnchorPoint: "Anchor-0" 770 1536 basechar 0
LayerCount: 2
UndoRedoHistory
Layer: 1
Undoes
EndUndoes
Redoes
EndRedoes
EndUndoRedoHistory
Fore
SplineSet
180 0 m 1,0,-1
 180 198 l 1,1,-1
 920 1256 l 1,2,-1
 211 1256 l 1,3,-1
 211 1456 l 1,4,-1
 1212 1456 l 1,5,-1
 1212 1276 l 1,6,-1
 475 200 l 1,7,-1
 1204 200 l 1,8,-1
 1204 0 l 1,9,-1
 180 0 l 1,0,-1
EndSplineSet
EndChar

StartChar: bracketleft
Encoding: 91 91 62
Width: 812
GlyphClass: 2
Flags: W
LayerCount: 2
UndoRedoHistory
Layer: 1
Undoes
EndUndoes
Redoes
EndRedoes
EndUndoRedoHistory
Fore
SplineSet
187 -204 m 1,0,-1
 187 1480 l 1,1,-1
 638 1480 l 1,2,-1
 638 1350 l 1,3,-1
 446 1350 l 1,4,-1
 446 -75 l 1,5,-1
 638 -75 l 1,6,-1
 638 -204 l 1,7,-1
 187 -204 l 1,0,-1
EndSplineSet
EndChar

StartChar: backslash
Encoding: 92 92 63
Width: 967
GlyphClass: 2
Flags: W
LayerCount: 2
UndoRedoHistory
Layer: 1
Undoes
EndUndoes
Redoes
EndRedoes
EndUndoRedoHistory
Fore
SplineSet
656 0 m 1,0,-1
 77 1456 l 1,1,-1
 314 1456 l 1,2,-1
 891 0 l 1,3,-1
 656 0 l 1,0,-1
EndSplineSet
EndChar

StartChar: bracketright
Encoding: 93 93 64
Width: 811
GlyphClass: 2
Flags: W
LayerCount: 2
UndoRedoHistory
Layer: 1
Undoes
EndUndoes
Redoes
EndRedoes
EndUndoRedoHistory
Fore
SplineSet
174 -222 m 1,0,-1
 174 -93 l 1,1,-1
 367 -93 l 1,2,-1
 367 1350 l 1,3,-1
 175 1350 l 1,4,-1
 175 1480 l 1,5,-1
 625 1480 l 1,6,-1
 625 -222 l 1,7,-1
 174 -222 l 1,0,-1
EndSplineSet
EndChar

StartChar: asciicircum
Encoding: 94 94 65
Width: 1335
GlyphClass: 2
Flags: W
LayerCount: 2
UndoRedoHistory
Layer: 1
Undoes
EndUndoes
Redoes
EndRedoes
EndUndoRedoHistory
Fore
SplineSet
162 570 m 1,0,-1
 618 1448 l 1,1,-1
 710 1448 l 1,2,-1
 1172 570 l 1,3,-1
 968 570 l 1,4,-1
 662 1176 l 1,5,-1
 368 570 l 1,6,-1
 162 570 l 1,0,-1
EndSplineSet
EndChar

StartChar: underscore
Encoding: 95 95 66
Width: 1333
GlyphClass: 2
Flags: W
LayerCount: 2
UndoRedoHistory
Layer: 1
Undoes
EndUndoes
Redoes
EndRedoes
EndUndoRedoHistory
Fore
SplineSet
192 -152 m 1,0,-1
 192 -24 l 1,1,-1
 1141 -24 l 1,2,-1
 1141 -152 l 1,3,-1
 192 -152 l 1,0,-1
EndSplineSet
EndChar

StartChar: grave
Encoding: 96 96 67
Width: 681
GlyphClass: 2
Flags: W
LayerCount: 2
UndoRedoHistory
Layer: 1
Undoes
EndUndoes
Redoes
EndRedoes
EndUndoRedoHistory
Fore
SplineSet
411 1162 m 1,0,-1
 81 1480 l 1,1,-1
 354 1480 l 1,2,-1
 600 1162 l 1,3,-1
 411 1162 l 1,0,-1
EndSplineSet
EndChar

StartChar: a
Encoding: 97 97 68
Width: 1219
GlyphClass: 2
Flags: W
AnchorPoint: "Anchor-2" 994 0 basechar 0
AnchorPoint: "Anchor-1" 616 0 basechar 0
AnchorPoint: "Anchor-0" 637 1152 basechar 0
LayerCount: 2
UndoRedoHistory
Layer: 1
Undoes
EndUndoes
Redoes
EndRedoes
EndUndoRedoHistory
Fore
SplineSet
545 164 m 0,0,1
 648 164 648 164 710 241 c 128,-1,2
 772 318 772 318 772 429 c 2,3,-1
 772 849 l 1,4,5
 766 851 766 851 754.5 854 c 128,-1,6
 743 857 743 857 708.5 860.5 c 128,-1,7
 674 864 674 864 641 861 c 0,8,9
 518 851 518 851 438 730 c 128,-1,10
 358 609 358 609 358 420 c 0,11,12
 358 307 358 307 411 235.5 c 128,-1,13
 464 164 464 164 545 164 c 0,0,1
528 -22 m 0,14,15
 350 -22 350 -22 232 107 c 128,-1,16
 114 236 114 236 114 431 c 0,17,18
 114 701 114 701 271 870.5 c 128,-1,19
 428 1040 428 1040 678 1048 c 0,20,21
 826 1053 826 1053 1014 976 c 1,22,-1
 1014 363 l 2,23,24
 1014 335 1014 335 1014.5 317.5 c 128,-1,25
 1015 300 1015 300 1018.5 278 c 128,-1,26
 1022 256 1022 256 1028.5 243 c 128,-1,27
 1035 230 1035 230 1046.5 215.5 c 128,-1,28
 1058 201 1058 201 1074.5 193.5 c 128,-1,29
 1091 186 1091 186 1116 181 c 128,-1,30
 1141 176 1141 176 1173 176 c 1,31,-1
 1141 -16 l 1,32,33
 1098 -16 1098 -16 1069 -14.5 c 128,-1,34
 1040 -13 1040 -13 1003.5 -8 c 128,-1,35
 967 -3 967 -3 942 8.5 c 128,-1,36
 917 20 917 20 891 37.5 c 128,-1,37
 865 55 865 55 846 83.5 c 128,-1,38
 827 112 827 112 814 151 c 1,39,40
 775 72 775 72 697 25 c 128,-1,41
 619 -22 619 -22 528 -22 c 0,14,15
EndSplineSet
EndChar

StartChar: b
Encoding: 98 98 69
Width: 1231
GlyphClass: 2
Flags: W
AnchorPoint: "Anchor-1" 826 0 basechar 0
AnchorPoint: "Anchor-0" 790 1536 basechar 0
LayerCount: 2
UndoRedoHistory
Layer: 1
Undoes
EndUndoes
Redoes
EndRedoes
EndUndoRedoHistory
Fore
SplineSet
570 164 m 0,0,1
 607 164 607 164 647 178 c 128,-1,2
 687 192 687 192 727.5 223.5 c 128,-1,3
 768 255 768 255 799.5 300 c 128,-1,4
 831 345 831 345 851 413 c 128,-1,5
 871 481 871 481 871 561 c 0,6,7
 871 688 871 688 815.5 775 c 128,-1,8
 760 862 760 862 673 862 c 0,9,10
 567 862 567 862 492.5 768.5 c 128,-1,11
 418 675 418 675 418 511 c 2,12,-1
 418 187 l 1,13,14
 487 164 487 164 570 164 c 0,0,1
579 -22 m 0,15,16
 382 -22 382 -22 176 55 c 1,17,-1
 176 1480 l 1,18,-1
 418 1480 l 1,19,-1
 418 905 l 1,20,21
 525 1048 525 1048 715 1048 c 0,22,23
 792 1048 792 1048 863.5 1016.5 c 128,-1,24
 935 985 935 985 992.5 926 c 128,-1,25
 1050 867 1050 867 1084.5 773 c 128,-1,26
 1119 679 1119 679 1119 565 c 0,27,28
 1119 452 1119 452 1087.5 354.5 c 128,-1,29
 1056 257 1056 257 1002.5 189 c 128,-1,30
 949 121 949 121 879 72.5 c 128,-1,31
 809 24 809 24 733 1 c 128,-1,32
 657 -22 657 -22 579 -22 c 0,15,16
EndSplineSet
EndChar

StartChar: c
Encoding: 99 99 70
Width: 1035
GlyphClass: 2
Flags: W
AnchorPoint: "Anchor-1" 599 0 basechar 0
AnchorPoint: "Anchor-0" 597 1152 basechar 0
LayerCount: 2
UndoRedoHistory
Layer: 1
Undoes
EndUndoes
Redoes
EndRedoes
EndUndoRedoHistory
Fore
SplineSet
623 -22 m 0,0,1
 517 -22 517 -22 427 11 c 128,-1,2
 337 44 337 44 266.5 108.5 c 128,-1,3
 196 173 196 173 156 278.5 c 128,-1,4
 116 384 116 384 116 519 c 0,5,6
 116 651 116 651 157.5 754.5 c 128,-1,7
 199 858 199 858 270.5 921 c 128,-1,8
 342 984 342 984 433 1016 c 128,-1,9
 524 1048 524 1048 629 1048 c 0,10,11
 806 1048 806 1048 941 960 c 1,12,-1
 876 798 l 1,13,14
 758 862 758 862 647 862 c 0,15,16
 517 862 517 862 440.5 773 c 128,-1,17
 364 684 364 684 364 520 c 0,18,19
 364 441 364 441 380.5 379 c 128,-1,20
 397 317 397 317 424 277 c 128,-1,21
 451 237 451 237 488.5 211 c 128,-1,22
 526 185 526 185 565.5 174.5 c 128,-1,23
 605 164 605 164 650 164 c 0,24,25
 787 164 787 164 898 236 c 1,26,-1
 971 81 l 1,27,28
 816 -22 816 -22 623 -22 c 0,0,1
EndSplineSet
EndChar

StartChar: d
Encoding: 100 100 71
Width: 1258
GlyphClass: 2
Flags: W
AnchorPoint: "Anchor-1" 826 0 basechar 0
AnchorPoint: "Anchor-0" 790 1536 basechar 0
LayerCount: 2
UndoRedoHistory
Layer: 1
Undoes
EndUndoes
Redoes
EndRedoes
EndUndoRedoHistory
Fore
SplineSet
853 150 m 1,0,1
 803 70 803 70 715.5 24 c 128,-1,2
 628 -22 628 -22 531 -22 c 0,3,4
 455 -22 455 -22 382.5 7 c 128,-1,5
 310 36 310 36 248.5 91.5 c 128,-1,6
 187 147 187 147 149.5 240 c 128,-1,7
 112 333 112 333 112 450 c 0,8,9
 112 564 112 564 142.5 662 c 128,-1,10
 173 760 173 760 224.5 830 c 128,-1,11
 276 900 276 900 343.5 950 c 128,-1,12
 411 1000 411 1000 486.5 1024 c 128,-1,13
 562 1048 562 1048 639 1048 c 0,14,15
 722 1048 722 1048 811 1022 c 1,16,-1
 811 1480 l 1,17,-1
 1053 1480 l 1,18,-1
 1053 365 l 2,19,20
 1053 254 1053 254 1086 215 c 128,-1,21
 1119 176 1119 176 1212 176 c 1,22,-1
 1180 -16 l 1,23,24
 1024 -16 1024 -16 957.5 19 c 128,-1,25
 891 54 891 54 853 150 c 1,0,1
360 456 m 0,26,27
 360 325 360 325 422 244.5 c 128,-1,28
 484 164 484 164 568 164 c 0,29,30
 668 164 668 164 739.5 250 c 128,-1,31
 811 336 811 336 811 498 c 2,32,-1
 811 839 l 1,33,34
 733 862 733 862 669 862 c 0,35,36
 610 862 610 862 556 837.5 c 128,-1,37
 502 813 502 813 457.5 765 c 128,-1,38
 413 717 413 717 386.5 637 c 128,-1,39
 360 557 360 557 360 456 c 0,26,27
EndSplineSet
EndChar

StartChar: e
Encoding: 101 101 72
Width: 1095
GlyphClass: 2
Flags: W
AnchorPoint: "Anchor-2" 869 56 basechar 0
AnchorPoint: "Anchor-1" 656 0 basechar 0
AnchorPoint: "Anchor-0" 610 1121 basechar 0
LayerCount: 2
UndoRedoHistory
Layer: 1
Undoes
EndUndoes
Redoes
EndRedoes
EndUndoRedoHistory
Fore
SplineSet
953 260 m 1,0,-1
 1031 113 l 1,1,2
 953 45 953 45 841.5 11.5 c 128,-1,3
 730 -22 730 -22 625 -22 c 0,4,5
 515 -22 515 -22 421 14 c 128,-1,6
 327 50 327 50 258.5 117.5 c 128,-1,7
 190 185 190 185 151 287 c 128,-1,8
 112 389 112 389 112 514 c 0,9,10
 112 663 112 663 178.5 785.5 c 128,-1,11
 245 908 245 908 360.5 978 c 128,-1,12
 476 1048 476 1048 616 1048 c 0,13,14
 697 1048 697 1048 764.5 1022 c 128,-1,15
 832 996 832 996 875 953.5 c 128,-1,16
 918 911 918 911 941 858.5 c 128,-1,17
 964 806 964 806 964 750 c 0,18,19
 964 432 964 432 370 371 c 1,20,21
 397 277 397 277 470.5 221.5 c 128,-1,22
 544 166 544 166 651 166 c 0,23,24
 791 166 791 166 953 260 c 1,0,-1
613 867 m 0,25,26
 539 867 539 867 477 815.5 c 128,-1,27
 415 764 415 764 381.5 685.5 c 128,-1,28
 348 607 348 607 348 523 c 1,29,30
 569 555 569 555 662.5 612.5 c 128,-1,31
 756 670 756 670 747 758 c 0,32,33
 742 808 742 808 706.5 837.5 c 128,-1,34
 671 867 671 867 613 867 c 0,25,26
EndSplineSet
EndChar

StartChar: f
Encoding: 102 102 73
Width: 805
GlyphClass: 2
Flags: W
AnchorPoint: "Anchor-1" 366 0 basechar 0
AnchorPoint: "Anchor-0" 543 1464 basechar 0
LayerCount: 2
UndoRedoHistory
Layer: 1
Undoes
EndUndoes
Redoes
EndRedoes
EndUndoRedoHistory
Fore
SplineSet
503 0 m 1,0,-1
 261 0 l 1,1,-1
 261 862 l 1,2,-1
 65 862 l 1,3,-1
 65 1026 l 1,4,-1
 261 1026 l 1,5,-1
 261 1125 l 2,6,7
 261 1337 261 1337 369.5 1423 c 128,-1,8
 478 1509 478 1509 720 1509 c 2,9,-1
 825 1509 l 1,10,-1
 825 1321 l 1,11,-1
 738 1321 l 2,12,13
 660 1321 660 1321 613 1308.5 c 128,-1,14
 566 1296 566 1296 542 1265 c 128,-1,15
 518 1234 518 1234 510.5 1195.5 c 128,-1,16
 503 1157 503 1157 503 1090 c 2,17,-1
 503 1026 l 1,18,-1
 805 1026 l 1,19,-1
 805 862 l 1,20,-1
 503 862 l 1,21,-1
 503 0 l 1,0,-1
EndSplineSet
EndChar

StartChar: g
Encoding: 103 103 74
Width: 1206
GlyphClass: 2
Flags: W
AnchorPoint: "Anchor-1" 588 -512 basechar 0
AnchorPoint: "Anchor-0" 652 1027 basechar 0
LayerCount: 2
UndoRedoHistory
Layer: 1
Undoes
EndUndoes
Redoes
EndRedoes
EndUndoRedoHistory
Fore
SplineSet
567 191 m 0,0,1
 676 191 676 191 744 294 c 128,-1,2
 812 397 812 397 812 545 c 2,3,-1
 812 837 l 1,4,5
 748 862 748 862 665 862 c 0,6,7
 533 862 533 862 446.5 758.5 c 128,-1,8
 360 655 360 655 360 470 c 0,9,10
 360 356 360 356 421.5 273.5 c 128,-1,11
 483 191 483 191 567 191 c 0,0,1
557 -522 m 0,12,13
 469 -522 469 -522 367.5 -498 c 128,-1,14
 266 -474 266 -474 181 -429 c 1,15,-1
 222 -227 l 1,16,17
 379 -327 379 -327 534 -327 c 0,18,19
 590 -327 590 -327 637 -311 c 128,-1,20
 684 -295 684 -295 725 -259.5 c 128,-1,21
 766 -224 766 -224 789 -160.5 c 128,-1,22
 812 -97 812 -97 812 -10 c 2,23,-1
 812 129 l 1,24,25
 764 63 764 63 690.5 31.5 c 128,-1,26
 617 0 617 0 538 0 c 0,27,28
 355 0 355 0 233.5 132 c 128,-1,29
 112 264 112 264 112 460 c 0,30,31
 112 721 112 721 264 884.5 c 128,-1,32
 416 1048 416 1048 664 1048 c 0,33,34
 756 1048 756 1048 867.5 1017 c 128,-1,35
 979 986 979 986 1054 942 c 1,36,-1
 1054 36 l 2,37,38
 1054 -94 1054 -94 1015 -200.5 c 128,-1,39
 976 -307 976 -307 908 -377 c 128,-1,40
 840 -447 840 -447 750 -484.5 c 128,-1,41
 660 -522 660 -522 557 -522 c 0,12,13
EndSplineSet
EndChar

StartChar: h
Encoding: 104 104 75
Width: 1280
GlyphClass: 2
Flags: W
AnchorPoint: "Anchor-1" 645 0 basechar 0
AnchorPoint: "Anchor-0" 737 1260 basechar 0
LayerCount: 2
UndoRedoHistory
Layer: 1
Undoes
EndUndoes
Redoes
EndRedoes
EndUndoRedoHistory
Fore
SplineSet
1200 -16 m 1,0,-1
 1155 -16 l 2,1,2
 983 -16 983 -16 908.5 60.5 c 128,-1,3
 834 137 834 137 834 298 c 2,4,-1
 834 606 l 2,5,6
 834 725 834 725 786.5 793.5 c 128,-1,7
 739 862 739 862 646 862 c 0,8,9
 569 862 569 862 515.5 818.5 c 128,-1,10
 462 775 462 775 440 713 c 128,-1,11
 418 651 418 651 418 577 c 2,12,-1
 418 0 l 1,13,-1
 176 0 l 1,14,-1
 176 1480 l 1,15,-1
 418 1480 l 1,16,-1
 418 919 l 1,17,18
 518 1048 518 1048 704 1048 c 0,19,20
 874 1048 874 1048 975 928.5 c 128,-1,21
 1076 809 1076 809 1076 608 c 2,22,-1
 1076 352 l 2,23,24
 1076 254 1076 254 1104.5 215.5 c 128,-1,25
 1133 177 1133 177 1212 177 c 2,26,-1
 1234 177 l 1,27,-1
 1200 -16 l 1,0,-1
EndSplineSet
EndChar

StartChar: i
Encoding: 105 105 76
Width: 785
GlyphClass: 2
Flags: W
AnchorPoint: "Anchor-2" 538 0 basechar 0
AnchorPoint: "Anchor-1" 248 1 basechar 0
LayerCount: 2
UndoRedoHistory
Layer: 1
Undoes
EndUndoes
Redoes
EndRedoes
EndUndoRedoHistory
Fore
SplineSet
323 1188 m 0,0,1
 249 1188 249 1188 205.5 1227 c 128,-1,2
 162 1266 162 1266 162 1334 c 0,3,4
 162 1403 162 1403 206 1441.5 c 128,-1,5
 250 1480 250 1480 325 1480 c 0,6,7
 398 1480 398 1480 442 1440.5 c 128,-1,8
 486 1401 486 1401 486 1333 c 128,-1,9
 486 1265 486 1265 442 1226.5 c 128,-1,10
 398 1188 398 1188 323 1188 c 0,0,1
747 33 m 1,11,12
 646 -7 646 -7 551 -13.5 c 128,-1,13
 456 -20 456 -20 375.5 9.5 c 128,-1,14
 295 39 295 39 246 123 c 128,-1,15
 197 207 197 207 197 337 c 2,16,-1
 197 1026 l 1,17,-1
 439 1026 l 1,18,-1
 439 334 l 2,19,20
 439 282 439 282 452 248.5 c 128,-1,21
 465 215 465 215 487 198 c 128,-1,22
 509 181 509 181 545 178 c 128,-1,23
 581 175 581 175 621 181.5 c 128,-1,24
 661 188 661 188 716 203 c 1,25,-1
 747 33 l 1,11,12
EndSplineSet
EndChar

StartChar: j
Encoding: 106 106 77
Width: 660
GlyphClass: 2
Flags: W
AnchorPoint: "Anchor-1" 676 0 basechar 0
AnchorPoint: "Anchor-0" 700 1536 basechar 0
LayerCount: 2
UndoRedoHistory
Layer: 1
Undoes
EndUndoes
Redoes
EndRedoes
EndUndoRedoHistory
Fore
SplineSet
111 -499 m 0,0,1
 65 -499 65 -499 21 -493 c 128,-1,2
 -23 -487 -23 -487 -44 -481 c 2,3,-1
 -65 -475 l 1,4,-1
 -44 -305 l 1,5,6
 21 -323 21 -323 89 -323 c 0,7,8
 168 -323 168 -323 203.5 -274 c 128,-1,9
 239 -225 239 -225 239 -90 c 2,10,-1
 239 1026 l 1,11,-1
 481 1026 l 1,12,-1
 481 -93 l 2,13,14
 481 -168 481 -168 472 -225 c 128,-1,15
 463 -282 463 -282 438.5 -335.5 c 128,-1,16
 414 -389 414 -389 373.5 -423.5 c 128,-1,17
 333 -458 333 -458 267 -478.5 c 128,-1,18
 201 -499 201 -499 111 -499 c 0,0,1
371 1188 m 0,19,20
 297 1188 297 1188 253.5 1227 c 128,-1,21
 210 1266 210 1266 210 1334 c 0,22,23
 210 1403 210 1403 254 1441.5 c 128,-1,24
 298 1480 298 1480 373 1480 c 0,25,26
 446 1480 446 1480 490 1440.5 c 128,-1,27
 534 1401 534 1401 534 1333 c 128,-1,28
 534 1265 534 1265 490 1226.5 c 128,-1,29
 446 1188 446 1188 371 1188 c 0,19,20
EndSplineSet
EndChar

StartChar: k
Encoding: 107 107 78
Width: 1198
GlyphClass: 2
Flags: W
AnchorPoint: "Anchor-1" 616 -1 basechar 0
AnchorPoint: "Anchor-0" 767 1152 basechar 0
LayerCount: 2
UndoRedoHistory
Layer: 1
Undoes
EndUndoes
Redoes
EndRedoes
EndUndoRedoHistory
Fore
SplineSet
434 0 m 1,0,-1
 192 0 l 1,1,-1
 192 1480 l 1,2,-1
 434 1480 l 1,3,-1
 434 588 l 1,4,-1
 863 1026 l 1,5,-1
 1147 1026 l 1,6,-1
 670 536 l 1,7,-1
 1159 0 l 1,8,-1
 885 0 l 1,9,-1
 434 482 l 1,10,-1
 434 0 l 1,0,-1
EndSplineSet
EndChar

StartChar: l
Encoding: 108 108 79
Width: 764
GlyphClass: 2
Flags: W
AnchorPoint: "Anchor-1" 264 0 basechar 0
AnchorPoint: "Anchor-0" 266 1474 basechar 0
LayerCount: 2
UndoRedoHistory
Layer: 1
Undoes
EndUndoes
Redoes
EndRedoes
EndUndoRedoHistory
Fore
SplineSet
754 33 m 1,0,1
 668 1 668 1 588 -10.5 c 128,-1,2
 508 -22 508 -22 435.5 -8.5 c 128,-1,3
 363 5 363 5 309 43.5 c 128,-1,4
 255 82 255 82 223.5 157 c 128,-1,5
 192 232 192 232 192 337 c 2,6,-1
 192 1480 l 1,7,-1
 434 1480 l 1,8,-1
 434 334 l 2,9,10
 434 281 434 281 445.5 248 c 128,-1,11
 457 215 457 215 477 198 c 128,-1,12
 497 181 497 181 534.5 178 c 128,-1,13
 572 175 572 175 614.5 181 c 128,-1,14
 657 187 657 187 723 203 c 1,15,-1
 754 33 l 1,0,1
EndSplineSet
EndChar

StartChar: m
Encoding: 109 109 80
Width: 1921
GlyphClass: 2
Flags: W
AnchorPoint: "Anchor-1" 946 0 basechar 0
AnchorPoint: "Anchor-0" 952 1024 basechar 0
LayerCount: 2
UndoRedoHistory
Layer: 1
Undoes
EndUndoes
Redoes
EndRedoes
EndUndoRedoHistory
Fore
SplineSet
1841 -16 m 1,0,-1
 1811 -16 l 2,1,2
 1713 -16 1713 -16 1646 7.5 c 128,-1,3
 1579 31 1579 31 1541.5 79 c 128,-1,4
 1504 127 1504 127 1488 189.5 c 128,-1,5
 1472 252 1472 252 1472 339 c 2,6,-1
 1472 606 l 2,7,8
 1472 725 1472 725 1423.5 793.5 c 128,-1,9
 1375 862 1375 862 1280 862 c 0,10,11
 1198 862 1198 862 1140.5 792.5 c 128,-1,12
 1083 723 1083 723 1083 614 c 2,13,-1
 1083 0 l 1,14,-1
 841 0 l 1,15,-1
 841 606 l 2,16,17
 841 731 841 731 789 796.5 c 128,-1,18
 737 862 737 862 652 862 c 0,19,20
 560 862 560 862 502 785.5 c 128,-1,21
 444 709 444 709 444 591 c 2,22,-1
 444 0 l 1,23,-1
 202 0 l 1,24,-1
 202 641 l 2,25,26
 202 832 202 832 76 937 c 1,27,-1
 303 1026 l 1,28,29
 332 1004 332 1004 362.5 960.5 c 128,-1,30
 393 917 393 917 403 881 c 1,31,32
 446 963 446 963 534.5 1005.5 c 128,-1,33
 623 1048 623 1048 723 1048 c 0,34,35
 827 1048 827 1048 901.5 996 c 128,-1,36
 976 944 976 944 1015 862 c 1,37,38
 1071 961 1071 961 1160.5 1004.5 c 128,-1,39
 1250 1048 1250 1048 1336 1048 c 0,40,41
 1512 1048 1512 1048 1613 929 c 128,-1,42
 1714 810 1714 810 1714 608 c 2,43,-1
 1714 357 l 2,44,45
 1714 260 1714 260 1741.5 218 c 128,-1,46
 1769 176 1769 176 1850 176 c 2,47,-1
 1875 176 l 1,48,-1
 1841 -16 l 1,0,-1
EndSplineSet
EndChar

StartChar: n
Encoding: 110 110 81
Width: 1307
GlyphClass: 2
Flags: W
AnchorPoint: "Anchor-1" 676 0 basechar 0
AnchorPoint: "Anchor-0" 713 1158 basechar 0
LayerCount: 2
UndoRedoHistory
Layer: 1
Undoes
EndUndoes
Redoes
EndRedoes
EndUndoRedoHistory
Fore
SplineSet
1261 176 m 1,0,-1
 1227 -16 l 1,1,-1
 1192 -16 l 2,2,3
 1096 -16 1096 -16 1030 8.5 c 128,-1,4
 964 33 964 33 926.5 84 c 128,-1,5
 889 135 889 135 873.5 203 c 128,-1,6
 858 271 858 271 858 368 c 2,7,-1
 858 604 l 2,8,9
 858 727 858 727 817 794.5 c 128,-1,10
 776 862 776 862 681 862 c 0,11,12
 589 862 589 862 518 789 c 128,-1,13
 447 716 447 716 447 592 c 2,14,-1
 447 0 l 1,15,-1
 205 0 l 1,16,-1
 205 643 l 2,17,18
 205 823 205 823 76 937 c 1,19,-1
 302 1026 l 1,20,21
 337 999 337 999 367 954 c 128,-1,22
 397 909 397 909 406 873 c 1,23,24
 445 947 445 947 536 997.5 c 128,-1,25
 627 1048 627 1048 740 1048 c 0,26,27
 910 1048 910 1048 1005 929.5 c 128,-1,28
 1100 811 1100 811 1100 608 c 2,29,-1
 1100 345 l 2,30,31
 1100 256 1100 256 1129 216 c 128,-1,32
 1158 176 1158 176 1244 176 c 2,33,-1
 1261 176 l 1,0,-1
EndSplineSet
EndChar

StartChar: o
Encoding: 111 111 82
Width: 1218
GlyphClass: 2
Flags: W
AnchorPoint: "Anchor-2" 726 0 basechar 0
AnchorPoint: "Anchor-1" 826 0 basechar 0
AnchorPoint: "Anchor-0" 603 1134 basechar 0
LayerCount: 2
UndoRedoHistory
Layer: 1
Undoes
EndUndoes
Redoes
EndRedoes
EndUndoRedoHistory
Fore
SplineSet
607 -22 m 0,0,1
 377 -22 377 -22 244.5 124.5 c 128,-1,2
 112 271 112 271 112 512 c 0,3,4
 112 754 112 754 244 901 c 128,-1,5
 376 1048 376 1048 606 1048 c 0,6,7
 839 1048 839 1048 972.5 902 c 128,-1,8
 1106 756 1106 756 1106 513 c 0,9,10
 1106 271 1106 271 973 124.5 c 128,-1,11
 840 -22 840 -22 607 -22 c 0,0,1
609 164 m 0,12,13
 733 164 733 164 795.5 256 c 128,-1,14
 858 348 858 348 858 512 c 0,15,16
 858 677 858 677 795 769.5 c 128,-1,17
 732 862 732 862 607 862 c 128,-1,18
 482 862 482 862 421 769.5 c 128,-1,19
 360 677 360 677 360 512 c 128,-1,20
 360 347 360 347 422 255.5 c 128,-1,21
 484 164 484 164 609 164 c 0,12,13
EndSplineSet
EndChar

StartChar: p
Encoding: 112 112 83
Width: 1240
GlyphClass: 2
Flags: W
AnchorPoint: "Anchor-1" 826 0 basechar 0
AnchorPoint: "Anchor-0" 790 1536 basechar 0
LayerCount: 2
UndoRedoHistory
Layer: 1
Undoes
EndUndoes
Redoes
EndRedoes
EndUndoRedoHistory
Fore
SplineSet
425 188 m 1,0,1
 500 164 500 164 563 164 c 0,2,3
 716 164 716 164 798 272.5 c 128,-1,4
 880 381 880 381 880 572 c 0,5,6
 880 695 880 695 824 778.5 c 128,-1,7
 768 862 768 862 673 862 c 0,8,9
 570 862 570 862 497.5 762 c 128,-1,10
 425 662 425 662 425 490 c 2,11,-1
 425 188 l 1,0,1
183 -548 m 1,12,-1
 183 651 l 2,13,14
 183 826 183 826 54 937 c 1,15,-1
 280 1026 l 1,16,17
 303 1009 303 1009 336 955 c 128,-1,18
 369 901 369 901 384 849 c 1,19,20
 486 1048 486 1048 734 1048 c 0,21,22
 789 1048 789 1048 842 1032.5 c 128,-1,23
 895 1017 895 1017 947.5 981 c 128,-1,24
 1000 945 1000 945 1039.5 892 c 128,-1,25
 1079 839 1079 839 1103.5 757 c 128,-1,26
 1128 675 1128 675 1128 574 c 0,27,28
 1128 308 1128 308 983 143 c 128,-1,29
 838 -22 838 -22 599 -22 c 0,30,31
 522 -22 522 -22 425 4 c 1,32,-1
 425 -548 l 1,33,-1
 183 -548 l 1,12,-1
EndSplineSet
EndChar

StartChar: q
Encoding: 113 113 84
Width: 1251
GlyphClass: 2
Flags: W
LayerCount: 2
UndoRedoHistory
Layer: 1
Undoes
EndUndoes
Redoes
EndRedoes
EndUndoRedoHistory
Fore
SplineSet
567 164 m 0,0,1
 676 164 676 164 750 272.5 c 128,-1,2
 824 381 824 381 824 529 c 2,3,-1
 824 838 l 1,4,5
 762 862 762 862 665 862 c 0,6,7
 534 862 534 862 447 751 c 128,-1,8
 360 640 360 640 360 454 c 0,9,10
 360 339 360 339 422 251.5 c 128,-1,11
 484 164 484 164 567 164 c 0,0,1
1095 -552 m 1,12,13
 969 -600 969 -600 896.5 -550.5 c 128,-1,14
 824 -501 824 -501 824 -391 c 2,15,-1
 824 107 l 1,16,17
 776 42 776 42 697 10 c 128,-1,18
 618 -22 618 -22 538 -22 c 0,19,20
 356 -22 356 -22 234 112.5 c 128,-1,21
 112 247 112 247 112 444 c 0,22,23
 112 616 112 616 180 753.5 c 128,-1,24
 248 891 248 891 374.5 969.5 c 128,-1,25
 501 1048 501 1048 664 1048 c 0,26,27
 757 1048 757 1048 874.5 1016.5 c 128,-1,28
 992 985 992 985 1066 942 c 1,29,-1
 1066 -357 l 1,30,-1
 1328 -226 l 1,31,-1
 1377 -405 l 1,32,-1
 1095 -552 l 1,12,13
EndSplineSet
EndChar

StartChar: r
Encoding: 114 114 85
Width: 890
GlyphClass: 2
Flags: W
AnchorPoint: "Anchor-1" 338 -3 basechar 0
AnchorPoint: "Anchor-0" 487 1152 basechar 0
LayerCount: 2
UndoRedoHistory
Layer: 1
Undoes
EndUndoes
Redoes
EndRedoes
EndUndoRedoHistory
Fore
SplineSet
211 0 m 1,0,-1
 211 652 l 2,1,2
 211 751 211 751 171 824.5 c 128,-1,3
 131 898 131 898 82 937 c 1,4,-1
 308 1026 l 1,5,6
 333 1002 333 1002 347 986 c 128,-1,7
 361 970 361 970 379.5 937.5 c 128,-1,8
 398 905 398 905 412 864 c 1,9,10
 454 955 454 955 532.5 999.5 c 128,-1,11
 611 1044 611 1044 699 1044 c 0,12,13
 779 1044 779 1044 832 1022 c 1,14,-1
 814 815 l 1,15,16
 750 831 750 831 698 831 c 0,17,18
 644 831 644 831 599.5 811 c 128,-1,19
 555 791 555 791 528.5 761.5 c 128,-1,20
 502 732 502 732 484.5 694.5 c 128,-1,21
 467 657 467 657 460 625 c 128,-1,22
 453 593 453 593 453 566 c 2,23,-1
 453 0 l 1,24,-1
 211 0 l 1,0,-1
EndSplineSet
EndChar

StartChar: s
Encoding: 115 115 86
Width: 953
GlyphClass: 2
Flags: W
AnchorPoint: "Anchor-1" 501 0 basechar 0
AnchorPoint: "Anchor-0" 500 1152 basechar 0
LayerCount: 2
UndoRedoHistory
Layer: 1
Undoes
EndUndoes
Redoes
EndRedoes
EndUndoRedoHistory
Fore
SplineSet
500 -22 m 0,0,1
 399 -22 399 -22 306 6 c 128,-1,2
 213 34 213 34 151 67 c 1,3,-1
 203 244 l 1,4,5
 355 166 355 166 500 166 c 0,6,7
 568 166 568 166 599 197.5 c 128,-1,8
 630 229 630 229 630 277 c 0,9,10
 630 333 630 333 588.5 365.5 c 128,-1,11
 547 398 547 398 425 443 c 1,12,13
 267 495 267 495 203.5 568.5 c 128,-1,14
 140 642 140 642 140 754 c 0,15,16
 140 805 140 805 159 854.5 c 128,-1,17
 178 904 178 904 216.5 948.5 c 128,-1,18
 255 993 255 993 325 1020.5 c 128,-1,19
 395 1048 395 1048 487 1048 c 0,20,21
 678 1048 678 1048 813 973 c 1,22,-1
 757 810 l 1,23,24
 629 866 629 866 507 866 c 0,25,26
 374 866 374 866 367 770 c 0,27,28
 363 725 363 725 402.5 694 c 128,-1,29
 442 663 442 663 541 629 c 0,30,31
 716 569 716 569 783 498.5 c 128,-1,32
 850 428 850 428 851 304 c 1,33,34
 851 152 851 152 761.5 65 c 128,-1,35
 672 -22 672 -22 500 -22 c 0,0,1
EndSplineSet
EndChar

StartChar: t
Encoding: 116 116 87
Width: 890
GlyphClass: 2
Flags: W
AnchorPoint: "Anchor-1" 501 0 basechar 0
AnchorPoint: "Anchor-0" 500 1152 basechar 0
LayerCount: 2
UndoRedoHistory
Layer: 1
Undoes
EndUndoes
Redoes
EndRedoes
EndUndoRedoHistory
Fore
SplineSet
862 33 m 1,0,1
 763 1 763 1 673.5 -10.5 c 128,-1,2
 584 -22 584 -22 503.5 -9 c 128,-1,3
 423 4 423 4 364 43 c 128,-1,4
 305 82 305 82 270.5 156.5 c 128,-1,5
 236 231 236 231 236 337 c 2,6,-1
 236 862 l 1,7,-1
 32 862 l 1,8,-1
 32 1026 l 1,9,-1
 236 1026 l 1,10,-1
 236 1309 l 1,11,-1
 478 1368 l 1,12,-1
 478 1026 l 1,13,-1
 780 1026 l 1,14,-1
 780 862 l 1,15,-1
 478 862 l 1,16,-1
 478 334 l 2,17,18
 478 269 478 269 501.5 231.5 c 128,-1,19
 525 194 525 194 573 182.5 c 128,-1,20
 621 171 621 171 682.5 178 c 128,-1,21
 744 185 744 185 831 208 c 1,22,-1
 862 33 l 1,0,1
EndSplineSet
EndChar

StartChar: u
Encoding: 117 117 88
Width: 1257
GlyphClass: 2
Flags: W
AnchorPoint: "Anchor-2" 947 0 basechar 0
AnchorPoint: "Anchor-1" 587 0 basechar 0
AnchorPoint: "Anchor-0" 600 1152 basechar 0
LayerCount: 2
UndoRedoHistory
Layer: 1
Undoes
EndUndoes
Redoes
EndRedoes
EndUndoRedoHistory
Fore
SplineSet
528 -22 m 0,0,1
 362 -22 362 -22 265.5 81 c 128,-1,2
 169 184 169 184 169 354 c 2,3,-1
 169 524 l 2,4,5
 169 662 169 662 163.5 787.5 c 128,-1,6
 158 913 158 913 152 970 c 2,7,-1
 147 1026 l 1,8,-1
 395 1026 l 1,9,10
 411 879 411 879 411 553 c 2,11,-1
 411 377 l 2,12,13
 411 282 411 282 454.5 226 c 128,-1,14
 498 170 498 170 578 165 c 0,15,16
 685 158 685 158 746 217.5 c 128,-1,17
 807 277 807 277 807 409 c 2,18,-1
 807 1026 l 1,19,-1
 1049 1026 l 1,20,-1
 1049 360 l 2,21,22
 1049 320 1049 320 1051 296 c 128,-1,23
 1053 272 1053 272 1062 246 c 128,-1,24
 1071 220 1071 220 1087.5 206.5 c 128,-1,25
 1104 193 1104 193 1134 184.5 c 128,-1,26
 1164 176 1164 176 1208 176 c 1,27,-1
 1176 -16 l 1,28,29
 1121 -16 1121 -16 1084 -13.5 c 128,-1,30
 1047 -11 1047 -11 1007 -1 c 128,-1,31
 967 9 967 9 940 26.5 c 128,-1,32
 913 44 913 44 889 75 c 128,-1,33
 865 106 865 106 849 151 c 1,34,35
 812 73 812 73 727.5 25.5 c 128,-1,36
 643 -22 643 -22 528 -22 c 0,0,1
EndSplineSet
EndChar

StartChar: v
Encoding: 118 118 89
Width: 1036
GlyphClass: 2
Flags: W
LayerCount: 2
UndoRedoHistory
Layer: 1
Undoes
EndUndoes
Redoes
EndRedoes
EndUndoRedoHistory
Fore
SplineSet
435 0 m 1,0,-1
 17 1026 l 1,1,-1
 270 1026 l 1,2,-1
 472 484 l 1,3,-1
 533 325 l 1,4,-1
 587 484 l 1,5,-1
 770 1026 l 1,6,-1
 1019 1026 l 1,7,-1
 637 0 l 1,8,-1
 435 0 l 1,0,-1
EndSplineSet
EndChar

StartChar: w
Encoding: 119 119 90
Width: 1639
GlyphClass: 2
Flags: W
AnchorPoint: "Anchor-1" 840 0 basechar 0
AnchorPoint: "Anchor-0" 843 1024 basechar 0
LayerCount: 2
UndoRedoHistory
Layer: 1
Undoes
EndUndoes
Redoes
EndRedoes
EndUndoRedoHistory
Fore
SplineSet
423 0 m 1,0,-1
 34 1026 l 1,1,-1
 281 1026 l 1,2,-1
 466 484 l 1,3,-1
 522 325 l 1,4,-1
 577 484 l 1,5,-1
 740 995 l 1,6,-1
 897 995 l 1,7,-1
 1079 484 l 1,8,-1
 1136 325 l 1,9,-1
 1190 484 l 1,10,-1
 1371 1026 l 1,11,-1
 1605 1026 l 1,12,-1
 1239 0 l 1,13,-1
 1045 0 l 1,14,-1
 826 582 l 1,15,-1
 623 0 l 1,16,-1
 423 0 l 1,0,-1
EndSplineSet
EndChar

StartChar: x
Encoding: 120 120 91
Width: 1118
GlyphClass: 2
Flags: W
LayerCount: 2
UndoRedoHistory
Layer: 1
Undoes
EndUndoes
Redoes
EndRedoes
EndUndoRedoHistory
Fore
SplineSet
32 0 m 1,0,-1
 426 535 l 1,1,-1
 77 1026 l 1,2,-1
 362 1026 l 1,3,-1
 581 697 l 1,4,-1
 790 1026 l 1,5,-1
 1069 1026 l 1,6,-1
 705 520 l 1,7,-1
 1086 0 l 1,8,-1
 783 0 l 1,9,-1
 545 361 l 1,10,-1
 298 0 l 1,11,-1
 32 0 l 1,0,-1
EndSplineSet
EndChar

StartChar: y
Encoding: 121 121 92
Width: 1254
GlyphClass: 2
Flags: W
AnchorPoint: "Anchor-0" 536 1024 basechar 0
LayerCount: 2
UndoRedoHistory
Layer: 1
Undoes
EndUndoes
Redoes
EndRedoes
EndUndoRedoHistory
Fore
SplineSet
592 -522 m 0,0,1
 504 -522 504 -522 404.5 -498 c 128,-1,2
 305 -474 305 -474 219 -429 c 1,3,-1
 260 -227 l 1,4,5
 327 -270 327 -270 411.5 -298.5 c 128,-1,6
 496 -327 496 -327 570 -327 c 0,7,8
 610 -327 610 -327 646.5 -319.5 c 128,-1,9
 683 -312 683 -312 721.5 -290 c 128,-1,10
 760 -268 760 -268 787.5 -234 c 128,-1,11
 815 -200 815 -200 832.5 -142.5 c 128,-1,12
 850 -85 850 -85 850 -10 c 2,13,-1
 850 107 l 1,14,15
 752 -1 752 -1 566 -1 c 0,16,17
 394 -1 394 -1 285.5 103.5 c 128,-1,18
 177 208 177 208 177 376 c 2,19,-1
 177 594 l 2,20,21
 177 718 177 718 171.5 826 c 128,-1,22
 166 934 166 934 160 980 c 2,23,-1
 154 1026 l 1,24,-1
 399 1026 l 1,25,26
 419 913 419 913 419 607 c 2,27,-1
 419 402 l 2,28,29
 419 303 419 303 471 247 c 128,-1,30
 523 191 523 191 610 191 c 0,31,32
 728 191 728 191 789 270.5 c 128,-1,33
 850 350 850 350 850 503 c 2,34,-1
 850 1026 l 1,35,-1
 1092 1026 l 1,36,-1
 1092 53 l 2,37,38
 1092 -90 1092 -90 1051.5 -202.5 c 128,-1,39
 1011 -315 1011 -315 941 -383.5 c 128,-1,40
 871 -452 871 -452 782.5 -487 c 128,-1,41
 694 -522 694 -522 592 -522 c 0,0,1
EndSplineSet
EndChar

StartChar: z
Encoding: 122 122 93
Width: 998
GlyphClass: 2
Flags: W
AnchorPoint: "Anchor-1" 555 0 basechar 0
AnchorPoint: "Anchor-0" 506 1024 basechar 0
LayerCount: 2
UndoRedoHistory
Layer: 1
Undoes
EndUndoes
Redoes
EndRedoes
EndUndoRedoHistory
Fore
SplineSet
122 0 m 1,0,-1
 122 155 l 1,1,-1
 600 856 l 1,2,-1
 128 856 l 1,3,-1
 128 1026 l 1,4,-1
 888 1026 l 1,5,-1
 888 873 l 1,6,-1
 418 170 l 1,7,-1
 910 170 l 1,8,-1
 910 0 l 1,9,-1
 122 0 l 1,0,-1
EndSplineSet
EndChar

StartChar: braceleft
Encoding: 123 123 94
Width: 793
GlyphClass: 2
Flags: W
LayerCount: 2
UndoRedoHistory
Layer: 1
Undoes
EndUndoes
Redoes
EndRedoes
EndUndoRedoHistory
Fore
SplineSet
707 -196 m 1,0,1
 640 -196 640 -196 577.5 -185 c 128,-1,2
 515 -174 515 -174 457.5 -149.5 c 128,-1,3
 400 -125 400 -125 358 -89 c 128,-1,4
 316 -53 316 -53 291 1 c 128,-1,5
 266 55 266 55 266 122 c 2,6,-1
 266 299 l 2,7,8
 266 442 266 442 230 508 c 128,-1,9
 194 574 194 574 81 586 c 1,10,-1
 81 768 l 1,11,12
 183 777 183 777 224.5 839.5 c 128,-1,13
 266 902 266 902 266 1024 c 2,14,-1
 266 1190 l 2,15,16
 266 1370 266 1370 386.5 1461 c 128,-1,17
 507 1552 507 1552 707 1552 c 1,18,-1
 707 1384 l 1,19,20
 603 1384 603 1384 559.5 1345.5 c 128,-1,21
 516 1307 516 1307 516 1207 c 2,22,-1
 516 998 l 2,23,24
 516 888 516 888 463.5 803.5 c 128,-1,25
 411 719 411 719 332 677 c 1,26,27
 416 637 416 637 466 554.5 c 128,-1,28
 516 472 516 472 516 360 c 2,29,-1
 516 203 l 2,30,31
 516 136 516 136 522 97.5 c 128,-1,32
 528 59 528 59 547.5 28 c 128,-1,33
 567 -3 567 -3 605.5 -15.5 c 128,-1,34
 644 -28 644 -28 707 -28 c 1,35,-1
 707 -196 l 1,0,1
EndSplineSet
EndChar

StartChar: bar
Encoding: 124 124 95
Width: 616
GlyphClass: 2
Flags: W
LayerCount: 2
UndoRedoHistory
Layer: 1
Undoes
EndUndoes
Redoes
EndRedoes
EndUndoRedoHistory
Fore
SplineSet
192 -126 m 1,0,-1
 192 1570 l 1,1,-1
 424 1570 l 1,2,-1
 424 -126 l 1,3,-1
 192 -126 l 1,0,-1
EndSplineSet
EndChar

StartChar: braceright
Encoding: 125 125 96
Width: 730
GlyphClass: 2
Flags: W
LayerCount: 2
UndoRedoHistory
Layer: 1
Undoes
EndUndoes
Redoes
EndRedoes
EndUndoRedoHistory
Fore
SplineSet
87 -326 m 1,0,-1
 87 -178 l 1,1,2
 203 -178 203 -178 239.5 -119.5 c 128,-1,3
 276 -61 276 -61 276 103 c 2,4,-1
 276 290 l 2,5,6
 276 531 276 531 437 607 c 1,7,8
 360 647 360 647 316 730 c 128,-1,9
 272 813 272 813 272 928 c 2,10,-1
 272 1207 l 2,11,12
 272 1309 272 1309 229 1355 c 128,-1,13
 186 1401 186 1401 87 1404 c 1,14,-1
 87 1552 l 1,15,16
 278 1552 278 1552 372 1464 c 128,-1,17
 466 1376 466 1376 466 1190 c 2,18,-1
 466 954 l 2,19,20
 466 829 466 829 509 758 c 128,-1,21
 552 687 552 687 652 678 c 1,22,-1
 650 536 l 1,23,24
 470 518 470 518 468 335 c 2,25,-1
 466 -8 l 2,26,27
 465 -310 465 -310 87 -326 c 1,0,-1
EndSplineSet
EndChar

StartChar: asciitilde
Encoding: 126 126 97
Width: 1432
GlyphClass: 2
Flags: W
LayerCount: 2
UndoRedoHistory
Layer: 1
Undoes
EndUndoes
Redoes
EndRedoes
EndUndoRedoHistory
Fore
SplineSet
281 667 m 1,0,-1
 134 721 l 1,1,2
 149 813 149 813 185.5 885 c 128,-1,3
 222 957 222 957 273 1000.5 c 128,-1,4
 324 1044 324 1044 385.5 1065 c 128,-1,5
 447 1086 447 1086 513.5 1080 c 128,-1,6
 580 1074 580 1074 645 1043 c 2,7,-1
 884 928 l 2,8,9
 931 905 931 905 970 905 c 128,-1,10
 1009 905 1009 905 1035 919.5 c 128,-1,11
 1061 934 1061 934 1085 968 c 128,-1,12
 1109 1002 1109 1002 1123 1033 c 128,-1,13
 1137 1064 1137 1064 1155 1113 c 1,14,-1
 1302 1067 l 1,15,16
 1280 952 1280 952 1239.5 868 c 128,-1,17
 1199 784 1199 784 1136.5 732 c 128,-1,18
 1074 680 1074 680 992 677.5 c 128,-1,19
 910 675 910 675 805 724 c 1,20,-1
 575 838 l 1,21,22
 513 866 513 866 463.5 863.5 c 128,-1,23
 414 861 414 861 376.5 830.5 c 128,-1,24
 339 800 339 800 315.5 758.5 c 128,-1,25
 292 717 292 717 281 667 c 1,0,-1
EndSplineSet
EndChar

StartChar: cent
Encoding: 162 162 100
Width: 1027
GlyphClass: 2
Flags: W
LayerCount: 2
UndoRedoHistory
Layer: 1
Undoes
EndUndoes
Redoes
EndRedoes
EndUndoRedoHistory
Fore
SplineSet
699 1042 m 1,0,1
 822 1025 822 1025 922 960 c 1,2,-1
 857 798 l 1,3,4
 776 842 776 842 699 856 c 1,5,-1
 699 169 l 1,6,7
 796 183 796 183 879 236 c 1,8,-1
 952 81 l 1,9,10
 837 4 837 4 699 -15 c 1,11,-1
 699 -414 l 1,12,-1
 566 -414 l 1,13,-1
 566 -21 l 1,14,15
 482 -16 482 -16 408 11 c 0,16,17
 318 44 318 44 247.5 108.5 c 128,-1,18
 177 173 177 173 137 278.5 c 128,-1,19
 97 384 97 384 97 519 c 0,20,21
 97 651 97 651 138.5 754.5 c 128,-1,22
 180 858 180 858 251.5 921 c 128,-1,23
 323 984 323 984 414 1016 c 0,24,25
 486 1041 486 1041 566 1047 c 1,26,-1
 566 1366 l 1,27,-1
 699 1366 l 1,28,-1
 699 1042 l 1,0,1
566 856 m 1,29,30
 480 839 480 839 422 773 c 0,31,32
 346 684 346 684 345 520 c 0,33,34
 345 441 345 441 361.5 379 c 128,-1,35
 378 317 378 317 405 277 c 128,-1,36
 432 237 432 237 469.5 211 c 0,37,38
 506 184 506 184 546 174 c 0,39,40
 556 171 556 171 566 170 c 1,41,-1
 566 856 l 1,29,30
EndSplineSet
EndChar

StartChar: sterling
Encoding: 163 163 101
Width: 1310
GlyphClass: 2
Flags: W
LayerCount: 2
UndoRedoHistory
Layer: 1
Undoes
EndUndoes
Redoes
EndRedoes
EndUndoRedoHistory
Fore
SplineSet
182 0 m 1,0,-1
 180 142 l 1,1,2
 261 189 261 189 314 300.5 c 128,-1,3
 367 412 367 412 367 540 c 2,4,-1
 367 675 l 1,5,-1
 180 675 l 1,6,-1
 180 820 l 1,7,-1
 367 820 l 1,8,-1
 367 880 l 2,9,10
 367 991 367 991 380.5 1080 c 128,-1,11
 394 1169 394 1169 425.5 1245 c 128,-1,12
 457 1321 457 1321 507 1372 c 128,-1,13
 557 1423 557 1423 632.5 1451.5 c 128,-1,14
 708 1480 708 1480 807 1480 c 0,15,16
 1001 1480 1001 1480 1131 1378 c 1,17,-1
 1061 1200 l 1,18,19
 944 1272 944 1272 836 1272 c 0,20,21
 737 1272 737 1272 676 1200 c 128,-1,22
 615 1128 615 1128 615 969 c 2,23,-1
 615 820 l 1,24,-1
 953 820 l 1,25,-1
 953 675 l 1,26,-1
 617 675 l 1,27,-1
 617 595 l 2,28,29
 617 254 617 254 477 177 c 1,30,-1
 1130 177 l 1,31,-1
 1130 0 l 1,32,-1
 182 0 l 1,0,-1
EndSplineSet
EndChar

StartChar: currency
Encoding: 164 164 102
Width: 1313
GlyphClass: 2
Flags: W
LayerCount: 2
UndoRedoHistory
Layer: 1
Undoes
EndUndoes
Redoes
EndRedoes
EndUndoRedoHistory
Fore
SplineSet
652 546 m 0,0,1
 788 546 788 546 877.5 638.5 c 128,-1,2
 967 731 967 731 971 879 c 0,3,4
 974 1027 974 1027 885 1125.5 c 128,-1,5
 796 1224 796 1224 661 1227 c 0,6,7
 525 1231 525 1231 429.5 1133 c 128,-1,8
 334 1035 334 1035 334 888 c 0,9,10
 334 739 334 739 425.5 642.5 c 128,-1,11
 517 546 517 546 652 546 c 0,0,1
1123 361 m 1,12,-1
 930 550 l 1,13,14
 833 456 833 456 654 456 c 0,15,16
 485 456 485 456 392 540 c 1,17,-1
 209 343 l 1,18,-1
 167 387 l 1,19,-1
 352 581 l 1,20,21
 229 714 229 714 229 891 c 0,22,23
 229 1050 229 1050 339 1180 c 1,24,-1
 149 1365 l 1,25,-1
 194 1410 l 1,26,-1
 380 1226 l 1,27,28
 485 1330 485 1330 665 1325 c 0,29,30
 832 1320 832 1320 922 1236 c 1,31,-1
 1101 1429 l 1,32,-1
 1149 1384 l 1,33,-1
 963 1191 l 1,34,35
 1083 1056 1083 1056 1079 879 c 1,36,37
 1074 713 1074 713 970 593 c 1,38,-1
 1166 403 l 1,39,-1
 1123 361 l 1,12,-1
EndSplineSet
EndChar

StartChar: yen
Encoding: 165 165 103
Width: 1547
GlyphClass: 2
Flags: W
LayerCount: 2
UndoRedoHistory
Layer: 1
Undoes
EndUndoes
Redoes
EndRedoes
EndUndoRedoHistory
Fore
SplineSet
906 422 m 1,0,-1
 1278 422 l 1,1,-1
 1278 283 l 1,2,-1
 906 283 l 1,3,-1
 906 0 l 1,4,-1
 656 0 l 1,5,-1
 656 283 l 1,6,-1
 273 283 l 1,7,-1
 273 422 l 1,8,-1
 656 422 l 1,9,-1
 656 588 l 1,10,-1
 644 608 l 1,11,-1
 266 608 l 1,12,-1
 266 750 l 1,13,-1
 561 750 l 1,14,-1
 147 1456 l 1,15,-1
 418 1456 l 1,16,-1
 779 814 l 1,17,-1
 1142 1456 l 1,18,-1
 1400 1456 l 1,19,-1
 997 750 l 1,20,-1
 1274 750 l 1,21,-1
 1274 608 l 1,22,-1
 916 608 l 1,23,-1
 906 590 l 1,24,-1
 906 422 l 1,0,-1
EndSplineSet
EndChar

StartChar: brokenbar
Encoding: 166 166 104
Width: 624
GlyphClass: 2
Flags: W
LayerCount: 2
UndoRedoHistory
Layer: 1
Undoes
EndUndoes
Redoes
EndRedoes
EndUndoRedoHistory
Fore
SplineSet
192 772 m 1,0,-1
 192 1526 l 1,1,-1
 432 1526 l 1,2,-1
 432 772 l 1,3,-1
 192 772 l 1,0,-1
192 -277 m 1,4,-1
 192 518 l 1,5,-1
 432 518 l 1,6,-1
 432 -277 l 1,7,-1
 192 -277 l 1,4,-1
EndSplineSet
EndChar

StartChar: section
Encoding: 167 167 105
Width: 1215
GlyphClass: 2
Flags: W
LayerCount: 2
UndoRedoHistory
Layer: 1
Undoes
EndUndoes
Redoes
EndRedoes
EndUndoRedoHistory
Fore
SplineSet
651 501 m 1,0,1
 682 520 682 520 700 532.5 c 128,-1,2
 718 545 718 545 741 566 c 128,-1,3
 764 587 764 587 775.5 610.5 c 128,-1,4
 787 634 787 634 787 660 c 0,5,6
 787 691 787 691 771.5 716 c 128,-1,7
 756 741 756 741 728.5 757.5 c 128,-1,8
 701 774 701 774 674.5 785 c 128,-1,9
 648 796 648 796 613 809 c 128,-1,10
 578 822 578 822 560 831 c 1,11,12
 503 803 503 803 467 767 c 128,-1,13
 431 731 431 731 431 676 c 0,14,15
 431 652 431 652 437 632.5 c 128,-1,16
 443 613 443 613 457 598 c 128,-1,17
 471 583 471 583 484 572 c 128,-1,18
 497 561 497 561 521 550.5 c 128,-1,19
 545 540 545 540 560.5 533.5 c 128,-1,20
 576 527 576 527 606 517 c 128,-1,21
 636 507 636 507 651 501 c 1,0,1
1015 143 m 0,22,23
 1015 46 1015 46 965.5 -25 c 128,-1,24
 916 -96 916 -96 833 -131.5 c 128,-1,25
 750 -167 750 -167 645.5 -177.5 c 128,-1,26
 541 -188 541 -188 427 -171 c 128,-1,27
 313 -154 313 -154 206 -113 c 1,28,-1
 204 106 l 1,29,30
 347 55 347 55 475.5 47.5 c 128,-1,31
 604 40 604 40 677.5 65 c 128,-1,32
 751 90 751 90 768 133 c 0,33,34
 774 148 774 148 774.5 161.5 c 128,-1,35
 775 175 775 175 769.5 186.5 c 128,-1,36
 764 198 764 198 756.5 207.5 c 128,-1,37
 749 217 749 217 734.5 226.5 c 128,-1,38
 720 236 720 236 707.5 243 c 128,-1,39
 695 250 695 250 674 258.5 c 128,-1,40
 653 267 653 267 638 272.5 c 128,-1,41
 623 278 623 278 598.5 287 c 128,-1,42
 574 296 574 296 559 302 c 0,43,44
 383 373 383 373 338 397 c 0,45,46
 229 454 229 454 194 534 c 0,47,48
 172 586 172 586 172 657 c 0,49,50
 172 707 172 707 191 748.5 c 128,-1,51
 210 790 210 790 246 820.5 c 128,-1,52
 282 851 282 851 317 871.5 c 128,-1,53
 352 892 352 892 400 912 c 1,54,55
 312 957 312 957 264.5 1021.5 c 128,-1,56
 217 1086 217 1086 217 1183 c 0,57,58
 217 1260 217 1260 255 1319 c 128,-1,59
 293 1378 293 1378 358 1412 c 128,-1,60
 423 1446 423 1446 502 1463 c 128,-1,61
 581 1480 581 1480 670 1480 c 0,62,63
 720 1480 720 1480 769.5 1473.5 c 128,-1,64
 819 1467 819 1467 851 1459.5 c 128,-1,65
 883 1452 883 1452 943 1436 c 1,66,-1
 943 1236 l 1,67,68
 856 1272 856 1272 747 1281.5 c 128,-1,69
 638 1291 638 1291 556.5 1266.5 c 128,-1,70
 475 1242 475 1242 470 1187 c 0,71,72
 468 1156 468 1156 478.5 1131 c 128,-1,73
 489 1106 489 1106 512 1088.5 c 128,-1,74
 535 1071 535 1071 556.5 1060 c 128,-1,75
 578 1049 578 1049 609 1037 c 0,76,77
 707 1000 707 1000 754 980.5 c 128,-1,78
 801 961 801 961 868.5 925 c 128,-1,79
 936 889 936 889 966 856.5 c 128,-1,80
 996 824 996 824 1019.5 774.5 c 128,-1,81
 1043 725 1043 725 1043 665 c 0,82,83
 1043 615 1043 615 1024 573 c 128,-1,84
 1005 531 1005 531 968.5 498.5 c 128,-1,85
 932 466 932 466 899 445 c 128,-1,86
 866 424 866 424 818 399 c 1,87,88
 1015 314 1015 314 1015 143 c 0,22,23
EndSplineSet
EndChar

StartChar: dieresis
Encoding: 168 168 106
Width: 1140
GlyphClass: 2
Flags: W
AnchorPoint: "Anchor-0" 569 1026 mark 0
LayerCount: 2
UndoRedoHistory
Layer: 1
Undoes
EndUndoes
Redoes
EndRedoes
EndUndoRedoHistory
Fore
SplineSet
693 1304 m 2,0,-1
 693 1345 l 2,1,2
 693 1399 693 1399 731.5 1437.5 c 128,-1,3
 770 1476 770 1476 824 1476 c 128,-1,4
 878 1476 878 1476 916 1437.5 c 128,-1,5
 954 1399 954 1399 954 1345 c 2,6,-1
 954 1304 l 2,7,8
 954 1250 954 1250 916 1212 c 128,-1,9
 878 1174 878 1174 824 1174 c 128,-1,10
 770 1174 770 1174 731.5 1212 c 128,-1,11
 693 1250 693 1250 693 1304 c 2,0,-1
187 1304 m 2,12,-1
 187 1345 l 2,13,14
 187 1399 187 1399 225.5 1437.5 c 128,-1,15
 264 1476 264 1476 318 1476 c 128,-1,16
 372 1476 372 1476 410 1437.5 c 128,-1,17
 448 1399 448 1399 448 1345 c 2,18,-1
 448 1304 l 2,19,20
 448 1250 448 1250 410 1212 c 128,-1,21
 372 1174 372 1174 318 1174 c 128,-1,22
 264 1174 264 1174 225.5 1212 c 128,-1,23
 187 1250 187 1250 187 1304 c 2,12,-1
EndSplineSet
EndChar

StartChar: copyright
Encoding: 169 169 107
Width: 1864
GlyphClass: 2
Flags: W
LayerCount: 2
UndoRedoHistory
Layer: 1
Undoes
EndUndoes
Redoes
EndRedoes
EndUndoRedoHistory
Fore
SplineSet
932 1480 m 128,-1,1
 1084 1480 1084 1480 1223.5 1420 c 128,-1,2
 1363 1360 1363 1360 1464 1259 c 128,-1,3
 1565 1158 1565 1158 1624.5 1018.5 c 128,-1,4
 1684 879 1684 879 1684 727 c 128,-1,5
 1684 575 1684 575 1624 436 c 128,-1,6
 1564 297 1564 297 1463.5 196 c 128,-1,7
 1363 95 1363 95 1223.5 35 c 128,-1,8
 1084 -25 1084 -25 932 -25 c 128,-1,9
 780 -25 780 -25 640.5 35 c 128,-1,10
 501 95 501 95 400.5 196 c 128,-1,11
 300 297 300 297 240 436 c 128,-1,12
 180 575 180 575 180 727 c 128,-1,13
 180 879 180 879 239.5 1018.5 c 128,-1,14
 299 1158 299 1158 400 1259 c 128,-1,15
 501 1360 501 1360 640.5 1420 c 128,-1,0
 780 1480 780 1480 932 1480 c 128,-1,1
931 80 m 0,16,17
 1103 80 1103 80 1248 167.5 c 128,-1,18
 1393 255 1393 255 1476.5 403.5 c 128,-1,19
 1560 552 1560 552 1560 725 c 0,20,21
 1560 899 1560 899 1476.5 1047.5 c 128,-1,22
 1393 1196 1393 1196 1248 1283.5 c 128,-1,23
 1103 1371 1103 1371 931 1371 c 0,24,25
 758 1371 758 1371 613 1283.5 c 128,-1,26
 468 1196 468 1196 384.5 1047.5 c 128,-1,27
 301 899 301 899 301 725 c 0,28,29
 301 552 301 552 384.5 403.5 c 128,-1,30
 468 255 468 255 613 167.5 c 128,-1,31
 758 80 758 80 931 80 c 0,16,17
957 249 m 0,32,33
 849 249 849 249 760 288 c 128,-1,34
 671 327 671 327 612.5 393 c 128,-1,35
 554 459 554 459 522 546 c 128,-1,36
 490 633 490 633 490 729 c 0,37,38
 490 956 490 956 623.5 1082 c 128,-1,39
 757 1208 757 1208 967 1208 c 0,40,41
 1134 1208 1134 1208 1250 1105 c 1,42,-1
 1220 985 l 1,43,44
 1114 1080 1114 1080 961 1080 c 0,45,46
 810 1080 810 1080 726.5 980.5 c 128,-1,47
 643 881 643 881 643 733 c 0,48,49
 643 564 643 564 734.5 472 c 128,-1,50
 826 380 826 380 987 380 c 0,51,52
 1121 380 1121 380 1216 460 c 1,53,-1
 1253 339 l 1,54,55
 1128 249 1128 249 957 249 c 0,32,33
EndSplineSet
EndChar

StartChar: ordfeminine
Encoding: 170 170 108
Width: 1013
GlyphClass: 2
Flags: W
LayerCount: 2
UndoRedoHistory
Layer: 1
Undoes
EndUndoes
Redoes
EndRedoes
EndUndoRedoHistory
Fore
SplineSet
475 757 m 0,0,1
 574 757 574 757 626.5 825.5 c 128,-1,2
 679 894 679 894 685 1008 c 1,3,-1
 685 1037 l 1,4,5
 658 1031 658 1031 603 1027 c 128,-1,6
 548 1023 548 1023 505 1017.5 c 128,-1,7
 462 1012 462 1012 417.5 999.5 c 128,-1,8
 373 987 373 987 348 957 c 128,-1,9
 323 927 323 927 323 881 c 0,10,11
 323 817 323 817 365 787 c 128,-1,12
 407 757 407 757 475 757 c 0,0,1
453 636 m 0,13,14
 359 636 359 636 288.5 674 c 128,-1,15
 218 712 218 712 185 779 c 0,16,17
 163 823 163 823 163 879 c 0,18,19
 163 936 163 936 187 982.5 c 128,-1,20
 211 1029 211 1029 253 1059 c 128,-1,21
 295 1089 295 1089 342.5 1107 c 128,-1,22
 390 1125 390 1125 445 1134 c 0,23,24
 485 1140 485 1140 565 1145 c 128,-1,25
 645 1150 645 1150 685 1156 c 1,26,-1
 685 1166 l 2,27,28
 685 1263 685 1263 650 1302.5 c 128,-1,29
 615 1342 615 1342 528 1342 c 0,30,31
 370 1342 370 1342 295 1231 c 1,32,-1
 216 1319 l 1,33,34
 260 1393 260 1393 342.5 1430.5 c 128,-1,35
 425 1468 425 1468 534 1468 c 0,36,37
 673 1468 673 1468 757 1396 c 128,-1,38
 841 1324 841 1324 841 1184 c 2,39,-1
 839 807 l 2,40,41
 839 752 839 752 847 657 c 1,42,-1
 693 657 l 1,43,-1
 686 743 l 1,44,45
 607 636 607 636 453 636 c 0,13,14
EndSplineSet
EndChar

StartChar: guillemotleft
Encoding: 171 171 109
Width: 1060
GlyphClass: 2
Flags: W
LayerCount: 2
UndoRedoHistory
Layer: 1
Undoes
EndUndoes
Redoes
EndRedoes
EndUndoRedoHistory
Fore
SplineSet
788 301 m 1,0,-1
 499 735 l 1,1,-1
 794 1174 l 1,2,-1
 981 1174 l 1,3,-1
 678 735 l 1,4,-1
 973 301 l 1,5,-1
 788 301 l 1,0,-1
391 301 m 1,6,-1
 82 735 l 1,7,-1
 397 1174 l 1,8,-1
 567 1174 l 1,9,-1
 282 735 l 1,10,-1
 557 301 l 1,11,-1
 391 301 l 1,6,-1
EndSplineSet
EndChar

StartChar: logicalnot
Encoding: 172 172 110
Width: 1535
GlyphClass: 2
Flags: W
LayerCount: 2
UndoRedoHistory
Layer: 1
Undoes
EndUndoes
Redoes
EndRedoes
EndUndoRedoHistory
Fore
SplineSet
1168 419 m 1,0,-1
 1168 913 l 1,1,-1
 189 913 l 1,2,-1
 189 1077 l 1,3,-1
 1344 1077 l 1,4,-1
 1344 419 l 1,5,-1
 1168 419 l 1,0,-1
EndSplineSet
EndChar

StartChar: registered
Encoding: 174 174 111
Width: 2098
GlyphClass: 2
Flags: W
LayerCount: 2
UndoRedoHistory
Layer: 1
Undoes
EndUndoes
Redoes
EndRedoes
EndUndoRedoHistory
Fore
SplineSet
872 819 m 1,0,-1
 1005 819 l 2,1,2
 1045 819 1045 819 1068 819.5 c 128,-1,3
 1091 820 1091 820 1126.5 823 c 128,-1,4
 1162 826 1162 826 1182.5 832 c 128,-1,5
 1203 838 1203 838 1228.5 850 c 128,-1,6
 1254 862 1254 862 1267 878.5 c 128,-1,7
 1280 895 1280 895 1289.5 921 c 128,-1,8
 1299 947 1299 947 1299 980 c 128,-1,9
 1299 1013 1299 1013 1293.5 1038.5 c 128,-1,10
 1288 1064 1288 1064 1275 1082.5 c 128,-1,11
 1262 1101 1262 1101 1249 1114 c 128,-1,12
 1236 1127 1236 1127 1211.5 1135.5 c 128,-1,13
 1187 1144 1187 1144 1169 1148.5 c 128,-1,14
 1151 1153 1151 1153 1117.5 1155 c 128,-1,15
 1084 1157 1084 1157 1063 1157.5 c 128,-1,16
 1042 1158 1042 1158 1003 1158 c 2,17,-1
 871 1158 l 1,18,-1
 872 819 l 1,0,-1
1053 0 m 0,19,20
 1358 0 1358 0 1564 217 c 1,21,22
 1770 430 1770 430 1770 751 c 0,23,24
 1770 917 1770 917 1713.5 1052.5 c 128,-1,25
 1657 1188 1657 1188 1563 1286 c 0,26,27
 1469 1385 1469 1385 1337 1444.5 c 128,-1,28
 1205 1504 1205 1504 1048 1504 c 0,29,30
 892 1504 892 1504 762 1445.5 c 128,-1,31
 632 1387 632 1387 537 1288 c 128,-1,32
 442 1189 442 1189 385 1054 c 128,-1,33
 328 919 328 919 328 754 c 0,34,35
 328 587 328 587 385.5 451 c 128,-1,36
 443 315 443 315 537 217 c 0,37,38
 632 118 632 118 763.5 59 c 128,-1,39
 895 0 895 0 1053 0 c 0,19,20
1053 -138 m 0,40,41
 698 -138 698 -138 444 125 c 0,42,43
 281 295 281 295 213 518 c 1,44,45
 179 634 179 634 179 752 c 0,46,47
 179 1102 179 1102 446 1379 c 0,48,49
 700 1642 700 1642 1048 1642 c 0,50,51
 1399 1642 1399 1642 1653 1377 c 1,52,53
 1819 1202 1819 1202 1885 985 c 1,54,55
 1919 869 1919 869 1919 751 c 0,56,57
 1919 401 1919 401 1653 125 c 1,58,59
 1403 -138 1403 -138 1053 -138 c 0,40,41
718 221 m 1,60,-1
 718 1299 l 1,61,-1
 1007 1299 l 2,62,63
 1241 1299 1241 1299 1352 1222 c 0,64,65
 1464 1144 1464 1144 1464 998 c 0,66,67
 1464 865 1464 865 1386.5 791.5 c 128,-1,68
 1309 718 1309 718 1183 700 c 1,69,70
 1221 660 1221 660 1260.5 603.5 c 128,-1,71
 1300 547 1300 547 1324 506.5 c 128,-1,72
 1348 466 1348 466 1390 391 c 0,73,74
 1446 292 1446 292 1484 221 c 1,75,-1
 1306 221 l 1,76,-1
 1175 469 l 2,77,78
 1135 546 1135 546 1099.5 597.5 c 128,-1,79
 1064 649 1064 649 1020 680 c 1,80,-1
 875 680 l 1,81,-1
 875 221 l 1,82,-1
 718 221 l 1,60,-1
EndSplineSet
EndChar

StartChar: macron
Encoding: 175 175 112
Width: 1038
GlyphClass: 2
Flags: W
AnchorPoint: "Anchor-0" 523 1152 mark 0
LayerCount: 2
UndoRedoHistory
Layer: 1
Undoes
EndUndoes
Redoes
EndRedoes
EndUndoRedoHistory
Fore
SplineSet
192 1313 m 1,0,-1
 192 1470 l 1,1,-1
 846 1470 l 1,2,-1
 846 1313 l 1,3,-1
 192 1313 l 1,0,-1
EndSplineSet
EndChar

StartChar: degree
Encoding: 176 176 113
Width: 1089
GlyphClass: 2
Flags: W
LayerCount: 2
UndoRedoHistory
Layer: 1
Undoes
EndUndoes
Redoes
EndRedoes
EndUndoRedoHistory
Fore
SplineSet
544 778 m 0,0,1
 389 778 389 778 285.5 882.5 c 128,-1,2
 182 987 182 987 182 1126 c 0,3,4
 182 1206 182 1206 214 1272.5 c 128,-1,5
 246 1339 246 1339 298.5 1381 c 128,-1,6
 351 1423 351 1423 414.5 1446 c 128,-1,7
 478 1469 478 1469 544 1469 c 0,8,9
 700 1469 700 1469 803 1366 c 128,-1,10
 906 1263 906 1263 906 1126 c 0,11,12
 906 1045 906 1045 874 977.5 c 128,-1,13
 842 910 842 910 789.5 867.5 c 128,-1,14
 737 825 737 825 673.5 801.5 c 128,-1,15
 610 778 610 778 544 778 c 0,0,1
544 915 m 0,16,17
 636 915 636 915 697.5 978 c 128,-1,18
 759 1041 759 1041 759 1125 c 0,19,20
 759 1222 759 1222 694.5 1277.5 c 128,-1,21
 630 1333 630 1333 544 1333 c 0,22,23
 453 1333 453 1333 391 1271 c 128,-1,24
 329 1209 329 1209 329 1125 c 0,25,26
 329 1026 329 1026 393.5 970.5 c 128,-1,27
 458 915 458 915 544 915 c 0,16,17
EndSplineSet
EndChar

StartChar: plusminus
Encoding: 177 177 114
Width: 1544
GlyphClass: 2
Flags: W
LayerCount: 2
UndoRedoHistory
Layer: 1
Undoes
EndUndoes
Redoes
EndRedoes
EndUndoRedoHistory
Fore
SplineSet
190 0 m 1,0,-1
 190 163 l 1,1,-1
 1354 163 l 1,2,-1
 1354 0 l 1,3,-1
 190 0 l 1,0,-1
686 322 m 1,4,-1
 686 759 l 1,5,-1
 190 759 l 1,6,-1
 190 921 l 1,7,-1
 684 921 l 1,8,-1
 684 1359 l 1,9,-1
 847 1359 l 1,10,-1
 847 921 l 1,11,-1
 1349 921 l 1,12,-1
 1349 759 l 1,13,-1
 852 759 l 1,14,-1
 852 322 l 1,15,-1
 686 322 l 1,4,-1
EndSplineSet
EndChar

StartChar: uni00B2
Encoding: 178 178 115
Width: 956
GlyphClass: 2
Flags: W
LayerCount: 2
UndoRedoHistory
Layer: 1
Undoes
EndUndoes
Redoes
EndRedoes
EndUndoRedoHistory
Fore
SplineSet
201 532 m 1,0,-1
 201 661 l 1,1,-1
 559 1028 l 2,2,3
 640 1110 640 1110 640 1193 c 0,4,5
 640 1254 640 1254 595 1294 c 128,-1,6
 550 1334 550 1334 484 1334 c 0,7,8
 335 1334 335 1334 248 1202 c 1,9,-1
 157 1294 l 1,10,11
 276 1468 276 1468 483 1468 c 0,12,13
 618 1468 618 1468 702 1393 c 128,-1,14
 786 1318 786 1318 786 1206 c 0,15,16
 786 1067 786 1067 658 938 c 2,17,-1
 393 670 l 1,18,-1
 779 670 l 1,19,-1
 779 532 l 1,20,-1
 201 532 l 1,0,-1
EndSplineSet
EndChar

StartChar: uni00B3
Encoding: 179 179 116
Width: 928
GlyphClass: 2
Flags: W
LayerCount: 2
UndoRedoHistory
Layer: 1
Undoes
EndUndoes
Redoes
EndRedoes
EndUndoRedoHistory
Fore
SplineSet
431 476 m 0,0,1
 256 476 256 476 142 590 c 1,2,-1
 212 702 l 1,3,4
 312 611 312 611 425 611 c 0,5,6
 513 611 513 611 571.5 652.5 c 128,-1,7
 630 694 630 694 630 771 c 0,8,9
 630 818 630 818 610 850.5 c 128,-1,10
 590 883 590 883 552.5 899 c 128,-1,11
 515 915 515 915 473.5 921.5 c 128,-1,12
 432 928 432 928 378 928 c 2,13,-1
 342 928 l 1,14,-1
 312 928 l 1,15,-1
 312 1067 l 1,16,-1
 370 1067 l 2,17,18
 419 1067 419 1067 457 1073 c 128,-1,19
 495 1079 495 1079 529.5 1093.5 c 128,-1,20
 564 1108 564 1108 582.5 1137.5 c 128,-1,21
 601 1167 601 1167 601 1209 c 0,22,23
 601 1277 601 1277 556 1308.5 c 128,-1,24
 511 1340 511 1340 435 1340 c 0,25,26
 325 1340 325 1340 210 1249 c 1,27,-1
 142 1361 l 1,28,29
 193 1412 193 1412 272 1446 c 128,-1,30
 351 1480 351 1480 438 1480 c 0,31,32
 540 1480 540 1480 616 1438.5 c 128,-1,33
 692 1397 692 1397 730 1327 c 0,34,35
 757 1278 757 1278 757 1212 c 0,36,37
 757 1067 757 1067 631 1000 c 1,38,39
 782 933 782 933 782 768 c 0,40,41
 782 664 782 664 721 595 c 128,-1,42
 660 526 660 526 566 496 c 0,43,44
 501 476 501 476 431 476 c 0,0,1
EndSplineSet
EndChar

StartChar: paragraph
Encoding: 182 182 118
Width: 1245
GlyphClass: 2
Flags: W
LayerCount: 2
UndoRedoHistory
Layer: 1
Undoes
EndUndoes
Redoes
EndRedoes
EndUndoRedoHistory
Fore
SplineSet
494 -139 m 1,0,-1
 494 748 l 1,1,2
 316 748 316 748 215.5 841.5 c 128,-1,3
 115 935 115 935 115 1102 c 0,4,5
 115 1177 115 1177 137 1235.5 c 128,-1,6
 159 1294 159 1294 201.5 1332 c 128,-1,7
 244 1370 244 1370 295 1395.5 c 128,-1,8
 346 1421 346 1421 415 1434 c 128,-1,9
 484 1447 484 1447 547 1452 c 128,-1,10
 610 1457 610 1457 687 1457 c 2,11,-1
 1141 1457 l 1,12,-1
 1141 1311 l 1,13,-1
 1019 1311 l 1,14,-1
 1019 -139 l 1,15,-1
 867 -139 l 1,16,-1
 867 1311 l 1,17,-1
 646 1311 l 1,18,-1
 646 -139 l 1,19,-1
 494 -139 l 1,0,-1
EndSplineSet
EndChar

StartChar: periodcentered
Encoding: 183 183 119
Width: 639
GlyphClass: 2
Flags: W
LayerCount: 2
UndoRedoHistory
Layer: 1
Undoes
EndUndoes
Redoes
EndRedoes
EndUndoRedoHistory
Fore
SplineSet
192 1025 m 1,0,-1
 192 1272 l 1,1,-1
 447 1272 l 1,2,-1
 447 1025 l 1,3,-1
 192 1025 l 1,0,-1
EndSplineSet
EndChar

StartChar: cedilla
Encoding: 184 184 120
Width: 813
GlyphClass: 2
Flags: W
AnchorPoint: "Anchor-1" 369 0 mark 0
LayerCount: 2
UndoRedoHistory
Layer: 1
Undoes
EndUndoes
Redoes
EndRedoes
EndUndoRedoHistory
Fore
SplineSet
367 -481 m 0,0,1
 284 -481 284 -481 161 -456 c 1,2,-1
 171 -356 l 1,3,4
 287 -384 287 -384 348 -384 c 0,5,6
 482 -384 482 -384 482 -300 c 0,7,8
 482 -251 482 -251 448 -232.5 c 128,-1,9
 414 -214 414 -214 354 -214 c 0,10,11
 330 -214 330 -214 311 -217 c 1,12,-1
 273 -219 l 1,13,-1
 312 4 l 1,14,-1
 425 4 l 1,15,-1
 405 -122 l 1,16,-1
 415 -122 l 1,17,18
 481 -125 481 -125 531 -141.5 c 128,-1,19
 581 -158 581 -158 615.5 -197.5 c 128,-1,20
 650 -237 650 -237 650 -297 c 0,21,22
 650 -364 650 -364 607.5 -407 c 128,-1,23
 565 -450 565 -450 505 -465.5 c 128,-1,24
 445 -481 445 -481 367 -481 c 0,0,1
EndSplineSet
EndChar

StartChar: uni00B9
Encoding: 185 185 121
Width: 765
GlyphClass: 2
Flags: W
LayerCount: 2
UndoRedoHistory
Layer: 1
Undoes
EndUndoes
Redoes
EndRedoes
EndUndoRedoHistory
Fore
SplineSet
354 1520 m 1,0,-1
 491 1520 l 1,1,-1
 491 694 l 1,2,-1
 620 694 l 1,3,-1
 620 572 l 1,4,-1
 188 572 l 1,5,-1
 188 698 l 1,6,-1
 337 698 l 1,7,-1
 336 1376 l 1,8,-1
 175 1298 l 1,9,-1
 175 1424 l 1,10,11
 198 1433 198 1433 223.5 1446 c 128,-1,12
 249 1459 249 1459 266 1469 c 128,-1,13
 283 1479 283 1479 311.5 1495.5 c 128,-1,14
 340 1512 340 1512 354 1520 c 1,0,-1
EndSplineSet
EndChar

StartChar: ordmasculine
Encoding: 186 186 122
Width: 1176
GlyphClass: 2
Flags: W
LayerCount: 2
UndoRedoHistory
Layer: 1
Undoes
EndUndoes
Redoes
EndRedoes
EndUndoRedoHistory
Fore
SplineSet
590 773 m 0,0,1
 700 773 700 773 766 854 c 128,-1,2
 832 935 832 935 832 1061 c 0,3,4
 832 1191 832 1191 766 1272.5 c 128,-1,5
 700 1354 700 1354 587 1354 c 0,6,7
 476 1354 476 1354 411 1273 c 128,-1,8
 346 1192 346 1192 346 1065 c 0,9,10
 346 934 346 934 410.5 853.5 c 128,-1,11
 475 773 475 773 590 773 c 0,0,1
590 647 m 0,12,13
 403 647 403 647 292.5 759.5 c 128,-1,14
 182 872 182 872 182 1066 c 128,-1,15
 182 1260 182 1260 292.5 1370 c 128,-1,16
 403 1480 403 1480 590 1480 c 0,17,18
 774 1480 774 1480 884 1361 c 128,-1,19
 994 1242 994 1242 994 1062 c 0,20,21
 994 867 994 867 884 757 c 128,-1,22
 774 647 774 647 590 647 c 0,12,13
EndSplineSet
EndChar

StartChar: guillemotright
Encoding: 187 187 123
Width: 1091
GlyphClass: 2
Flags: W
LayerCount: 2
UndoRedoHistory
Layer: 1
Undoes
EndUndoes
Redoes
EndRedoes
EndUndoRedoHistory
Fore
SplineSet
274 1174 m 1,0,-1
 566 737 l 1,1,-1
 269 301 l 1,2,-1
 81 301 l 1,3,-1
 386 737 l 1,4,-1
 88 1174 l 1,5,-1
 274 1174 l 1,0,-1
699 1174 m 1,6,-1
 1010 737 l 1,7,-1
 694 301 l 1,8,-1
 526 301 l 1,9,-1
 808 737 l 1,10,-1
 534 1174 l 1,11,-1
 699 1174 l 1,6,-1
EndSplineSet
EndChar

StartChar: onequarter
Encoding: 188 188 124
Width: 1855
GlyphClass: 2
Flags: W
LayerCount: 2
UndoRedoHistory
Layer: 1
Undoes
EndUndoes
Redoes
EndRedoes
EndUndoRedoHistory
Fore
SplineSet
1232 347 m 1,0,-1
 1497 347 l 1,1,-1
 1497 769 l 1,2,-1
 1232 347 l 1,0,-1
1497 0 m 1,3,-1
 1497 221 l 1,4,-1
 1097 221 l 1,5,-1
 1097 328 l 1,6,-1
 1485 936 l 1,7,-1
 1637 936 l 1,8,-1
 1637 347 l 1,9,-1
 1775 347 l 1,10,-1
 1776 221 l 1,11,-1
 1634 221 l 1,12,-1
 1634 0 l 1,13,-1
 1497 0 l 1,3,-1
265 1520 m 1,14,-1
 402 1520 l 1,15,-1
 402 694 l 1,16,-1
 531 694 l 1,17,-1
 531 572 l 1,18,-1
 99 572 l 1,19,-1
 99 698 l 1,20,-1
 248 698 l 1,21,-1
 247 1376 l 1,22,-1
 86 1298 l 1,23,-1
 86 1424 l 1,24,25
 109 1433 109 1433 134.5 1446 c 128,-1,26
 160 1459 160 1459 177 1469 c 128,-1,27
 194 1479 194 1479 222.5 1495.5 c 128,-1,28
 251 1512 251 1512 265 1520 c 1,14,-1
359 0 m 1,29,-1
 1332 1520 l 1,30,-1
 1490 1520 l 1,31,-1
 521 0 l 1,32,-1
 359 0 l 1,29,-1
EndSplineSet
EndChar

StartChar: onehalf
Encoding: 189 189 125
Width: 2109
GlyphClass: 2
Flags: W
LayerCount: 2
UndoRedoHistory
Layer: 1
Undoes
EndUndoes
Redoes
EndRedoes
EndUndoRedoHistory
Fore
SplineSet
1363 0 m 1,0,-1
 1363 129 l 1,1,-1
 1721 496 l 2,2,3
 1802 578 1802 578 1802 661 c 0,4,5
 1802 722 1802 722 1757 762 c 128,-1,6
 1712 802 1712 802 1646 802 c 0,7,8
 1497 802 1497 802 1410 670 c 1,9,-1
 1319 762 l 1,10,11
 1438 936 1438 936 1645 936 c 0,12,13
 1780 936 1780 936 1864 861 c 128,-1,14
 1948 786 1948 786 1948 674 c 0,15,16
 1948 535 1948 535 1820 406 c 2,17,-1
 1555 138 l 1,18,-1
 1941 138 l 1,19,-1
 1941 0 l 1,20,-1
 1363 0 l 1,0,-1
338 1520 m 1,21,-1
 475 1520 l 1,22,-1
 475 694 l 1,23,-1
 604 694 l 1,24,-1
 604 572 l 1,25,-1
 172 572 l 1,26,-1
 172 698 l 1,27,-1
 321 698 l 1,28,-1
 320 1376 l 1,29,-1
 159 1298 l 1,30,-1
 159 1424 l 1,31,32
 182 1433 182 1433 207.5 1446 c 128,-1,33
 233 1459 233 1459 250 1469 c 128,-1,34
 267 1479 267 1479 295.5 1495.5 c 128,-1,35
 324 1512 324 1512 338 1520 c 1,21,-1
432 0 m 1,36,-1
 1405 1520 l 1,37,-1
 1563 1520 l 1,38,-1
 594 0 l 1,39,-1
 432 0 l 1,36,-1
EndSplineSet
EndChar

StartChar: threequarters
Encoding: 190 190 126
Width: 1985
GlyphClass: 2
Flags: W
LayerCount: 2
UndoRedoHistory
Layer: 1
Undoes
EndUndoes
Redoes
EndRedoes
EndUndoRedoHistory
Fore
SplineSet
650 1266 m 0,0,1
 650 1191 650 1191 599.5 1138 c 128,-1,2
 549 1085 549 1085 476 1070 c 1,3,4
 566 1048 566 1048 617.5 987.5 c 128,-1,5
 669 927 669 927 671 837 c 1,6,-1
 671 826 l 2,7,8
 671 756 671 756 646 702 c 128,-1,9
 621 648 621 648 577.5 615.5 c 128,-1,10
 534 583 534 583 480 566.5 c 128,-1,11
 426 550 426 550 365 550 c 0,12,13
 208 550 208 550 89 639 c 1,14,-1
 142 741 l 1,15,16
 187 707 187 707 245.5 687 c 128,-1,17
 304 667 304 667 359 667 c 0,18,19
 436 667 436 667 485 709 c 128,-1,20
 534 751 534 751 534 841 c 0,21,22
 534 1008 534 1008 307 1008 c 2,23,-1
 247 1008 l 1,24,-1
 247 1127 l 1,25,-1
 299 1127 l 2,26,27
 344 1127 344 1127 377.5 1132 c 128,-1,28
 411 1137 411 1137 443 1150.5 c 128,-1,29
 475 1164 475 1164 491.5 1192.5 c 128,-1,30
 508 1221 508 1221 508 1263 c 0,31,32
 508 1337 508 1337 467 1370.5 c 128,-1,33
 426 1404 426 1404 360 1404 c 0,34,35
 298 1404 298 1404 233 1379 c 128,-1,36
 168 1354 168 1354 137 1322 c 1,37,-1
 82 1419 l 1,38,39
 128 1463 128 1463 208.5 1491 c 128,-1,40
 289 1519 289 1519 373 1519 c 0,41,42
 492 1519 492 1519 571 1457.5 c 128,-1,43
 650 1396 650 1396 650 1266 c 0,0,1
1359 347 m 1,44,-1
 1624 347 l 1,45,-1
 1624 769 l 1,46,-1
 1359 347 l 1,44,-1
1624 0 m 1,47,-1
 1624 221 l 1,48,-1
 1224 221 l 1,49,-1
 1224 328 l 1,50,-1
 1612 936 l 1,51,-1
 1764 936 l 1,52,-1
 1764 347 l 1,53,-1
 1902 347 l 1,54,-1
 1903 221 l 1,55,-1
 1761 221 l 1,56,-1
 1761 0 l 1,57,-1
 1624 0 l 1,47,-1
486 0 m 1,58,-1
 1459 1520 l 1,59,-1
 1617 1520 l 1,60,-1
 648 0 l 1,61,-1
 486 0 l 1,58,-1
EndSplineSet
EndChar

StartChar: AE
Encoding: 198 198 134
Width: 2059
GlyphClass: 2
Flags: W
LayerCount: 2
UndoRedoHistory
Layer: 1
Undoes
EndUndoes
Redoes
EndRedoes
EndUndoRedoHistory
Fore
SplineSet
599 562 m 1,0,-1
 1069 562 l 1,1,-1
 1009 1262 l 1,2,-1
 995 1262 l 1,3,-1
 599 562 l 1,0,-1
18 0 m 1,4,-1
 851 1456 l 1,5,-1
 1904 1456 l 1,6,-1
 1904 1262 l 1,7,-1
 1258 1262 l 1,8,-1
 1296 821 l 1,9,-1
 1863 821 l 1,10,-1
 1863 648 l 1,11,-1
 1318 648 l 1,12,-1
 1358 184 l 1,13,-1
 1927 184 l 1,14,-1
 1927 0 l 1,15,-1
 1119 0 l 1,16,-1
 1088 378 l 1,17,-1
 519 378 l 1,18,-1
 306 0 l 1,19,-1
 18 0 l 1,4,-1
EndSplineSet
EndChar

StartChar: multiply
Encoding: 215 215 151
Width: 1254
GlyphClass: 2
Flags: W
LayerCount: 2
UndoRedoHistory
Layer: 1
Undoes
EndUndoes
Redoes
EndRedoes
EndUndoRedoHistory
Fore
SplineSet
300 271 m 1,0,-1
 179 392 l 1,1,-1
 517 741 l 1,2,-1
 179 1090 l 1,3,-1
 300 1211 l 1,4,-1
 627 862 l 1,5,-1
 953 1211 l 1,6,-1
 1075 1089 l 1,7,-1
 736 741 l 1,8,-1
 1075 393 l 1,9,-1
 953 271 l 1,10,-1
 627 619 l 1,11,-1
 300 271 l 1,0,-1
EndSplineSet
EndChar

StartChar: Oslash
Encoding: 216 216 152
Width: 1582
GlyphClass: 2
Flags: W
LayerCount: 2
UndoRedoHistory
Layer: 1
Undoes
EndUndoes
Redoes
EndRedoes
EndUndoRedoHistory
Fore
SplineSet
793 184 m 0,0,1
 980 184 980 184 1095.5 333 c 128,-1,2
 1211 482 1211 482 1210 724 c 1,3,4
 1210 972 1210 972 1095 1122 c 0,5,6
 1087 1132 1087 1132 1080 1141 c 1,7,-1
 669 203 l 1,8,9
 726 184 726 184 793 184 c 0,0,1
453 -291 m 1,10,-1
 311 -239 l 1,11,-1
 445 68 l 1,12,13
 444 69 444 69 442 69 c 0,14,15
 288 162 288 162 202 333 c 128,-1,16
 116 504 116 504 116 726 c 0,17,18
 116 946 116 946 202 1118 c 128,-1,19
 288 1290 288 1290 442.5 1385 c 128,-1,20
 597 1480 597 1480 793 1480 c 0,21,22
 926 1480 926 1480 1040 1437 c 1,23,-1
 1148 1684 l 1,24,-1
 1295 1633 l 1,25,-1
 1178 1365 l 1,26,27
 1311 1273 1311 1273 1389 1118 c 0,28,29
 1476 946 1476 946 1476 726 c 0,30,31
 1476 504 1476 504 1389 333 c 128,-1,32
 1302 162 1302 162 1146.5 69 c 128,-1,33
 991 -24 991 -24 793 -24 c 0,34,35
 681 -24 681 -24 583 6 c 1,36,-1
 453 -291 l 1,10,-1
954 1238 m 1,37,38
 882 1272 882 1272 793 1272 c 0,39,40
 607 1272 607 1272 494.5 1122 c 128,-1,41
 382 972 382 972 382 724 c 0,42,43
 382 480 382 480 494 332 c 0,44,45
 515 305 515 305 538 283 c 1,46,-1
 954 1238 l 1,37,38
EndSplineSet
EndChar

StartChar: Thorn
Encoding: 222 222 158
Width: 1367
GlyphClass: 2
Flags: W
LayerCount: 2
UndoRedoHistory
Layer: 1
Undoes
EndUndoes
Redoes
EndRedoes
EndUndoRedoHistory
Fore
SplineSet
442 650 m 1,0,-1
 675 650 l 2,1,2
 747 650 747 650 796.5 654.5 c 128,-1,3
 846 659 846 659 890.5 671 c 128,-1,4
 935 683 935 683 961.5 705.5 c 128,-1,5
 988 728 988 728 1003 764.5 c 128,-1,6
 1018 801 1018 801 1018 852 c 0,7,8
 1018 888 1018 888 1012.5 917.5 c 128,-1,9
 1007 947 1007 947 998 969.5 c 128,-1,10
 989 992 989 992 972 1009 c 128,-1,11
 955 1026 955 1026 938.5 1037.5 c 128,-1,12
 922 1049 922 1049 894 1057 c 128,-1,13
 866 1065 866 1065 843 1069.5 c 128,-1,14
 820 1074 820 1074 781.5 1076.5 c 128,-1,15
 743 1079 743 1079 713 1079.5 c 128,-1,16
 683 1080 683 1080 636 1080 c 2,17,-1
 442 1080 l 1,18,-1
 442 650 l 1,0,-1
192 0 m 1,19,-1
 192 1456 l 1,20,-1
 442 1456 l 1,21,-1
 442 1270 l 1,22,-1
 632 1270 l 2,23,24
 714 1270 714 1270 779.5 1265.5 c 128,-1,25
 845 1261 845 1261 911 1249.5 c 128,-1,26
 977 1238 977 1238 1027 1218.5 c 128,-1,27
 1077 1199 1077 1199 1121 1167.5 c 128,-1,28
 1165 1136 1165 1136 1193 1093 c 128,-1,29
 1221 1050 1221 1050 1237 990 c 128,-1,30
 1253 930 1253 930 1253 855 c 0,31,32
 1253 759 1253 759 1224.5 688 c 128,-1,33
 1196 617 1196 617 1147.5 573 c 128,-1,34
 1099 529 1099 529 1024 502.5 c 128,-1,35
 949 476 949 476 866.5 466 c 128,-1,36
 784 456 784 456 677 456 c 2,37,-1
 442 456 l 1,38,-1
 442 0 l 1,39,-1
 192 0 l 1,19,-1
EndSplineSet
EndChar

StartChar: germandbls
Encoding: 223 223 159
Width: 1234
GlyphClass: 2
Flags: W
LayerCount: 2
UndoRedoHistory
Layer: 1
Undoes
EndUndoes
Redoes
EndRedoes
EndUndoRedoHistory
Fore
SplineSet
1181 321 m 0,0,1
 1181 235 1181 235 1147 165.5 c 128,-1,2
 1113 96 1113 96 1058.5 54 c 128,-1,3
 1004 12 1004 12 934 -8 c 128,-1,4
 864 -28 864 -28 793.5 -22 c 128,-1,5
 723 -16 723 -16 654.5 17.5 c 128,-1,6
 586 51 586 51 538 109 c 1,7,-1
 575 263 l 1,8,9
 641 191 641 191 728.5 167.5 c 128,-1,10
 816 144 816 144 883 177 c 128,-1,11
 950 210 950 210 960 287 c 0,12,13
 968 347 968 347 948.5 400.5 c 128,-1,14
 929 454 929 454 878 506.5 c 128,-1,15
 827 559 827 559 766 604 c 128,-1,16
 705 649 705 649 607 711 c 0,17,18
 580 728 580 728 568 762.5 c 128,-1,19
 556 797 556 797 569 836 c 128,-1,20
 582 875 582 875 622 897 c 0,21,22
 635 904 635 904 655.5 914.5 c 128,-1,23
 676 925 676 925 687 931.5 c 128,-1,24
 698 938 698 938 715 948 c 128,-1,25
 732 958 732 958 741 965.5 c 128,-1,26
 750 973 750 973 762.5 985 c 128,-1,27
 775 997 775 997 781 1009 c 128,-1,28
 787 1021 787 1021 793.5 1037 c 128,-1,29
 800 1053 800 1053 802.5 1071.5 c 128,-1,30
 805 1090 805 1090 805 1113 c 128,-1,31
 805 1136 805 1136 802 1163 c 0,32,33
 794 1233 794 1233 747.5 1272.5 c 128,-1,34
 701 1312 701 1312 636 1312 c 0,35,36
 537 1312 537 1312 485.5 1242 c 128,-1,37
 434 1172 434 1172 434 1032 c 2,38,-1
 434 0 l 1,39,-1
 192 0 l 1,40,-1
 192 1044 l 2,41,42
 192 1180 192 1180 252 1280.5 c 128,-1,43
 312 1381 312 1381 411.5 1430.5 c 128,-1,44
 511 1480 511 1480 637 1480 c 0,45,46
 823 1480 823 1480 929.5 1392 c 128,-1,47
 1036 1304 1036 1304 1044 1164 c 0,48,49
 1048 1092 1048 1092 1033.5 1037 c 128,-1,50
 1019 982 1019 982 986 942 c 128,-1,51
 953 902 953 902 911.5 874 c 128,-1,52
 870 846 870 846 810 820 c 0,53,54
 798 815 798 815 796.5 803 c 128,-1,55
 795 791 795 791 812 779 c 1,56,57
 963 688 963 688 1003 658 c 0,58,59
 1125 569 1125 569 1161 458 c 0,60,61
 1181 397 1181 397 1181 321 c 0,0,1
EndSplineSet
EndChar

StartChar: ae
Encoding: 230 230 166
Width: 1748
GlyphClass: 2
Flags: W
LayerCount: 2
UndoRedoHistory
Layer: 1
Undoes
EndUndoes
Redoes
EndRedoes
EndUndoRedoHistory
Fore
SplineSet
1393 758 m 0,0,1
 1393 807 1393 807 1359.5 837 c 128,-1,2
 1326 867 1326 867 1268 867 c 0,3,4
 1196 867 1196 867 1135.5 819 c 128,-1,5
 1075 771 1075 771 1043 704 c 128,-1,6
 1011 637 1011 637 1007 571 c 1,7,8
 1230 597 1230 597 1311.5 635.5 c 128,-1,9
 1393 674 1393 674 1393 758 c 0,0,1
772 418 m 1,10,11
 689 416 689 416 635.5 413.5 c 128,-1,12
 582 411 582 411 527.5 404.5 c 128,-1,13
 473 398 473 398 442 387.5 c 128,-1,14
 411 377 411 377 384.5 360 c 128,-1,15
 358 343 358 343 347.5 318.5 c 128,-1,16
 337 294 337 294 337 260 c 0,17,18
 337 203 337 203 378 172.5 c 128,-1,19
 419 142 419 142 482 142 c 0,20,21
 531 142 531 142 581 160.5 c 128,-1,22
 631 179 631 179 674 212 c 128,-1,23
 717 245 717 245 744.5 299.5 c 128,-1,24
 772 354 772 354 772 418 c 1,10,11
1684 100 m 1,25,26
 1544 -22 1544 -22 1294 -22 c 0,27,28
 1167 -22 1167 -22 1061 25 c 128,-1,29
 955 72 955 72 884 160 c 1,30,31
 738 -22 738 -22 468 -22 c 0,32,33
 314 -22 314 -22 222 52 c 128,-1,34
 130 126 130 126 130 263 c 0,35,36
 130 323 130 323 151 370 c 128,-1,37
 172 417 172 417 204.5 448 c 128,-1,38
 237 479 237 479 290.5 501 c 128,-1,39
 344 523 344 523 393.5 535 c 128,-1,40
 443 547 443 547 515.5 553.5 c 128,-1,41
 588 560 588 560 641 561.5 c 128,-1,42
 694 563 694 563 770 563 c 1,43,-1
 770 626 l 2,44,45
 770 748 770 748 705 805 c 128,-1,46
 640 862 640 862 539 862 c 0,47,48
 465 862 465 862 390 834.5 c 128,-1,49
 315 807 315 807 262 763 c 1,50,-1
 172 924 l 1,51,52
 254 984 254 984 357 1017.5 c 128,-1,53
 460 1051 460 1051 561 1051 c 0,54,55
 679 1051 679 1051 771.5 1002.5 c 128,-1,56
 864 954 864 954 909 857 c 1,57,58
 976 951 976 951 1071 999.5 c 128,-1,59
 1166 1048 1166 1048 1279 1048 c 0,60,61
 1440 1048 1440 1048 1533.5 968 c 128,-1,62
 1627 888 1627 888 1627 763 c 2,63,-1
 1627 750 l 1,64,65
 1621 610 1621 610 1476 533 c 128,-1,66
 1331 456 1331 456 1015 429 c 1,67,68
 1022 364 1022 364 1051 312 c 128,-1,69
 1080 260 1080 260 1124 228.5 c 128,-1,70
 1168 197 1168 197 1219.5 180.5 c 128,-1,71
 1271 164 1271 164 1325 164 c 0,72,73
 1466 164 1466 164 1596 259 c 1,74,-1
 1684 100 l 1,25,26
EndSplineSet
EndChar

StartChar: eth
Encoding: 240 240 176
Width: 2022
GlyphClass: 2
Flags: W
LayerCount: 2
UndoRedoHistory
Layer: 1
Undoes
EndUndoes
Redoes
EndRedoes
EndUndoRedoHistory
Fore
SplineSet
700 126 m 0,0,1
 815 126 815 126 895 188 c 128,-1,2
 975 250 975 250 1012 352 c 128,-1,3
 1049 454 1049 454 1049 588 c 2,4,-1
 1049 616 l 1,5,6
 1012 733 1012 733 920.5 804 c 128,-1,7
 829 875 829 875 698 875 c 0,8,9
 541 875 541 875 456.5 777.5 c 128,-1,10
 372 680 372 680 372 504 c 0,11,12
 372 376 372 376 424 285.5 c 128,-1,13
 476 195 476 195 564 153 c 0,14,15
 622 126 622 126 700 126 c 0,0,1
708 -40 m 0,16,17
 527 -40 527 -40 396 50 c 128,-1,18
 265 140 265 140 205 293 c 1,19,20
 165 387 165 387 165 510 c 0,21,22
 165 692 165 692 248.5 817.5 c 128,-1,23
 332 943 332 943 470 1001 c 1,24,25
 560 1040 560 1040 669 1040 c 0,26,27
 948 1040 948 1040 1064 836 c 1,28,-1
 1064 847 l 1,29,30
 1063 1043 1063 1043 1027 1191 c 1,31,-1
 749 1191 l 1,32,-1
 749 1352 l 1,33,-1
 968 1352 l 1,34,35
 881 1526 881 1526 701 1637 c 1,36,-1
 784 1736 l 1,37,38
 1022 1633 1022 1633 1146 1352 c 1,39,-1
 1377 1352 l 1,40,-1
 1377 1191 l 1,41,-1
 1207 1191 l 1,42,43
 1263 994 1263 994 1263 776 c 0,44,45
 1263 494 1263 494 1181.5 296 c 128,-1,46
 1100 98 1100 98 937 12 c 1,47,48
 833 -40 833 -40 708 -40 c 0,16,17
EndSplineSet
EndChar

StartChar: divide
Encoding: 247 247 183
Width: 2504
GlyphClass: 2
Flags: W
LayerCount: 2
UndoRedoHistory
Layer: 1
Undoes
EndUndoes
Redoes
EndRedoes
EndUndoRedoHistory
Fore
SplineSet
830 37 m 1,0,-1
 830 284 l 1,1,-1
 1059 284 l 1,2,-1
 1059 37 l 1,3,-1
 830 37 l 1,0,-1
359 581 m 1,4,-1
 359 745 l 1,5,-1
 1518 745 l 1,6,-1
 1518 581 l 1,7,-1
 359 581 l 1,4,-1
830 1037 m 1,8,-1
 830 1284 l 1,9,-1
 1059 1284 l 1,10,-1
 1059 1037 l 1,11,-1
 830 1037 l 1,8,-1
EndSplineSet
EndChar

StartChar: oslash
Encoding: 248 248 184
Width: 2136
GlyphClass: 2
Flags: W
LayerCount: 2
UndoRedoHistory
Layer: 1
Undoes
EndUndoes
Redoes
EndRedoes
EndUndoRedoHistory
Fore
SplineSet
619 164 m 0,0,1
 743 164 743 164 805.5 256 c 128,-1,2
 868 348 868 348 868 512 c 0,3,4
 868 678 868 678 805 770 c 0,5,6
 800 778 800 778 794 785 c 1,7,-1
 545 173 l 1,8,9
 579 164 579 164 619 164 c 0,0,1
397 -191 m 1,10,-1
 292 -153 l 1,11,-1
 367 36 l 1,12,13
 304 70 304 70 254 124 c 0,14,15
 122 270 122 270 122 512 c 128,-1,16
 122 754 122 754 254 901 c 128,-1,17
 386 1048 386 1048 616 1048 c 0,18,19
 694 1048 694 1048 760 1032 c 1,20,-1
 840 1233 l 1,21,-1
 961 1196 l 1,22,-1
 876 987 l 1,23,24
 934 954 934 954 982 902 c 0,25,26
 1116 756 1116 756 1116 513 c 0,27,28
 1116 271 1116 271 983 124.5 c 128,-1,29
 850 -22 850 -22 617 -22 c 0,30,31
 539 -22 539 -22 473 -5 c 1,32,-1
 397 -191 l 1,10,-1
690 853 m 1,33,34
 657 862 657 862 617 862 c 0,35,36
 492 862 492 862 431 769.5 c 128,-1,37
 370 677 370 677 370 512 c 0,38,39
 370 348 370 348 432 256 c 0,40,41
 439 246 439 246 446 237 c 1,42,-1
 690 853 l 1,33,34
EndSplineSet
EndChar

StartChar: thorn
Encoding: 254 254 190
Width: 2116
GlyphClass: 2
Flags: W
LayerCount: 2
UndoRedoHistory
Layer: 1
Undoes
EndUndoes
Redoes
EndRedoes
EndUndoRedoHistory
Fore
SplineSet
822 -123 m 0,0,1
 909 -123 909 -123 975.5 -85 c 128,-1,2
 1042 -47 1042 -47 1082 20.5 c 128,-1,3
 1122 88 1122 88 1141.5 173.5 c 128,-1,4
 1161 259 1161 259 1161 361 c 128,-1,5
 1161 463 1161 463 1142.5 545.5 c 128,-1,6
 1124 628 1124 628 1085 692 c 128,-1,7
 1046 756 1046 756 981 791 c 128,-1,8
 916 826 916 826 829 826 c 0,9,10
 755 826 755 826 696 801 c 128,-1,11
 637 776 637 776 597.5 732 c 128,-1,12
 558 688 558 688 531.5 625 c 128,-1,13
 505 562 505 562 493.5 488.5 c 128,-1,14
 482 415 482 415 482 329 c 0,15,16
 482 177 482 177 532 69 c 128,-1,17
 582 -39 582 -39 676 -89 c 0,18,19
 741 -123 741 -123 822 -123 c 0,0,1
289 -752 m 1,20,-1
 289 1458 l 1,21,-1
 485 1458 l 1,22,-1
 485 785 l 1,23,24
 619 983 619 983 848 983 c 0,25,26
 1034 983 1034 983 1158 880.5 c 128,-1,27
 1282 778 1282 778 1333 605 c 0,28,29
 1367 488 1367 488 1367 368 c 0,30,31
 1367 159 1367 159 1286.5 5 c 128,-1,32
 1206 -149 1206 -149 1066 -224 c 1,33,34
 970 -278 970 -278 848 -278 c 0,35,36
 618 -278 618 -278 482 -92 c 1,37,-1
 482 -752 l 1,38,-1
 289 -752 l 1,20,-1
EndSplineSet
EndChar

StartChar: hbar
Encoding: 295 295 213
Width: 1238
GlyphClass: 2
Flags: W
LayerCount: 2
UndoRedoHistory
Layer: 1
Undoes
EndUndoes
Redoes
EndRedoes
EndUndoRedoHistory
Fore
SplineSet
1200 -16 m 1,0,-1
 1155 -16 l 2,1,2
 983 -16 983 -16 908.5 60.5 c 128,-1,3
 834 137 834 137 834 298 c 2,4,-1
 834 606 l 2,5,6
 834 725 834 725 786.5 793.5 c 128,-1,7
 739 862 739 862 646 862 c 0,8,9
 569 862 569 862 515.5 818.5 c 128,-1,10
 462 775 462 775 440 713 c 128,-1,11
 418 651 418 651 418 577 c 2,12,-1
 418 0 l 1,13,-1
 176 0 l 1,14,-1
 176 1154 l 1,15,-1
 34 1154 l 1,16,-1
 34 1311 l 1,17,-1
 176 1311 l 1,18,-1
 176 1480 l 1,19,-1
 418 1480 l 1,20,-1
 418 1311 l 1,21,-1
 769 1311 l 1,22,-1
 769 1154 l 1,23,-1
 418 1154 l 1,24,-1
 418 919 l 1,25,26
 518 1048 518 1048 704 1048 c 0,27,28
 874 1048 874 1048 975 928.5 c 128,-1,29
 1076 809 1076 809 1076 608 c 2,30,-1
 1076 352 l 2,31,32
 1076 254 1076 254 1104.5 215.5 c 128,-1,33
 1133 177 1133 177 1212 177 c 2,34,-1
 1234 177 l 1,35,-1
 1200 -16 l 1,0,-1
EndSplineSet
EndChar

StartChar: dotlessi
Encoding: 305 305 220
Width: 731
GlyphClass: 2
Flags: W
AnchorPoint: "Anchor-0" 313 1023 basechar 0
LayerCount: 2
UndoRedoHistory
Layer: 1
Undoes
EndUndoes
Redoes
EndRedoes
EndUndoRedoHistory
Fore
SplineSet
747 33 m 1,0,1
 646 -7 646 -7 551 -13.5 c 128,-1,2
 456 -20 456 -20 375.5 9.5 c 128,-1,3
 295 39 295 39 246 123 c 128,-1,4
 197 207 197 207 197 337 c 2,5,-1
 197 1026 l 1,6,-1
 439 1026 l 1,7,-1
 439 334 l 2,8,9
 439 282 439 282 452 248.5 c 128,-1,10
 465 215 465 215 487 198 c 128,-1,11
 509 181 509 181 545 178 c 128,-1,12
 581 175 581 175 621 181.5 c 128,-1,13
 661 188 661 188 716 203 c 1,14,-1
 747 33 l 1,0,1
EndSplineSet
EndChar

StartChar: kgreenlandic
Encoding: 312 312 226
Width: 1855
GlyphClass: 2
Flags: W
LayerCount: 2
UndoRedoHistory
Layer: 1
Undoes
EndUndoes
Redoes
EndRedoes
EndUndoRedoHistory
Fore
SplineSet
324 0 m 1,0,-1
 324 1205 l 1,1,-1
 517 1205 l 1,2,-1
 517 654 l 1,3,-1
 1011 1205 l 1,4,-1
 1271 1205 l 1,5,-1
 689 601 l 1,6,7
 986 300 986 300 1315 0 c 1,8,-1
 1058 0 l 1,9,-1
 517 553 l 1,10,-1
 517 0 l 1,11,-1
 324 0 l 1,0,-1
EndSplineSet
EndChar

StartChar: Lslash
Encoding: 321 321 229
Width: 1982
GlyphClass: 2
Flags: W
LayerCount: 2
UndoRedoHistory
Layer: 1
Undoes
EndUndoes
Redoes
EndRedoes
EndUndoRedoHistory
Fore
SplineSet
256 0 m 1,0,-1
 256 710 l 1,1,-1
 37 574 l 1,2,-1
 37 735 l 1,3,-1
 256 871 l 1,4,-1
 256 1710 l 1,5,-1
 458 1710 l 1,6,-1
 458 997 l 1,7,-1
 793 1206 l 1,8,-1
 793 1045 l 1,9,-1
 458 836 l 1,10,-1
 458 174 l 1,11,-1
 1279 174 l 1,12,-1
 1279 0 l 1,13,-1
 256 0 l 1,0,-1
EndSplineSet
EndChar

StartChar: lslash
Encoding: 322 322 230
Width: 895
GlyphClass: 2
Flags: W
LayerCount: 2
UndoRedoHistory
Layer: 1
Undoes
EndUndoes
Redoes
EndRedoes
EndUndoRedoHistory
Fore
SplineSet
207 0 m 1,0,-1
 207 809 l 1,1,-1
 10 691 l 1,2,-1
 10 852 l 1,3,-1
 207 970 l 1,4,-1
 207 1752 l 1,5,-1
 401 1752 l 1,6,-1
 401 1086 l 1,7,-1
 602 1206 l 1,8,-1
 602 1045 l 1,9,-1
 401 925 l 1,10,-1
 401 0 l 1,11,-1
 207 0 l 1,0,-1
EndSplineSet
EndChar

StartChar: OE
Encoding: 338 338 236
Width: 3537
GlyphClass: 2
Flags: W
LayerCount: 2
UndoRedoHistory
Layer: 1
Undoes
EndUndoes
Redoes
EndRedoes
EndUndoRedoHistory
Fore
SplineSet
988 133 m 0,0,1
 1189 133 1189 133 1331 298 c 1,2,-1
 1331 1418 l 1,3,4
 1190 1554 1190 1554 990 1554 c 0,5,6
 726 1554 726 1554 570 1338 c 0,7,8
 426 1139 426 1139 426 838 c 0,9,10
 426 601 426 601 509 433.5 c 128,-1,11
 592 266 592 266 744 188 c 0,12,13
 851 133 851 133 988 133 c 0,0,1
990 -40 m 0,14,15
 718 -40 718 -40 535.5 97.5 c 128,-1,16
 353 235 353 235 268 477 c 1,17,18
 210 639 210 639 210 843 c 0,19,20
 210 1143 210 1143 336.5 1353 c 128,-1,21
 463 1563 463 1563 674 1661 c 1,22,23
 815 1728 815 1728 997 1728 c 0,24,25
 1177 1728 1177 1728 1331 1608 c 1,26,-1
 1331 1696 l 1,27,-1
 2203 1696 l 1,28,-1
 2203 1522 l 1,29,-1
 1513 1522 l 1,30,-1
 1513 949 l 1,31,-1
 2158 949 l 1,32,-1
 2158 776 l 1,33,-1
 1513 776 l 1,34,-1
 1513 160 l 1,35,-1
 2237 160 l 1,36,-1
 2237 -14 l 1,37,-1
 1331 -14 l 1,38,-1
 1331 110 l 1,39,40
 1181 -40 1181 -40 990 -40 c 0,14,15
EndSplineSet
EndChar

StartChar: oe
Encoding: 339 339 237
Width: 3363
GlyphClass: 2
Flags: W
LayerCount: 2
UndoRedoHistory
Layer: 1
Undoes
EndUndoes
Redoes
EndRedoes
EndUndoRedoHistory
Fore
SplineSet
1293 698 m 1,0,-1
 1910 698 l 1,1,2
 1910 866 1910 866 1837 963 c 128,-1,3
 1764 1060 1764 1060 1621 1060 c 0,4,5
 1512 1060 1512 1060 1435 997.5 c 128,-1,6
 1358 935 1358 935 1321 835 c 1,7,8
 1299 771 1299 771 1293 698 c 1,0,-1
752 112 m 0,9,10
 839 112 839 112 906 148.5 c 128,-1,11
 973 185 973 185 1014 250 c 128,-1,12
 1055 315 1055 315 1075.5 399 c 128,-1,13
 1096 483 1096 483 1096 584 c 0,14,15
 1096 801 1096 801 1008.5 930.5 c 128,-1,16
 921 1060 921 1060 743 1060 c 0,17,18
 608 1060 608 1060 521.5 977 c 128,-1,19
 435 894 435 894 399 762 c 0,20,21
 376 679 376 679 376 579 c 0,22,23
 376 423 376 423 430.5 312.5 c 128,-1,24
 485 202 485 202 584 150 c 0,25,26
 655 112 655 112 752 112 c 0,9,10
741 -49 m 0,27,28
 546 -49 546 -49 411 55 c 128,-1,29
 276 159 276 159 213 335 c 0,30,31
 172 452 172 452 172 581 c 0,32,33
 172 794 172 794 266 946 c 128,-1,34
 360 1098 360 1098 514 1170 c 1,35,36
 617 1220 617 1220 752 1220 c 0,37,38
 912 1220 912 1220 1017 1150.5 c 128,-1,39
 1122 1081 1122 1081 1192 948 c 1,40,41
 1322 1220 1322 1220 1615 1220 c 0,42,43
 1856 1220 1856 1220 1984.5 1051 c 128,-1,44
 2113 882 2113 882 2113 600 c 2,45,-1
 2113 538 l 1,46,-1
 1293 536 l 1,47,-1
 1293 513 l 1,48,49
 1297 378 1297 378 1351 282 c 128,-1,50
 1405 186 1405 186 1501 142 c 0,51,52
 1568 112 1568 112 1655 112 c 0,53,54
 1782 112 1782 112 1880 171.5 c 128,-1,55
 1978 231 1978 231 2038 327 c 1,56,-1
 2141 225 l 1,57,58
 2069 95 2069 95 1943.5 23 c 128,-1,59
 1818 -49 1818 -49 1642 -49 c 0,60,61
 1472 -49 1472 -49 1356.5 24 c 128,-1,62
 1241 97 1241 97 1186 229 c 1,63,64
 1132 94 1132 94 1019.5 22.5 c 128,-1,65
 907 -49 907 -49 741 -49 c 0,27,28
EndSplineSet
EndChar

StartChar: florin
Encoding: 402 402 260
Width: 2044
GlyphClass: 2
Flags: W
LayerCount: 2
UndoRedoHistory
Layer: 1
Undoes
EndUndoes
Redoes
EndRedoes
EndUndoRedoHistory
Fore
SplineSet
260 -585 m 0,0,1
 203 -585 203 -585 139 -566 c 1,2,-1
 153 -404 l 1,3,4
 197 -422 197 -422 245 -422 c 0,5,6
 283 -422 283 -422 313.5 -407 c 128,-1,7
 344 -392 344 -392 363.5 -370.5 c 128,-1,8
 383 -349 383 -349 398.5 -315.5 c 128,-1,9
 414 -282 414 -282 422.5 -253.5 c 128,-1,10
 431 -225 431 -225 439 -187 c 0,11,12
 469 -55 469 -55 496 100.5 c 128,-1,13
 523 256 523 256 553.5 451 c 128,-1,14
 584 646 584 646 602 748 c 1,15,-1
 437 748 l 1,16,-1
 448 912 l 1,17,-1
 627 912 l 1,18,-1
 651 1090 l 1,19,20
 662 1181 662 1181 685 1250 c 128,-1,21
 708 1319 708 1319 749 1375 c 128,-1,22
 790 1431 790 1431 856 1461 c 128,-1,23
 922 1491 922 1491 1010 1491 c 0,24,25
 1089 1491 1089 1491 1177 1469 c 1,26,-1
 1168 1299 l 1,27,28
 1103 1324 1103 1324 1041 1324 c 0,29,30
 947 1324 947 1324 904.5 1280 c 128,-1,31
 862 1236 862 1236 846 1143 c 2,32,-1
 808 912 l 1,33,-1
 1029 912 l 1,34,-1
 1018 748 l 1,35,-1
 784 748 l 1,36,-1
 649 -54 l 2,37,38
 633 -146 633 -146 619 -205.5 c 128,-1,39
 605 -265 605 -265 580.5 -336.5 c 128,-1,40
 556 -408 556 -408 520 -458.5 c 128,-1,41
 484 -509 484 -509 436 -541 c 0,42,43
 372 -585 372 -585 260 -585 c 0,0,1
EndSplineSet
EndChar

StartChar: dotlessj
Encoding: 567 567 289
Width: 895
GlyphClass: 2
Flags: W
AnchorPoint: "Anchor-0" 259 1152 basechar 0
LayerCount: 2
UndoRedoHistory
Layer: 1
Undoes
EndUndoes
Redoes
EndRedoes
EndUndoRedoHistory
Fore
SplineSet
-25 -756 m 0,0,1
 -97 -756 -97 -756 -169 -740 c 1,2,-1
 -170 -573 l 1,3,4
 -86 -585 -86 -585 -71 -585 c 0,5,6
 -5 -585 -5 -585 41 -557.5 c 128,-1,7
 87 -530 87 -530 111 -477 c 128,-1,8
 135 -424 135 -424 145 -361.5 c 128,-1,9
 155 -299 155 -299 155 -216 c 2,10,-1
 155 953 l 1,11,-1
 349 953 l 1,12,-1
 349 -166 l 2,13,14
 349 -270 349 -270 337.5 -354.5 c 128,-1,15
 326 -439 326 -439 300.5 -515 c 128,-1,16
 275 -591 275 -591 228 -646 c 128,-1,17
 181 -701 181 -701 115 -730 c 0,18,19
 54 -756 54 -756 -25 -756 c 0,0,1
EndSplineSet
EndChar

StartChar: circumflex
Encoding: 710 710 290
Width: 1212
GlyphClass: 2
Flags: W
AnchorPoint: "Anchor-0" 604 1036 mark 0
LayerCount: 2
UndoRedoHistory
Layer: 1
Undoes
EndUndoes
Redoes
EndRedoes
EndUndoRedoHistory
Fore
SplineSet
514 1509 m 1,0,-1
 680 1509 l 1,1,-1
 968 1128 l 1,2,-1
 742 1128 l 1,3,-1
 597 1312 l 1,4,-1
 445 1128 l 1,5,-1
 227 1128 l 1,6,-1
 514 1509 l 1,0,-1
EndSplineSet
EndChar

StartChar: caron
Encoding: 711 711 291
Width: 1215
GlyphClass: 2
Flags: W
LayerCount: 2
UndoRedoHistory
Layer: 1
Undoes
EndUndoes
Redoes
EndRedoes
EndUndoRedoHistory
Fore
SplineSet
339 2061 m 1,0,-1
 61 2440 l 1,1,-1
 234 2440 l 1,2,-1
 414 2187 l 1,3,-1
 598 2440 l 1,4,-1
 780 2440 l 1,5,-1
 503 2061 l 1,6,-1
 339 2061 l 1,0,-1
EndSplineSet
EndChar

StartChar: breve
Encoding: 728 728 292
Width: 1106
GlyphClass: 2
Flags: W
AnchorPoint: "Anchor-0" 573 1046 mark 0
LayerCount: 2
UndoRedoHistory
Layer: 1
Undoes
EndUndoes
Redoes
EndRedoes
EndUndoRedoHistory
Fore
SplineSet
570 1153 m 0,0,1
 422 1153 422 1153 337.5 1222.5 c 128,-1,2
 253 1292 253 1292 242 1431 c 1,3,-1
 344 1431 l 1,4,5
 356 1356 356 1356 414.5 1317.5 c 128,-1,6
 473 1279 473 1279 562 1279 c 0,7,8
 650 1279 650 1279 712.5 1318.5 c 128,-1,9
 775 1358 775 1358 792 1431 c 1,10,-1
 894 1431 l 1,11,12
 883 1296 883 1296 798.5 1224.5 c 128,-1,13
 714 1153 714 1153 570 1153 c 0,0,1
EndSplineSet
EndChar

StartChar: dotaccent
Encoding: 729 729 293
Width: 932
GlyphClass: 2
Flags: W
AnchorPoint: "Anchor-0" 315 1030 mark 0
LayerCount: 2
UndoRedoHistory
Layer: 1
Undoes
EndUndoes
Redoes
EndRedoes
EndUndoRedoHistory
Fore
SplineSet
334 2195 m 1,0,-1
 334 2386 l 1,1,-1
 523 2386 l 1,2,-1
 523 2195 l 1,3,-1
 334 2195 l 1,0,-1
EndSplineSet
EndChar

StartChar: ring
Encoding: 730 730 294
Width: 1075
GlyphClass: 2
Flags: W
AnchorPoint: "Anchor-0" 524 1034 mark 0
LayerCount: 2
UndoRedoHistory
Layer: 1
Undoes
EndUndoes
Redoes
EndRedoes
EndUndoRedoHistory
Fore
SplineSet
526 1129 m 0,0,1
 412 1129 412 1129 345 1196 c 128,-1,2
 278 1263 278 1263 278 1351 c 0,3,4
 278 1425 278 1425 318.5 1478 c 128,-1,5
 359 1531 359 1531 413.5 1553.5 c 128,-1,6
 468 1576 468 1576 525 1576 c 0,7,8
 637 1576 637 1576 704 1508 c 128,-1,9
 771 1440 771 1440 771 1353 c 0,10,11
 771 1298 771 1298 747 1253.5 c 128,-1,12
 723 1209 723 1209 686 1183 c 128,-1,13
 649 1157 649 1157 607.5 1143 c 128,-1,14
 566 1129 566 1129 526 1129 c 0,0,1
523 1229 m 0,15,16
 577 1229 577 1229 615.5 1264.5 c 128,-1,17
 654 1300 654 1300 654 1353 c 128,-1,18
 654 1406 654 1406 616 1441 c 128,-1,19
 578 1476 578 1476 523 1476 c 0,20,21
 469 1476 469 1476 431.5 1441 c 128,-1,22
 394 1406 394 1406 394 1353 c 0,23,24
 394 1297 394 1297 429.5 1263 c 128,-1,25
 465 1229 465 1229 523 1229 c 0,15,16
EndSplineSet
EndChar

StartChar: ogonek
Encoding: 731 731 295
Width: 904
GlyphClass: 2
Flags: W
AnchorPoint: "Anchor-2" 544 0 mark 0
LayerCount: 2
UndoRedoHistory
Layer: 1
Undoes
EndUndoes
Redoes
EndRedoes
EndUndoRedoHistory
Fore
SplineSet
452 -458 m 0,0,1
 360 -458 360 -458 287.5 -411.5 c 128,-1,2
 215 -365 215 -365 215 -283 c 0,3,4
 215 -196 215 -196 278.5 -112.5 c 128,-1,5
 342 -29 342 -29 468 14 c 1,6,-1
 619 0 l 1,7,8
 559 -20 559 -20 513 -49.5 c 128,-1,9
 467 -79 467 -79 443 -107 c 128,-1,10
 419 -135 419 -135 404 -164 c 128,-1,11
 389 -193 389 -193 385 -209 c 128,-1,12
 381 -225 381 -225 381 -234 c 0,13,14
 381 -279 381 -279 407 -304 c 128,-1,15
 433 -329 433 -329 478 -329 c 0,16,17
 505 -329 505 -329 526 -326 c 128,-1,18
 547 -323 547 -323 555.5 -320 c 128,-1,19
 564 -317 564 -317 586.5 -307.5 c 128,-1,20
 609 -298 609 -298 619 -294 c 1,21,-1
 619 -424 l 1,22,23
 537 -458 537 -458 452 -458 c 0,0,1
EndSplineSet
EndChar

StartChar: tilde
Encoding: 732 732 296
Width: 1151
GlyphClass: 2
Flags: W
AnchorPoint: "Anchor-0" 582 1020 mark 0
LayerCount: 2
UndoRedoHistory
Layer: 1
Undoes
EndUndoes
Redoes
EndRedoes
EndUndoRedoHistory
Fore
SplineSet
233 1182 m 1,0,1
 242 1290 242 1290 302 1359.5 c 128,-1,2
 362 1429 362 1429 466 1429 c 0,3,4
 503 1429 503 1429 536.5 1419 c 128,-1,5
 570 1409 570 1409 612.5 1388 c 128,-1,6
 655 1367 655 1367 669 1362 c 0,7,8
 699 1349 699 1349 734 1349 c 0,9,10
 778 1349 778 1349 804 1378 c 128,-1,11
 830 1407 830 1407 836 1455 c 1,12,-1
 963 1455 l 1,13,14
 951 1345 951 1345 893.5 1273.5 c 128,-1,15
 836 1202 836 1202 734 1202 c 0,16,17
 682 1202 682 1202 598 1242 c 128,-1,18
 514 1282 514 1282 463 1282 c 0,19,20
 370 1282 370 1282 356 1182 c 1,21,-1
 233 1182 l 1,0,1
EndSplineSet
EndChar

StartChar: hungarumlaut
Encoding: 733 733 297
Width: 1684
GlyphClass: 2
Flags: W
AnchorPoint: "Anchor-0" 472 1044 mark 0
LayerCount: 2
UndoRedoHistory
Layer: 1
Undoes
EndUndoes
Redoes
EndRedoes
EndUndoRedoHistory
Fore
SplineSet
560 1164 m 1,0,-1
 797 1532 l 1,1,-1
 1004 1532 l 1,2,-1
 688 1164 l 1,3,-1
 560 1164 l 1,0,-1
254 1164 m 1,4,-1
 507 1532 l 1,5,-1
 694 1532 l 1,6,-1
 392 1164 l 1,7,-1
 254 1164 l 1,4,-1
EndSplineSet
EndChar

StartChar: gravecomb
Encoding: 768 768 298
Width: 1054
GlyphClass: 4
Flags: W
AnchorPoint: "Anchor-0" 646 1034 mark 0
LayerCount: 2
UndoRedoHistory
Layer: 1
Undoes
EndUndoes
Redoes
EndRedoes
EndUndoRedoHistory
Fore
SplineSet
540 1202 m 1,0,-1
 210 1520 l 1,1,-1
 483 1520 l 1,2,-1
 729 1202 l 1,3,-1
 540 1202 l 1,0,-1
EndSplineSet
EndChar

StartChar: acutecomb
Encoding: 769 769 299
Width: 1078
GlyphClass: 4
Flags: W
AnchorPoint: "Anchor-0" 404 1034 mark 0
LayerCount: 2
UndoRedoHistory
Layer: 1
Undoes
EndUndoes
Redoes
EndRedoes
EndUndoRedoHistory
Fore
SplineSet
300 1144 m 1,0,-1
 566 1520 l 1,1,-1
 885 1520 l 1,2,-1
 523 1144 l 1,3,-1
 300 1144 l 1,0,-1
EndSplineSet
EndChar

StartChar: circumflexcomb
Encoding: 770 770 300
Width: 1212
GlyphClass: 4
Flags: W
AnchorPoint: "Anchor-0" 586 1034 mark 0
LayerCount: 2
UndoRedoHistory
Layer: 1
Undoes
EndUndoes
Redoes
EndRedoes
EndUndoRedoHistory
Fore
SplineSet
514 1509 m 1,0,-1
 680 1509 l 1,1,-1
 968 1128 l 1,2,-1
 742 1128 l 1,3,-1
 597 1312 l 1,4,-1
 445 1128 l 1,5,-1
 227 1128 l 1,6,-1
 514 1509 l 1,0,-1
EndSplineSet
EndChar

StartChar: dotaccentcmb
Encoding: 775 775 301
Width: 932
GlyphClass: 2
Flags: W
AnchorPoint: "Anchor-0" 403 1030 mark 0
LayerCount: 2
UndoRedoHistory
Layer: 1
Undoes
EndUndoes
Redoes
EndRedoes
EndUndoRedoHistory
Fore
SplineSet
401 1412 m 128,-1,1
 460 1412 460 1412 493 1376.5 c 128,-1,2
 526 1341 526 1341 526 1293 c 128,-1,3
 526 1245 526 1245 493 1209.5 c 128,-1,4
 460 1174 460 1174 401 1174 c 128,-1,5
 342 1174 342 1174 309 1209.5 c 128,-1,6
 276 1245 276 1245 276 1293 c 128,-1,7
 276 1341 276 1341 309 1376.5 c 128,-1,0
 342 1412 342 1412 401 1412 c 128,-1,1
EndSplineSet
EndChar

StartChar: dblgravecmb
Encoding: 783 783 303
Width: 1684
GlyphClass: 2
Flags: W
AnchorPoint: "Anchor-0" 814 1048 mark 0
LayerCount: 2
UndoRedoHistory
Layer: 1
Undoes
EndUndoes
Redoes
EndRedoes
EndUndoRedoHistory
Fore
SplineSet
907 1192 m 1,0,-1
 606 1560 l 1,1,-1
 792 1560 l 1,2,-1
 1046 1192 l 1,3,-1
 907 1192 l 1,0,-1
612 1192 m 1,4,-1
 296 1560 l 1,5,-1
 502 1560 l 1,6,-1
 740 1192 l 1,7,-1
 612 1192 l 1,4,-1
EndSplineSet
EndChar

StartChar: uni0311
Encoding: 785 785 304
Width: 1106
GlyphClass: 2
Flags: W
AnchorPoint: "Anchor-0" 565 1152 mark 0
LayerCount: 2
UndoRedoHistory
Layer: 1
Undoes
EndUndoes
Redoes
EndRedoes
EndUndoRedoHistory
Fore
SplineSet
235 1231 m 1,0,1
 246 1370 246 1370 330.5 1439.5 c 128,-1,2
 415 1509 415 1509 563 1509 c 0,3,4
 707 1509 707 1509 791.5 1437.5 c 128,-1,5
 876 1366 876 1366 887 1231 c 1,6,-1
 785 1231 l 1,7,8
 768 1304 768 1304 705.5 1343.5 c 128,-1,9
 643 1383 643 1383 555 1383 c 0,10,11
 465 1383 465 1383 407 1345 c 128,-1,12
 349 1307 349 1307 337 1231 c 1,13,-1
 235 1231 l 1,0,1
EndSplineSet
EndChar

StartChar: commaaccentcomb
Encoding: 806 806 305
Width: 961
GlyphClass: 2
Flags: W
LayerCount: 2
UndoRedoHistory
Layer: 1
Undoes
EndUndoes
Redoes
EndRedoes
EndUndoRedoHistory
Fore
SplineSet
148 -1101 m 1,0,-1
 273 -557 l 1,1,-1
 492 -557 l 1,2,-1
 302 -1101 l 1,3,-1
 148 -1101 l 1,0,-1
EndSplineSet
EndChar

StartChar: Delta
Encoding: 916 916 306
Width: 2324
GlyphClass: 2
Flags: W
LayerCount: 2
UndoRedoHistory
Layer: 1
Undoes
EndUndoes
Redoes
EndRedoes
EndUndoRedoHistory
Fore
SplineSet
350 190 m 1,0,-1
 1247 190 l 1,1,-1
 833 1305 l 1,2,-1
 793 1430 l 1,3,-1
 756 1305 l 1,4,-1
 350 190 l 1,0,-1
81 0 m 1,5,-1
 81 94 l 1,6,-1
 692 1678 l 1,7,-1
 906 1678 l 1,8,-1
 1517 94 l 1,9,-1
 1517 0 l 1,10,-1
 81 0 l 1,5,-1
EndSplineSet
EndChar

StartChar: uni03A9
Encoding: 937 937 307
Width: 2716
GlyphClass: 2
Flags: W
LayerCount: 2
UndoRedoHistory
Layer: 1
Undoes
EndUndoes
Redoes
EndRedoes
EndUndoRedoHistory
Fore
SplineSet
186 0 m 1,0,-1
 173 163 l 1,1,-1
 559 161 l 1,2,3
 303 370 303 370 227 679 c 1,4,5
 198 790 198 790 198 911 c 0,6,7
 198 1094 198 1094 260 1239.5 c 128,-1,8
 322 1385 322 1385 429 1487 c 1,9,10
 525 1587 525 1587 658.5 1644.5 c 128,-1,11
 792 1702 792 1702 955 1702 c 0,12,13
 1120 1702 1120 1702 1252 1640 c 128,-1,14
 1384 1578 1384 1578 1476 1472 c 1,15,16
 1575 1370 1575 1370 1631.5 1226 c 128,-1,17
 1688 1082 1688 1082 1688 906 c 0,18,19
 1688 679 1688 679 1571 467 c 1,20,21
 1473 294 1473 294 1322 161 c 1,22,-1
 1691 163 l 1,23,-1
 1680 0 l 1,24,-1
 1109 0 l 1,25,-1
 1104 142 l 1,26,27
 1368 338 1368 338 1450 658 c 1,28,29
 1480 766 1480 766 1480 885 c 0,30,31
 1480 1101 1480 1101 1400.5 1255 c 128,-1,32
 1321 1409 1321 1409 1182 1484 c 0,33,34
 1082 1537 1082 1537 950 1537 c 0,35,36
 761 1537 761 1537 633.5 1432 c 128,-1,37
 506 1327 506 1327 448 1153 c 0,38,39
 408 1030 408 1030 408 891 c 0,40,41
 408 542 408 542 628 282 c 1,42,43
 701 198 701 198 778 142 c 1,44,-1
 782 0 l 1,45,-1
 186 0 l 1,0,-1
EndSplineSet
EndChar

StartChar: uni03BC
Encoding: 956 956 308
Width: 2153
GlyphClass: 2
Flags: W
LayerCount: 2
UndoRedoHistory
Layer: 1
Undoes
EndUndoes
Redoes
EndRedoes
EndUndoRedoHistory
Fore
SplineSet
287 -356 m 1,0,-1
 287 1086 l 1,1,-1
 480 1086 l 1,2,-1
 480 350 l 2,3,4
 480 182 480 182 552 95.5 c 128,-1,5
 624 9 624 9 781 9 c 0,6,7
 908 9 908 9 991 73.5 c 128,-1,8
 1074 138 1074 138 1110 245 c 1,9,10
 1133 317 1133 317 1133 393 c 2,11,-1
 1133 1086 l 1,12,-1
 1327 1086 l 1,13,-1
 1327 170 l 2,14,15
 1327 -8 1327 -8 1336 -119 c 1,16,-1
 1137 -119 l 1,17,-1
 1133 40 l 1,18,19
 998 -145 998 -145 737 -145 c 0,20,21
 584 -145 584 -145 480 -83 c 1,22,-1
 480 -356 l 1,23,-1
 287 -356 l 1,0,-1
EndSplineSet
EndChar

StartChar: pi
Encoding: 960 960 309
Width: 2201
GlyphClass: 2
Flags: W
LayerCount: 2
UndoRedoHistory
Layer: 1
Undoes
EndUndoes
Redoes
EndRedoes
EndUndoRedoHistory
Fore
SplineSet
1201 -14 m 0,0,1
 1127 -14 1127 -14 1077.5 8.5 c 128,-1,2
 1028 31 1028 31 1001.5 78 c 128,-1,3
 975 125 975 125 965 182 c 128,-1,4
 955 239 955 239 955 322 c 2,5,-1
 955 1060 l 1,6,-1
 561 1060 l 1,7,8
 530 604 530 604 507 426 c 0,9,10
 484 243 484 243 449 99 c 0,11,12
 432 30 432 30 412 -4 c 1,13,-1
 222 -4 l 1,14,15
 270 79 270 79 295.5 196 c 128,-1,16
 321 313 321 313 341 478 c 0,17,18
 370 710 370 710 379 1060 c 1,19,20
 185 1056 185 1056 60 989 c 1,21,-1
 40 1143 l 1,22,23
 102 1191 102 1191 197.5 1204 c 128,-1,24
 293 1217 293 1217 444 1217 c 2,25,-1
 1369 1217 l 1,26,-1
 1369 1060 l 1,27,-1
 1129 1060 l 1,28,-1
 1140 334 l 1,29,30
 1140 252 1140 252 1164 210 c 128,-1,31
 1188 168 1188 168 1256 168 c 0,32,33
 1299 168 1299 168 1350 183 c 1,34,-1
 1348 148 l 2,35,36
 1347 137 1347 137 1347 113 c 0,37,38
 1347 46 1347 46 1362 3 c 1,39,40
 1262 -14 1262 -14 1201 -14 c 0,0,1
EndSplineSet
EndChar

StartChar: endash
Encoding: 8211 8211 310
Width: 1842
GlyphClass: 2
Flags: W
LayerCount: 2
UndoRedoHistory
Layer: 1
Undoes
EndUndoes
Redoes
EndRedoes
EndUndoRedoHistory
Fore
SplineSet
0 861 m 1,0,-1
 0 1022 l 1,1,-1
 1202 1022 l 1,2,-1
 1202 861 l 1,3,-1
 0 861 l 1,0,-1
EndSplineSet
EndChar

StartChar: emdash
Encoding: 8212 8212 311
Width: 3633
GlyphClass: 2
Flags: W
LayerCount: 2
UndoRedoHistory
Layer: 1
Undoes
EndUndoes
Redoes
EndRedoes
EndUndoRedoHistory
Fore
SplineSet
5 861 m 1,0,-1
 5 1022 l 1,1,-1
 2345 1022 l 1,2,-1
 2345 861 l 1,3,-1
 5 861 l 1,0,-1
EndSplineSet
EndChar

StartChar: quoteleft
Encoding: 8216 8216 312
Width: 984
GlyphClass: 2
Flags: W
LayerCount: 2
UndoRedoHistory
Layer: 1
Undoes
EndUndoes
Redoes
EndRedoes
EndUndoRedoHistory
Fore
SplineSet
575 1456 m 1,0,-1
 453 939 l 1,1,-1
 239 939 l 1,2,-1
 420 1456 l 1,3,-1
 575 1456 l 1,0,-1
EndSplineSet
EndChar

StartChar: quoteright
Encoding: 8217 8217 313
Width: 984
GlyphClass: 2
Flags: W
LayerCount: 2
UndoRedoHistory
Layer: 1
Undoes
EndUndoes
Redoes
EndRedoes
EndUndoRedoHistory
Fore
SplineSet
257 939 m 1,0,-1
 380 1456 l 1,1,-1
 592 1456 l 1,2,-1
 412 939 l 1,3,-1
 257 939 l 1,0,-1
EndSplineSet
EndChar

StartChar: quotesinglbase
Encoding: 8218 8218 314
Width: 984
GlyphClass: 2
Flags: W
LayerCount: 2
UndoRedoHistory
Layer: 1
Undoes
EndUndoes
Redoes
EndRedoes
EndUndoRedoHistory
Fore
SplineSet
230 -419 m 1,0,-1
 355 96 l 1,1,-1
 567 96 l 1,2,-1
 386 -419 l 1,3,-1
 230 -419 l 1,0,-1
EndSplineSet
EndChar

StartChar: quotedblleft
Encoding: 8220 8220 315
Width: 1787
GlyphClass: 2
Flags: W
LayerCount: 2
UndoRedoHistory
Layer: 1
Undoes
EndUndoes
Redoes
EndRedoes
EndUndoRedoHistory
Fore
SplineSet
775 963 m 1,0,-1
 947 1480 l 1,1,-1
 1103 1480 l 1,2,-1
 981 963 l 1,3,-1
 775 963 l 1,0,-1
382 963 m 1,4,-1
 562 1480 l 1,5,-1
 709 1480 l 1,6,-1
 595 963 l 1,7,-1
 382 963 l 1,4,-1
EndSplineSet
EndChar

StartChar: quotedblright
Encoding: 8221 8221 316
Width: 1789
GlyphClass: 2
Flags: W
LayerCount: 2
UndoRedoHistory
Layer: 1
Undoes
EndUndoes
Redoes
EndRedoes
EndUndoRedoHistory
Fore
SplineSet
845 937 m 1,0,-1
 960 1454 l 1,1,-1
 1173 1454 l 1,2,-1
 993 937 l 1,3,-1
 845 937 l 1,0,-1
475 937 m 1,4,-1
 597 1454 l 1,5,-1
 803 1454 l 1,6,-1
 631 937 l 1,7,-1
 475 937 l 1,4,-1
EndSplineSet
EndChar

StartChar: quotedblbase
Encoding: 8222 8222 317
Width: 1786
GlyphClass: 2
Flags: W
LayerCount: 2
UndoRedoHistory
Layer: 1
Undoes
EndUndoes
Redoes
EndRedoes
EndUndoRedoHistory
Fore
SplineSet
728 -419 m 1,0,-1
 841 96 l 1,1,-1
 1056 96 l 1,2,-1
 875 -419 l 1,3,-1
 728 -419 l 1,0,-1
324 -419 m 1,4,-1
 447 96 l 1,5,-1
 651 96 l 1,6,-1
 481 -419 l 1,7,-1
 324 -419 l 1,4,-1
EndSplineSet
EndChar

StartChar: dagger
Encoding: 8224 8224 318
Width: 1769
GlyphClass: 2
Flags: W
LayerCount: 2
UndoRedoHistory
Layer: 1
Undoes
EndUndoes
Redoes
EndRedoes
EndUndoRedoHistory
Fore
SplineSet
568 199 m 1,0,-1
 568 1163 l 1,1,-1
 198 1163 l 1,2,-1
 198 1318 l 1,3,-1
 568 1318 l 1,4,-1
 568 1770 l 1,5,-1
 724 1770 l 1,6,-1
 724 1318 l 1,7,-1
 1113 1318 l 1,8,-1
 1113 1163 l 1,9,-1
 710 1163 l 1,10,-1
 710 199 l 1,11,-1
 568 199 l 1,0,-1
EndSplineSet
EndChar

StartChar: daggerdbl
Encoding: 8225 8225 319
Width: 1776
GlyphClass: 2
Flags: W
LayerCount: 2
UndoRedoHistory
Layer: 1
Undoes
EndUndoes
Redoes
EndRedoes
EndUndoRedoHistory
Fore
SplineSet
551 199 m 1,0,-1
 571 577 l 1,1,-1
 183 577 l 1,2,-1
 183 726 l 1,3,-1
 571 726 l 1,4,-1
 571 1220 l 1,5,-1
 190 1220 l 1,6,-1
 190 1376 l 1,7,-1
 579 1376 l 1,8,-1
 550 1770 l 1,9,-1
 745 1770 l 1,10,-1
 723 1376 l 1,11,-1
 1112 1376 l 1,12,-1
 1112 1220 l 1,13,-1
 716 1220 l 1,14,-1
 716 726 l 1,15,-1
 1104 726 l 1,16,-1
 1104 577 l 1,17,-1
 716 577 l 1,18,-1
 740 199 l 1,19,-1
 551 199 l 1,0,-1
EndSplineSet
EndChar

StartChar: bullet
Encoding: 8226 8226 320
Width: 1718
GlyphClass: 2
Flags: W
LayerCount: 2
UndoRedoHistory
Layer: 1
Undoes
EndUndoes
Redoes
EndRedoes
EndUndoRedoHistory
Fore
SplineSet
667 678 m 0,0,1
 547 678 547 678 455 740.5 c 128,-1,2
 363 803 363 803 317 901 c 0,3,4
 287 966 287 966 287 1041 c 0,5,6
 287 1163 287 1163 358 1251 c 128,-1,7
 429 1339 429 1339 535 1382 c 1,8,9
 594 1411 594 1411 672 1411 c 0,10,11
 791 1411 791 1411 882.5 1348.5 c 128,-1,12
 974 1286 974 1286 1020 1189 c 1,13,14
 1052 1125 1052 1125 1052 1049 c 0,15,16
 1052 895 1052 895 933 787 c 1,17,18
 817 678 817 678 667 678 c 0,0,1
EndSplineSet
EndChar

StartChar: ellipsis
Encoding: 8230 8230 321
Width: 2772
GlyphClass: 2
Flags: W
LayerCount: 2
UndoRedoHistory
Layer: 1
Undoes
EndUndoes
Redoes
EndRedoes
EndUndoRedoHistory
Fore
SplineSet
1468 -20 m 1,0,-1
 1468 227 l 1,1,-1
 1723 227 l 1,2,-1
 1723 -20 l 1,3,-1
 1468 -20 l 1,0,-1
887 -20 m 1,4,-1
 887 227 l 1,5,-1
 1126 227 l 1,6,-1
 1126 -20 l 1,7,-1
 887 -20 l 1,4,-1
290 -20 m 1,8,-1
 290 227 l 1,9,-1
 544 227 l 1,10,-1
 544 -20 l 1,11,-1
 290 -20 l 1,8,-1
EndSplineSet
EndChar

StartChar: perthousand
Encoding: 8240 8240 322
Width: 4109
GlyphClass: 2
Flags: W
LayerCount: 2
UndoRedoHistory
Layer: 1
Undoes
EndUndoes
Redoes
EndRedoes
EndUndoRedoHistory
Fore
SplineSet
2279 85 m 0,0,1
 2380 85 2380 85 2431.5 164.5 c 128,-1,2
 2483 244 2483 244 2483 368 c 0,3,4
 2483 493 2483 493 2431.5 571.5 c 128,-1,5
 2380 650 2380 650 2278 650 c 128,-1,6
 2176 650 2176 650 2124 572 c 128,-1,7
 2072 494 2072 494 2072 370 c 0,8,9
 2072 243 2072 243 2124 164 c 128,-1,10
 2176 85 2176 85 2279 85 c 0,0,1
1410 85 m 0,11,12
 1510 85 1510 85 1562.5 165 c 128,-1,13
 1615 245 1615 245 1615 368 c 0,14,15
 1615 495 1615 495 1564 572.5 c 128,-1,16
 1513 650 1513 650 1410 650 c 0,17,18
 1308 650 1308 650 1256 572 c 128,-1,19
 1204 494 1204 494 1204 370 c 0,20,21
 1204 243 1204 243 1256 164 c 128,-1,22
 1308 85 1308 85 1410 85 c 0,11,12
310 1271 m 0,23,24
 310 1143 310 1143 367 1064.5 c 128,-1,25
 424 986 424 986 539 986 c 0,26,27
 649 986 649 986 705.5 1065.5 c 128,-1,28
 762 1145 762 1145 762 1268 c 0,29,30
 762 1394 762 1394 705 1472.5 c 128,-1,31
 648 1551 648 1551 535 1551 c 0,32,33
 425 1551 425 1551 367.5 1472.5 c 128,-1,34
 310 1394 310 1394 310 1271 c 0,23,24
520 -40 m 1,35,-1
 341 -40 l 1,36,-1
 1419 1670 l 1,37,-1
 1577 1670 l 1,38,-1
 520 -40 l 1,35,-1
2275 -47 m 0,39,40
 2101 -47 2101 -47 2001.5 65.5 c 128,-1,41
 1902 178 1902 178 1902 370 c 0,42,43
 1902 511 1902 511 1962 609 c 128,-1,44
 2022 707 2022 707 2125 752 c 1,45,46
 2189 784 2189 784 2280 784 c 0,47,48
 2456 784 2456 784 2554 672.5 c 128,-1,49
 2652 561 2652 561 2652 366 c 0,50,51
 2652 226 2652 226 2591 127.5 c 128,-1,52
 2530 29 2530 29 2427 -15 c 1,53,54
 2363 -47 2363 -47 2275 -47 c 0,39,40
1407 -47 m 0,55,56
 1233 -47 1233 -47 1133 65.5 c 128,-1,57
 1033 178 1033 178 1033 370 c 0,58,59
 1033 511 1033 511 1093 609 c 128,-1,60
 1153 707 1153 707 1256 752 c 1,61,62
 1320 784 1320 784 1411 784 c 0,63,64
 1587 784 1587 784 1685 672 c 128,-1,65
 1783 560 1783 560 1783 366 c 0,66,67
 1783 225 1783 225 1723 127.5 c 128,-1,68
 1663 30 1663 30 1560 -15 c 1,69,70
 1495 -47 1495 -47 1407 -47 c 0,55,56
535 853 m 0,71,72
 345 853 345 853 242 964.5 c 128,-1,73
 139 1076 139 1076 139 1270 c 0,74,75
 139 1412 139 1412 200 1509.5 c 128,-1,76
 261 1607 261 1607 368 1651 c 1,77,78
 439 1683 439 1683 537 1683 c 0,79,80
 728 1683 728 1683 830.5 1573 c 128,-1,81
 933 1463 933 1463 933 1266 c 0,82,83
 933 1126 933 1126 871 1027 c 128,-1,84
 809 928 809 928 702 884 c 1,85,86
 633 853 633 853 535 853 c 0,71,72
EndSplineSet
EndChar

StartChar: guilsinglleft
Encoding: 8249 8249 323
Width: 1140
GlyphClass: 2
Flags: W
LayerCount: 2
UndoRedoHistory
Layer: 1
Undoes
EndUndoes
Redoes
EndRedoes
EndUndoRedoHistory
Fore
SplineSet
511 301 m 1,0,-1
 195 735 l 1,1,-1
 517 1174 l 1,2,-1
 703 1174 l 1,3,-1
 394 735 l 1,4,-1
 694 301 l 1,5,-1
 511 301 l 1,0,-1
EndSplineSet
EndChar

StartChar: guilsinglright
Encoding: 8250 8250 324
Width: 1140
GlyphClass: 2
Flags: W
LayerCount: 2
UndoRedoHistory
Layer: 1
Undoes
EndUndoes
Redoes
EndRedoes
EndUndoRedoHistory
Fore
SplineSet
383 1174 m 1,0,-1
 701 737 l 1,1,-1
 376 301 l 1,2,-1
 191 301 l 1,3,-1
 499 737 l 1,4,-1
 201 1174 l 1,5,-1
 383 1174 l 1,0,-1
EndSplineSet
EndChar

StartChar: fraction
Encoding: 8260 8260 325
Width: 584
GlyphClass: 2
Flags: W
LayerCount: 2
UndoRedoHistory
Layer: 1
Undoes
EndUndoes
Redoes
EndRedoes
EndUndoRedoHistory
Fore
SplineSet
-583 0 m 1,0,-1
 407 1686 l 1,1,-1
 582 1686 l 1,2,-1
 -406 0 l 1,3,-1
 -583 0 l 1,0,-1
EndSplineSet
EndChar

StartChar: uni2074
Encoding: 8308 8308 326
Width: 1564
GlyphClass: 2
Flags: W
LayerCount: 2
UndoRedoHistory
Layer: 1
Undoes
EndUndoes
Redoes
EndRedoes
EndUndoRedoHistory
Fore
SplineSet
572 891 m 1,0,-1
 833 891 l 1,1,-1
 833 1283 l 1,2,-1
 572 891 l 1,0,-1
833 545 m 1,3,-1
 833 766 l 1,4,-1
 408 766 l 1,5,-1
 408 872 l 1,6,-1
 820 1480 l 1,7,-1
 973 1480 l 1,8,-1
 973 891 l 1,9,-1
 1100 891 l 1,10,-1
 1112 766 l 1,11,-1
 970 766 l 1,12,-1
 970 545 l 1,13,-1
 833 545 l 1,3,-1
EndSplineSet
EndChar

StartChar: Euro
Encoding: 8364 8364 327
Width: 1370
GlyphClass: 2
Flags: W
LayerCount: 2
UndoRedoHistory
Layer: 1
Undoes
EndUndoes
Redoes
EndRedoes
EndUndoRedoHistory
Fore
SplineSet
853 -24 m 0,0,1
 698 -24 698 -24 566.5 32 c 128,-1,2
 435 88 435 88 342.5 187 c 128,-1,3
 250 286 250 286 198 427 c 0,4,5
 191 446 191 446 185 466 c 1,6,-1
 -5 466 l 1,7,-1
 18 628 l 1,8,-1
 152 628 l 1,9,10
 146 679 146 679 146 733 c 0,11,12
 146 774 146 774 149 814 c 1,13,-1
 -9 814 l 1,14,-1
 17 976 l 1,15,-1
 179 976 l 1,16,17
 188 1009 188 1009 200 1040 c 0,18,19
 254 1180 254 1180 349 1276.5 c 128,-1,20
 444 1373 444 1373 577 1426.5 c 128,-1,21
 710 1480 710 1480 866 1480 c 0,22,23
 978 1480 978 1480 1095.5 1439 c 128,-1,24
 1213 1398 1213 1398 1305 1327 c 1,25,-1
 1218 1136 l 1,26,27
 1153 1189 1153 1189 1056 1230.5 c 128,-1,28
 959 1272 959 1272 867 1272 c 0,29,30
 654 1272 654 1272 533 1122 c 0,31,32
 481 1057 481 1057 451 976 c 1,33,-1
 1062 976 l 1,34,-1
 1038 814 l 1,35,-1
 416 814 l 1,36,37
 412 774 412 774 412 732 c 0,38,39
 412 678 412 678 418 628 c 1,40,-1
 1023 628 l 1,41,-1
 1000 466 l 1,42,-1
 459 466 l 1,43,44
 488 394 488 394 536 336 c 0,45,46
 660 184 660 184 881 184 c 0,47,48
 973 184 973 184 1071 218 c 128,-1,49
 1169 252 1169 252 1243 311 c 1,50,-1
 1321 125 l 1,51,52
 1241 59 1241 59 1107.5 17.5 c 128,-1,53
 974 -24 974 -24 853 -24 c 0,0,1
EndSplineSet
EndChar

StartChar: trademark
Encoding: 8482 8482 328
Width: 3165
GlyphClass: 2
Flags: W
LayerCount: 2
UndoRedoHistory
Layer: 1
Undoes
EndUndoes
Redoes
EndRedoes
EndUndoRedoHistory
Fore
SplineSet
426 1208 m 1,0,-1
 426 1988 l 1,1,-1
 133 1988 l 1,2,-1
 133 2107 l 1,3,-1
 832 2107 l 1,4,-1
 832 1988 l 1,5,-1
 557 1988 l 1,6,-1
 557 1208 l 1,7,-1
 426 1208 l 1,0,-1
951 1208 m 1,8,-1
 951 2107 l 1,9,-1
 1153 2107 l 1,10,-1
 1403 1459 l 1,11,-1
 1672 2107 l 1,12,-1
 1882 2107 l 1,13,-1
 1882 1208 l 1,14,-1
 1739 1208 l 1,15,-1
 1739 1907 l 1,16,-1
 1439 1208 l 1,17,-1
 1354 1208 l 1,18,-1
 1080 1906 l 1,19,-1
 1080 1208 l 1,20,-1
 951 1208 l 1,8,-1
EndSplineSet
EndChar

StartChar: partialdiff
Encoding: 8706 8706 329
Width: 1993
GlyphClass: 2
Flags: W
LayerCount: 2
UndoRedoHistory
Layer: 1
Undoes
EndUndoes
Redoes
EndRedoes
EndUndoRedoHistory
Fore
SplineSet
612 116 m 0,0,1
 773 116 773 116 888 304 c 0,2,3
 997 483 997 483 1028 755 c 1,4,5
 968 926 968 926 834 986 c 0,6,7
 790 1006 790 1006 733 1006 c 0,8,9
 573 1006 573 1006 463 848 c 0,10,11
 355 693 355 693 355 476 c 0,12,13
 355 355 355 355 394 268.5 c 128,-1,14
 433 182 433 182 506 142 c 0,15,16
 553 116 553 116 612 116 c 0,0,1
610 -42 m 0,17,18
 450 -42 450 -42 341.5 43 c 128,-1,19
 233 128 233 128 186 273 c 1,20,21
 156 369 156 369 156 479 c 0,22,23
 156 699 156 699 252.5 864 c 128,-1,24
 349 1029 349 1029 501 1109 c 1,25,26
 601 1163 601 1163 709 1163 c 0,27,28
 906 1163 906 1163 1048 968 c 1,29,30
 1048 979 1048 979 1048.5 1011 c 128,-1,31
 1049 1043 1049 1043 1049 1056 c 0,32,33
 1049 1248 1049 1248 995.5 1387.5 c 128,-1,34
 942 1527 942 1527 836 1590 c 0,35,36
 769 1629 769 1629 686 1629 c 0,37,38
 547 1629 547 1629 396 1517 c 1,39,-1
 385 1679 l 1,40,41
 449 1726 449 1726 534 1756 c 128,-1,42
 619 1786 619 1786 711 1786 c 0,43,44
 911 1786 911 1786 1033.5 1667 c 128,-1,45
 1156 1548 1156 1548 1210 1343 c 0,46,47
 1250 1193 1250 1193 1250 986 c 0,48,49
 1250 576 1250 576 1082 282 c 0,50,51
 967 79 967 79 800 -1 c 1,52,53
 717 -42 717 -42 610 -42 c 0,17,18
EndSplineSet
EndChar

StartChar: product
Encoding: 8719 8719 330
Width: 2673
GlyphClass: 2
Flags: W
LayerCount: 2
UndoRedoHistory
Layer: 1
Undoes
EndUndoes
Redoes
EndRedoes
EndUndoRedoHistory
Fore
SplineSet
369 -580 m 1,0,-1
 369 1307 l 1,1,-1
 222 1307 l 1,2,-1
 204 1477 l 1,3,-1
 1687 1477 l 1,4,-1
 1668 1307 l 1,5,-1
 1536 1307 l 1,6,-1
 1536 -580 l 1,7,-1
 1334 -580 l 1,8,-1
 1334 1307 l 1,9,-1
 567 1307 l 1,10,-1
 567 -580 l 1,11,-1
 369 -580 l 1,0,-1
EndSplineSet
EndChar

StartChar: summation
Encoding: 8721 8721 331
Width: 2149
GlyphClass: 2
Flags: W
LayerCount: 2
UndoRedoHistory
Layer: 1
Undoes
EndUndoes
Redoes
EndRedoes
EndUndoRedoHistory
Fore
SplineSet
111 -580 m 1,0,-1
 111 -474 l 1,1,-1
 812 455 l 1,2,-1
 136 1367 l 1,3,-1
 136 1477 l 1,4,-1
 1338 1477 l 1,5,-1
 1338 1311 l 1,6,-1
 418 1311 l 1,7,-1
 1026 465 l 1,8,-1
 385 -406 l 1,9,-1
 1391 -406 l 1,10,-1
 1391 -580 l 1,11,-1
 111 -580 l 1,0,-1
EndSplineSet
EndChar

StartChar: minus
Encoding: 8722 8722 332
Width: 1115
GlyphClass: 2
Flags: W
LayerCount: 2
UndoRedoHistory
Layer: 1
Undoes
EndUndoes
Redoes
EndRedoes
EndUndoRedoHistory
Fore
SplineSet
168 640 m 1,0,-1
 168 837 l 1,1,-1
 947 837 l 1,2,-1
 947 640 l 1,3,-1
 168 640 l 1,0,-1
EndSplineSet
EndChar

StartChar: radical
Encoding: 8730 8730 333
Width: 2242
GlyphClass: 2
Flags: W
LayerCount: 2
UndoRedoHistory
Layer: 1
Undoes
EndUndoes
Redoes
EndRedoes
EndUndoRedoHistory
Fore
SplineSet
742 -269 m 1,0,-1
 388 721 l 1,1,-1
 186 688 l 1,2,-1
 163 819 l 1,3,-1
 500 879 l 1,4,-1
 742 162 l 1,5,-1
 804 -41 l 1,6,-1
 846 165 l 1,7,-1
 1251 1784 l 1,8,-1
 1403 1784 l 1,9,-1
 886 -269 l 1,10,-1
 742 -269 l 1,0,-1
EndSplineSet
EndChar

StartChar: infinity
Encoding: 8734 8734 334
Width: 2901
GlyphClass: 2
Flags: W
LayerCount: 2
UndoRedoHistory
Layer: 1
Undoes
EndUndoes
Redoes
EndRedoes
EndUndoRedoHistory
Fore
SplineSet
1431 556 m 0,0,1
 1547 556 1547 556 1605.5 640 c 128,-1,2
 1664 724 1664 724 1664 864 c 0,3,4
 1664 946 1664 946 1623.5 1004.5 c 128,-1,5
 1583 1063 1583 1063 1521 1092 c 1,6,7
 1475 1112 1475 1112 1425 1112 c 0,8,9
 1330 1112 1330 1112 1232 1026 c 0,10,11
 1152 956 1152 956 1077 833 c 1,12,13
 1178 687 1178 687 1253 626 c 1,14,15
 1337 556 1337 556 1431 556 c 0,0,1
583 556 m 0,16,17
 678 556 678 556 771 636 c 0,18,19
 845 700 845 700 931 830 c 1,20,21
 871 927 871 927 812.5 992 c 128,-1,22
 754 1057 754 1057 677 1090 c 0,23,24
 627 1112 627 1112 572 1112 c 0,25,26
 487 1112 487 1112 431 1065.5 c 128,-1,27
 375 1019 375 1019 349 941 c 0,28,29
 332 888 332 888 332 833 c 0,30,31
 332 744 332 744 374 678 c 128,-1,32
 416 612 416 612 481 579 c 1,33,34
 529 556 529 556 583 556 c 0,16,17
580 415 m 0,35,36
 447 415 447 415 351.5 490.5 c 128,-1,37
 256 566 256 566 210 686 c 1,38,39
 179 764 179 764 179 857 c 0,40,41
 179 1017 179 1017 306 1133 c 1,42,43
 426 1247 426 1247 575 1247 c 0,44,45
 680 1247 680 1247 760 1200 c 128,-1,46
 840 1153 840 1153 911 1073 c 0,47,48
 955 1023 955 1023 1005 951 c 1,49,50
 1078 1056 1078 1056 1146.5 1124.5 c 128,-1,51
 1215 1193 1215 1193 1305 1226 c 1,52,53
 1358 1247 1358 1247 1431 1247 c 0,54,55
 1564 1247 1564 1247 1658.5 1180.5 c 128,-1,56
 1753 1114 1753 1114 1798 1001 c 0,57,58
 1827 929 1827 929 1827 838 c 0,59,60
 1827 696 1827 696 1755.5 594.5 c 128,-1,61
 1684 493 1684 493 1574 446 c 0,62,63
 1501 415 1501 415 1428 415 c 0,64,65
 1311 415 1311 415 1210 489 c 0,66,67
 1108 563 1108 563 1004 711 c 1,68,69
 934 610 934 610 862.5 540.5 c 128,-1,70
 791 471 791 471 701 437 c 0,71,72
 640 415 640 415 580 415 c 0,35,36
EndSplineSet
EndChar

StartChar: integral
Encoding: 8747 8747 335
Width: 1219
GlyphClass: 2
Flags: W
LayerCount: 2
UndoRedoHistory
Layer: 1
Undoes
EndUndoes
Redoes
EndRedoes
EndUndoRedoHistory
Fore
SplineSet
387 -703 m 0,0,1
 321 -703 321 -703 228 -678 c 1,2,-1
 225 -526 l 1,3,4
 270 -544 270 -544 354 -544 c 0,5,6
 411 -544 411 -544 448 -527.5 c 128,-1,7
 485 -511 485 -511 504 -475.5 c 128,-1,8
 523 -440 523 -440 529.5 -397 c 128,-1,9
 536 -354 536 -354 536 -289 c 2,10,-1
 536 1239 l 2,11,12
 536 1680 536 1680 868 1680 c 0,13,14
 924 1680 924 1680 1028 1656 c 1,15,-1
 1031 1505 l 1,16,17
 987 1522 987 1522 902 1522 c 0,18,19
 792 1522 792 1522 754.5 1461 c 128,-1,20
 717 1400 717 1400 717 1268 c 2,21,-1
 717 -261 l 2,22,23
 717 -363 717 -363 700 -441 c 128,-1,24
 683 -519 683 -519 645.5 -579.5 c 128,-1,25
 608 -640 608 -640 543 -671.5 c 128,-1,26
 478 -703 478 -703 387 -703 c 0,0,1
EndSplineSet
EndChar

StartChar: approxequal
Encoding: 8776 8776 336
Width: 2296
GlyphClass: 2
Flags: W
LayerCount: 2
UndoRedoHistory
Layer: 1
Undoes
EndUndoes
Redoes
EndRedoes
EndUndoRedoHistory
Fore
SplineSet
412 898 m 1,0,-1
 277 930 l 1,1,2
 308 1066 308 1066 392 1148 c 128,-1,3
 476 1230 476 1230 606 1230 c 0,4,5
 660 1230 660 1230 717 1210 c 128,-1,6
 774 1190 774 1190 814.5 1165 c 128,-1,7
 855 1140 855 1140 907.5 1107.5 c 128,-1,8
 960 1075 960 1075 993 1060 c 0,9,10
 1047 1036 1047 1036 1086 1036 c 0,11,12
 1124 1036 1124 1036 1154.5 1051.5 c 128,-1,13
 1185 1067 1185 1067 1206.5 1097 c 128,-1,14
 1228 1127 1228 1127 1242 1158 c 128,-1,15
 1256 1189 1256 1189 1270 1232 c 1,16,-1
 1399 1199 l 1,17,18
 1370 1063 1370 1063 1290 980.5 c 128,-1,19
 1210 898 1210 898 1079 898 c 0,20,21
 1022 898 1022 898 977 914 c 128,-1,22
 932 930 932 930 876 962 c 0,23,24
 857 973 857 973 791 1013.5 c 128,-1,25
 725 1054 725 1054 694 1069 c 0,26,27
 649 1091 649 1091 602 1091 c 0,28,29
 525 1091 525 1091 480.5 1038.5 c 128,-1,30
 436 986 436 986 412 898 c 1,0,-1
414 460 m 1,31,-1
 280 493 l 1,32,33
 313 628 313 628 396.5 711.5 c 128,-1,34
 480 795 480 795 609 795 c 0,35,36
 657 795 657 795 709.5 778 c 128,-1,37
 762 761 762 761 794.5 743.5 c 128,-1,38
 827 726 827 726 874 697 c 0,39,40
 898 683 898 683 938 659.5 c 128,-1,41
 978 636 978 636 989 630 c 0,42,43
 1048 599 1048 599 1088 599 c 0,44,45
 1126 599 1126 599 1156.5 615 c 128,-1,46
 1187 631 1187 631 1208.5 661 c 128,-1,47
 1230 691 1230 691 1244 722 c 128,-1,48
 1258 753 1258 753 1272 795 c 1,49,-1
 1401 762 l 1,50,51
 1369 625 1369 625 1290.5 543 c 128,-1,52
 1212 461 1212 461 1082 461 c 0,53,54
 991 461 991 461 879 525 c 0,55,56
 873 528 873 528 801.5 572 c 128,-1,57
 730 616 730 616 698 631 c 0,58,59
 649 654 649 654 606 654 c 0,60,61
 465 654 465 654 414 460 c 1,31,-1
EndSplineSet
EndChar

StartChar: notequal
Encoding: 8800 8800 337
Width: 2318
GlyphClass: 2
Flags: W
LayerCount: 2
UndoRedoHistory
Layer: 1
Undoes
EndUndoes
Redoes
EndRedoes
EndUndoRedoHistory
Fore
SplineSet
630 81 m 1,0,-1
 498 102 l 1,1,-1
 636 408 l 1,2,-1
 303 408 l 1,3,-1
 293 550 l 1,4,-1
 702 550 l 1,5,-1
 858 882 l 1,6,-1
 303 882 l 1,7,-1
 292 1024 l 1,8,-1
 918 1024 l 1,9,-1
 1062 1346 l 1,10,-1
 1196 1324 l 1,11,-1
 1060 1024 l 1,12,-1
 1411 1024 l 1,13,-1
 1423 882 l 1,14,-1
 998 882 l 1,15,-1
 841 550 l 1,16,-1
 1412 550 l 1,17,-1
 1423 408 l 1,18,-1
 780 408 l 1,19,-1
 630 81 l 1,0,-1
EndSplineSet
EndChar

StartChar: lessequal
Encoding: 8804 8804 338
Width: 2320
GlyphClass: 2
Flags: W
LayerCount: 2
UndoRedoHistory
Layer: 1
Undoes
EndUndoes
Redoes
EndRedoes
EndUndoRedoHistory
Fore
SplineSet
294 15 m 1,0,-1
 294 159 l 1,1,-1
 1416 159 l 1,2,-1
 1416 15 l 1,3,-1
 294 15 l 1,0,-1
1382 259 m 1,4,-1
 336 787 l 1,5,-1
 336 882 l 1,6,-1
 1382 1437 l 1,7,-1
 1382 1272 l 1,8,-1
 541 838 l 1,9,-1
 1382 424 l 1,10,-1
 1382 259 l 1,4,-1
EndSplineSet
EndChar

StartChar: greaterequal
Encoding: 8805 8805 339
Width: 2318
GlyphClass: 2
Flags: W
LayerCount: 2
UndoRedoHistory
Layer: 1
Undoes
EndUndoes
Redoes
EndRedoes
EndUndoRedoHistory
Fore
SplineSet
334 1439 m 1,0,-1
 1389 883 l 1,1,-1
 1389 789 l 1,2,-1
 330 261 l 1,3,-1
 330 427 l 1,4,-1
 1180 835 l 1,5,-1
 334 1275 l 1,6,-1
 334 1439 l 1,0,-1
294 15 m 1,7,-1
 294 159 l 1,8,-1
 1412 159 l 1,9,-1
 1412 15 l 1,10,-1
 294 15 l 1,7,-1
EndSplineSet
EndChar

StartChar: lozenge
Encoding: 9674 9674 340
Width: 2138
GlyphClass: 2
Flags: W
LayerCount: 2
UndoRedoHistory
Layer: 1
Undoes
EndUndoes
Redoes
EndRedoes
EndUndoRedoHistory
Fore
SplineSet
708 -79 m 1,0,-1
 207 808 l 1,1,-1
 716 1700 l 1,2,-1
 829 1700 l 1,3,-1
 1334 809 l 1,4,-1
 820 -79 l 1,5,-1
 708 -79 l 1,0,-1
764 89 m 1,6,7
 807 176 807 176 862 278.5 c 128,-1,8
 917 381 917 381 952 443.5 c 128,-1,9
 987 506 987 506 1060 636 c 128,-1,10
 1133 766 1133 766 1157 808 c 1,11,12
 864 1347 864 1347 775 1528 c 1,13,14
 740 1457 740 1457 702.5 1385.5 c 128,-1,15
 665 1314 665 1314 620 1233.5 c 128,-1,16
 575 1153 575 1153 545.5 1100 c 128,-1,17
 516 1047 516 1047 460.5 949.5 c 128,-1,18
 405 852 405 852 382 811 c 1,19,20
 644 329 644 329 764 89 c 1,6,7
EndSplineSet
EndChar

StartChar: uniFB01
Encoding: 64257 64257 341
Width: 2132
GlyphClass: 2
Flags: W
LayerCount: 2
UndoRedoHistory
Layer: 1
Undoes
EndUndoes
Redoes
EndRedoes
EndUndoRedoHistory
Fore
SplineSet
1066 1535 m 1,0,-1
 1066 1717 l 1,1,-1
 1246 1717 l 1,2,-1
 1246 1535 l 1,3,-1
 1066 1535 l 1,0,-1
326 0 m 1,4,-1
 326 1079 l 1,5,-1
 89 1079 l 1,6,-1
 89 1205 l 1,7,-1
 326 1205 l 1,8,-1
 327 1336 l 2,9,10
 328 1437 328 1437 346.5 1514.5 c 128,-1,11
 365 1592 365 1592 404 1653 c 128,-1,12
 443 1714 443 1714 511.5 1746 c 128,-1,13
 580 1778 580 1778 676 1778 c 0,14,15
 699 1778 699 1778 723 1775.5 c 128,-1,16
 747 1773 747 1773 758 1771 c 128,-1,17
 769 1769 769 1769 800.5 1762 c 128,-1,18
 832 1755 832 1755 836 1754 c 1,19,-1
 838 1601 l 1,20,21
 793 1619 793 1619 709 1619 c 0,22,23
 598 1619 598 1619 559 1557 c 128,-1,24
 520 1495 520 1495 520 1365 c 2,25,-1
 519 1205 l 1,26,-1
 1251 1205 l 1,27,-1
 1251 0 l 1,28,-1
 1057 0 l 1,29,-1
 1057 1079 l 1,30,-1
 519 1079 l 1,31,-1
 519 0 l 1,32,-1
 326 0 l 1,4,-1
EndSplineSet
EndChar

StartChar: uniFB02
Encoding: 64258 64258 342
Width: 2360
GlyphClass: 2
Flags: W
LayerCount: 2
UndoRedoHistory
Layer: 1
Undoes
EndUndoes
Redoes
EndRedoes
EndUndoRedoHistory
Fore
SplineSet
1331 -277 m 0,0,1
 1167 -277 1167 -277 1078 -174.5 c 128,-1,2
 989 -72 989 -72 989 89 c 2,3,-1
 989 1493 l 1,4,-1
 1166 1528 l 1,5,-1
 1181 79 l 2,6,7
 1181 -17 1181 -17 1234 -67.5 c 128,-1,8
 1287 -118 1287 -118 1372 -118 c 0,9,10
 1447 -118 1447 -118 1555 -84 c 1,11,-1
 1585 -235 l 1,12,13
 1447 -277 1447 -277 1331 -277 c 0,0,1
147 -791 m 1,14,-1
 122 -649 l 1,15,16
 227 -624 227 -624 282 -534.5 c 128,-1,17
 337 -445 337 -445 337 -304 c 2,18,-1
 337 815 l 1,19,-1
 99 815 l 1,20,-1
 99 941 l 1,21,-1
 337 941 l 1,22,-1
 337 1110 l 2,23,24
 337 1333 337 1333 410 1434 c 128,-1,25
 483 1535 483 1535 643 1535 c 0,26,27
 729 1535 729 1535 832 1496 c 1,28,-1
 805 1371 l 1,29,30
 727 1391 727 1391 689 1391 c 0,31,32
 595 1391 595 1391 553 1331 c 128,-1,33
 511 1271 511 1271 511 1137 c 2,34,-1
 511 941 l 1,35,-1
 775 941 l 1,36,-1
 775 815 l 1,37,-1
 511 815 l 1,38,-1
 511 -277 l 2,39,40
 511 -508 511 -508 427 -636 c 128,-1,41
 343 -764 343 -764 147 -791 c 1,14,-1
EndSplineSet
EndChar

StartChar: e.alt
Encoding: 65539 -1 344
Width: 1840
GlyphClass: 2
Flags: W
LayerCount: 2
UndoRedoHistory
Layer: 1
Undoes
EndUndoes
Redoes
EndRedoes
EndUndoRedoHistory
Fore
SplineSet
390 564 m 1,0,1
 490 581 490 581 563.5 598 c 128,-1,2
 637 615 637 615 709 641.5 c 128,-1,3
 781 668 781 668 826 699 c 128,-1,4
 871 730 871 730 899 775 c 128,-1,5
 927 820 927 820 927 875 c 0,6,7
 927 957 927 957 873.5 1009 c 128,-1,8
 820 1061 820 1061 726 1061 c 0,9,10
 623 1061 623 1061 544.5 998.5 c 128,-1,11
 466 936 466 936 426.5 837.5 c 128,-1,12
 387 739 387 739 387 622 c 0,13,14
 387 594 387 594 390 564 c 1,0,1
720 -34 m 0,15,16
 614 -34 614 -34 516.5 9 c 128,-1,17
 419 52 419 52 343 130 c 128,-1,18
 267 208 267 208 221.5 329 c 128,-1,19
 176 450 176 450 176 595 c 0,20,21
 176 766 176 766 240.5 909 c 128,-1,22
 305 1052 305 1052 431.5 1140.5 c 128,-1,23
 558 1229 558 1229 724 1229 c 0,24,25
 896 1229 896 1229 1007 1124.5 c 128,-1,26
 1118 1020 1118 1020 1118 870 c 0,27,28
 1118 810 1118 810 1098 758.5 c 128,-1,29
 1078 707 1078 707 1044.5 667.5 c 128,-1,30
 1011 628 1011 628 958 594.5 c 128,-1,31
 905 561 905 561 847.5 536.5 c 128,-1,32
 790 512 790 512 713.5 490.5 c 128,-1,33
 637 469 637 469 565 454.5 c 128,-1,34
 493 440 493 440 403 425 c 1,35,36
 436 276 436 276 524.5 204.5 c 128,-1,37
 613 133 613 133 728 133 c 0,38,39
 835 133 835 133 933.5 182.5 c 128,-1,40
 1032 232 1032 232 1099 313 c 1,41,-1
 1197 188 l 1,42,43
 984 -34 984 -34 720 -34 c 0,15,16
EndSplineSet
EndChar

StartChar: f.alt
Encoding: 65540 -1 345
Width: 760
GlyphClass: 2
Flags: W
LayerCount: 2
UndoRedoHistory
Layer: 1
Undoes
EndUndoes
Redoes
EndRedoes
EndUndoRedoHistory
Fore
SplineSet
101 -410 m 1,0,-1
 80 -213 l 1,1,2
 177 -213 177 -213 218 -167.5 c 128,-1,3
 259 -122 259 -122 259 -19 c 2,4,-1
 259 862 l 1,5,-1
 73 862 l 1,6,-1
 73 1026 l 1,7,-1
 259 1026 l 1,8,-1
 259 1096 l 2,9,10
 259 1306 259 1306 362 1393 c 128,-1,11
 465 1480 465 1480 678 1480 c 2,12,-1
 781 1480 l 1,13,-1
 781 1292 l 1,14,-1
 696 1292 l 2,15,16
 582 1292 582 1292 541.5 1240 c 128,-1,17
 501 1188 501 1188 501 1061 c 2,18,-1
 501 1026 l 1,19,-1
 731 1026 l 1,20,-1
 731 862 l 1,21,-1
 501 862 l 1,22,-1
 501 -11 l 2,23,24
 501 -410 501 -410 101 -410 c 1,0,-1
EndSplineSet
EndChar

StartChar: four.alt
Encoding: 65541 -1 346
Width: 1254
GlyphClass: 2
Flags: W
LayerCount: 2
UndoRedoHistory
Layer: 1
Undoes
EndUndoes
Redoes
EndRedoes
EndUndoRedoHistory
Fore
SplineSet
344 511 m 1,0,-1
 755 511 l 1,1,-1
 755 1167 l 1,2,-1
 579 882 l 1,3,-1
 344 511 l 1,0,-1
755 0 m 1,4,-1
 755 327 l 1,5,-1
 114 327 l 1,6,-1
 114 504 l 1,7,-1
 720 1456 l 1,8,-1
 982 1456 l 1,9,-1
 982 511 l 1,10,-1
 1179 511 l 1,11,-1
 1179 327 l 1,12,-1
 982 327 l 1,13,-1
 982 0 l 1,14,-1
 755 0 l 1,4,-1
EndSplineSet
EndChar

StartChar: k.alt
Encoding: 65542 -1 347
Width: 1171
GlyphClass: 2
Flags: W
LayerCount: 2
UndoRedoHistory
Layer: 1
Undoes
EndUndoes
Redoes
EndRedoes
EndUndoRedoHistory
Fore
SplineSet
1167 195 m 1,0,-1
 1130 3 l 1,1,2
 1082 -15 1082 -15 1041 -20 c 128,-1,3
 1000 -25 1000 -25 955 -15.5 c 128,-1,4
 910 -6 910 -6 866 28.5 c 128,-1,5
 822 63 822 63 780 123 c 1,6,-1
 618 362 l 1,7,-1
 390 42 l 2,8,9
 363 3 363 3 322.5 -11.5 c 128,-1,10
 282 -26 282 -26 247 -17 c 128,-1,11
 212 -8 212 -8 187 24 c 128,-1,12
 162 56 162 56 162 102 c 2,13,-1
 162 1470 l 1,14,-1
 404 1470 l 1,15,-1
 404 389 l 1,16,-1
 824 1026 l 1,17,-1
 1046 965 l 1,18,-1
 762 539 l 1,19,-1
 932 290 l 1,20,21
 1007 194 1007 194 1046.5 180.5 c 128,-1,22
 1086 167 1086 167 1167 195 c 1,0,-1
EndSplineSet
EndChar

StartChar: nine.alt
Encoding: 65543 -1 348
Width: 1254
GlyphClass: 2
Flags: W
LayerCount: 2
UndoRedoHistory
Layer: 1
Undoes
EndUndoes
Redoes
EndRedoes
EndUndoRedoHistory
Fore
SplineSet
656 714 m 0,0,1
 758 714 758 714 834.5 792 c 128,-1,2
 911 870 911 870 911 1009 c 0,3,4
 911 1096 911 1096 872 1157.5 c 128,-1,5
 833 1219 833 1219 776 1245.5 c 128,-1,6
 719 1272 719 1272 652 1272 c 0,7,8
 546 1272 546 1272 467 1205 c 128,-1,9
 388 1138 388 1138 388 1011 c 0,10,11
 388 873 388 873 469 793.5 c 128,-1,12
 550 714 550 714 656 714 c 0,0,1
597 -119 m 1,13,-1
 411 -6 l 1,14,-1
 709 529 l 1,15,16
 698 523 698 523 623 523 c 0,17,18
 497 523 497 523 388.5 585.5 c 128,-1,19
 280 648 280 648 215.5 757.5 c 128,-1,20
 151 867 151 867 151 997 c 0,21,22
 151 1092 151 1092 180 1173 c 128,-1,23
 209 1254 209 1254 258 1309.5 c 128,-1,24
 307 1365 307 1365 370.5 1404.5 c 128,-1,25
 434 1444 434 1444 503.5 1462 c 128,-1,26
 573 1480 573 1480 643 1480 c 0,27,28
 714 1480 714 1480 782.5 1461 c 128,-1,29
 851 1442 851 1442 914 1402.5 c 128,-1,30
 977 1363 977 1363 1025 1306.5 c 128,-1,31
 1073 1250 1073 1250 1101.5 1168.5 c 128,-1,32
 1130 1087 1130 1087 1130 992 c 0,33,34
 1130 905 1130 905 1075.5 765.5 c 128,-1,35
 1021 626 1021 626 952 511 c 1,36,-1
 597 -119 l 1,13,-1
EndSplineSet
EndChar

StartChar: one.alt
Encoding: 65544 -1 349
Width: 999
GlyphClass: 2
Flags: W
LayerCount: 2
UndoRedoHistory
Layer: 1
Undoes
EndUndoes
Redoes
EndRedoes
EndUndoRedoHistory
Fore
SplineSet
471 0 m 1,0,-1
 471 1241 l 1,1,2
 394 1182 394 1182 195 1099 c 1,3,-1
 135 1270 l 1,4,5
 229 1312 229 1312 329 1366 c 128,-1,6
 429 1420 429 1420 477 1456 c 1,7,-1
 721 1456 l 1,8,-1
 721 0 l 1,9,-1
 471 0 l 1,0,-1
EndSplineSet
EndChar

StartChar: uniF6C3
Encoding: 65545 -1 350
Width: 1065
GlyphClass: 2
Flags: W
LayerCount: 2
UndoRedoHistory
Layer: 1
Undoes
EndUndoes
Redoes
EndRedoes
EndUndoRedoHistory
Fore
SplineSet
303 -612 m 1,0,-1
 428 -69 l 1,1,-1
 647 -69 l 1,2,-1
 456 -612 l 1,3,-1
 303 -612 l 1,0,-1
EndSplineSet
EndChar

